{"glyphs":{"0":{"ha":890,"x_min":83,"x_max":806,"o":"m 83 508 q 165 138 83 272 q 444 3 246 3 q 724 138 643 3 q 806 508 806 272 q 724 878 806 743 q 444 1013 643 1013 q 165 878 246 1013 q 83 508 83 743 m 650 508 q 635 321 650 397 q 576 196 621 244 q 444 147 532 147 q 313 196 357 147 q 253 321 268 244 q 239 508 239 397 q 253 694 239 618 q 313 819 268 771 q 444 868 357 868 q 576 819 532 868 q 635 694 621 771 q 650 508 650 618 z "},"1":{"ha":486,"x_min":63,"x_max":351,"o":"m 63 842 l 63 986 l 351 986 l 351 0 l 192 0 l 192 842 l 63 842 z "},"2":{"ha":801,"x_min":69,"x_max":746,"o":"m 174 218 q 383 406 307 332 q 510 558 460 479 q 561 713 561 636 q 522 838 561 792 q 397 883 482 883 q 270 831 315 883 q 222 692 225 779 l 69 692 q 165 934 74 850 q 396 1018 256 1018 q 569 981 497 1018 q 680 875 642 943 q 718 719 718 807 q 667 533 718 624 q 547 371 617 443 q 369 203 478 299 l 306 146 l 746 146 l 746 14 l 71 14 l 71 129 l 174 218 z "},"3":{"ha":825,"x_min":67,"x_max":742,"o":"m 413 1036 q 581 1001 510 1036 q 688 907 651 967 q 724 772 724 847 q 678 625 724 686 q 568 543 632 564 l 568 538 q 696 447 650 513 q 742 278 742 381 q 704 132 742 196 q 593 31 667 68 q 417 -6 519 -6 q 170 72 267 -6 q 67 293 74 149 l 219 293 q 276 173 225 219 q 415 126 328 126 q 546 173 500 126 q 592 293 592 219 q 530 431 592 390 q 340 472 468 472 l 304 472 l 304 603 l 342 603 q 513 640 454 604 q 572 754 572 676 q 529 860 572 821 q 407 900 486 900 q 286 860 329 900 q 235 763 243 821 l 81 763 q 180 964 89 892 q 413 1036 271 1036 z "},"4":{"ha":899,"x_min":64,"x_max":851,"o":"m 64 211 l 64 331 l 531 1000 l 722 1000 l 722 349 l 851 349 l 851 211 l 722 211 l 722 0 l 567 0 l 567 211 l 64 211 m 574 839 l 246 349 l 574 349 l 574 839 z "},"5":{"ha":888,"x_min":103,"x_max":806,"o":"m 736 876 l 271 876 l 271 600 q 358 665 300 639 q 481 692 415 692 q 670 642 597 692 q 774 515 743 592 q 806 354 806 439 q 766 172 806 251 q 648 46 726 92 q 456 0 569 0 q 213 75 304 0 q 103 274 121 150 l 257 274 q 325 170 272 208 q 457 132 378 132 q 605 192 556 132 q 654 350 654 251 q 604 503 654 450 q 457 557 554 557 q 342 523 389 557 q 275 431 296 489 l 125 431 l 125 1015 l 736 1015 l 736 876 z "},"6":{"ha":892,"x_min":103,"x_max":806,"o":"m 628 778 q 572 874 613 842 q 460 906 532 906 q 296 822 350 906 q 239 543 242 738 q 344 638 275 604 q 494 671 414 671 q 656 631 586 671 q 766 517 726 592 q 806 338 806 442 q 767 164 806 240 q 654 44 729 88 q 474 0 579 0 q 249 63 331 0 q 135 242 168 126 q 103 529 103 357 q 461 1038 103 1038 q 680 963 600 1038 q 774 778 760 888 l 628 778 m 257 340 q 312 188 257 244 q 465 132 367 132 q 603 186 553 132 q 654 331 654 240 q 605 481 654 425 q 460 538 556 538 q 316 487 375 538 q 257 340 257 436 z "},"7":{"ha":778,"x_min":56,"x_max":725,"o":"m 725 890 l 339 0 l 165 0 l 569 876 l 56 876 l 56 1008 l 725 1008 l 725 890 z "},"8":{"ha":886,"x_min":85,"x_max":803,"o":"m 110 771 q 147 908 110 846 q 260 1008 185 971 q 443 1044 335 1044 q 626 1008 550 1044 q 739 908 701 971 q 776 771 776 846 q 737 634 776 693 q 632 543 697 575 q 757 446 711 513 q 803 286 803 379 q 757 122 803 192 q 629 13 711 51 q 443 -25 547 -25 q 258 13 339 -25 q 131 122 176 51 q 85 286 85 192 q 131 447 85 381 q 254 543 176 514 q 110 771 110 615 m 263 750 q 313 637 263 681 q 443 593 364 593 q 574 638 522 593 q 625 751 625 682 q 576 871 625 829 q 443 913 528 913 q 311 871 360 913 q 263 750 263 829 m 236 292 q 292 158 236 208 q 443 107 347 107 q 592 158 538 107 q 647 292 647 210 q 592 426 647 379 q 443 474 536 474 q 294 428 351 474 q 236 292 236 382 z "},"9":{"ha":882,"x_min":107,"x_max":792,"o":"m 281 275 q 340 169 294 206 q 464 133 386 133 q 608 211 563 133 q 654 476 654 289 q 560 403 621 429 q 429 378 500 378 q 265 415 339 378 q 149 524 192 451 q 107 701 107 597 q 197 945 107 854 q 443 1036 286 1036 q 712 910 632 1036 q 792 525 792 785 q 762 232 792 346 q 658 60 732 118 q 454 1 585 1 q 225 79 306 1 q 135 275 144 157 l 281 275 m 636 701 q 585 851 636 797 q 447 904 535 904 q 309 849 360 904 q 258 706 258 794 q 308 566 258 621 q 457 511 357 511 q 588 563 540 511 q 636 701 636 615 z "},"\u0000":{"ha":0,"x_min":0,"x_max":0,"o":""},"\r":{"ha":417,"x_min":0,"x_max":0,"o":""}," ":{"ha":417,"x_min":0,"x_max":0,"o":""},"अ":{"ha":1168,"x_min":119,"x_max":1211,"o":"m 1211 1028 l 1211 896 l 1044 896 l 1044 0 l 893 0 l 893 425 l 710 425 q 718 363 718 396 q 636 153 718 229 q 421 78 554 78 q 264 112 332 78 q 158 210 196 146 q 119 363 119 275 l 263 363 q 306 250 263 293 q 422 207 350 207 q 535 249 493 207 q 576 363 576 292 q 530 472 576 435 q 399 508 483 508 l 351 508 l 351 643 l 396 643 q 514 677 468 643 q 560 776 560 711 q 522 874 560 836 q 418 911 483 911 q 313 874 353 911 q 272 775 274 836 l 131 775 q 168 915 131 854 q 272 1008 206 975 q 419 1042 338 1042 q 624 972 546 1042 q 703 785 703 901 q 667 658 703 711 q 565 583 631 606 l 565 576 q 617 553 593 568 l 893 553 l 893 1028 l 1211 1028 z "},"आ":{"ha":1565,"x_min":119,"x_max":1610,"o":"m 1610 896 l 1443 896 l 1443 0 l 1292 0 l 1292 896 l 1044 896 l 1044 0 l 893 0 l 893 425 l 710 425 q 718 363 718 396 q 636 153 718 229 q 421 78 554 78 q 264 112 332 78 q 158 210 196 146 q 119 363 119 275 l 263 363 q 306 250 263 293 q 422 207 350 207 q 535 249 493 207 q 576 363 576 292 q 530 472 576 435 q 399 508 483 508 l 351 508 l 351 643 l 396 643 q 514 677 468 643 q 560 776 560 711 q 522 874 560 836 q 418 911 483 911 q 313 874 353 911 q 272 775 274 836 l 131 775 q 168 915 131 854 q 272 1008 206 975 q 419 1042 338 1042 q 624 972 546 1042 q 703 785 703 901 q 667 658 703 711 q 565 583 631 606 l 565 576 q 617 553 593 568 l 893 553 l 893 1028 l 1610 1028 l 1610 896 z "},"इ":{"ha":822,"x_min":-43,"x_max":865,"o":"m 451 640 q 329 621 372 640 q 286 547 286 601 q 327 470 286 489 q 449 451 368 451 q 673 403 588 451 q 758 221 758 356 q 685 48 758 115 q 489 -19 613 -19 q 369 1 422 -19 q 285 61 317 22 l 285 -110 l 140 -110 l 140 267 l 285 267 q 332 147 289 189 q 458 104 375 104 q 569 134 529 104 q 610 224 610 164 q 565 309 610 289 q 438 329 521 329 q 217 376 300 329 q 135 554 135 424 q 215 717 135 667 q 421 767 296 767 l 522 767 l 522 896 l -43 896 l -43 1028 l 865 1028 l 865 896 l 674 896 l 674 640 l 451 640 z "},"ई":{"ha":822,"x_min":-43,"x_max":1007,"o":"m 774 1324 q 689 1281 714 1324 q 664 1150 664 1238 l 664 1028 l 865 1028 l 865 896 l 674 896 l 674 640 l 451 640 q 329 621 372 640 q 286 547 286 601 q 327 470 286 489 q 449 451 368 451 q 673 403 588 451 q 758 221 758 356 q 685 48 758 115 q 489 -19 613 -19 q 369 1 422 -19 q 285 61 317 22 l 285 -110 l 140 -110 l 140 267 l 285 267 q 332 147 289 189 q 458 104 375 104 q 569 134 529 104 q 610 224 610 164 q 565 309 610 289 q 438 329 521 329 q 217 376 300 329 q 135 554 135 424 q 215 717 135 667 q 421 767 296 767 l 522 767 l 522 896 l -43 896 l -43 1028 l 531 1028 l 531 1149 q 587 1369 531 1289 q 775 1449 643 1449 q 947 1381 888 1449 q 1007 1197 1007 1314 l 878 1197 q 852 1291 876 1258 q 774 1324 828 1324 z "},"उ":{"ha":801,"x_min":-47,"x_max":844,"o":"m 676 858 q 651 665 676 736 q 549 558 625 594 l 549 553 q 671 463 625 526 q 717 311 717 400 q 634 92 717 172 q 410 11 551 11 q 238 51 313 11 q 124 165 164 92 q 83 333 83 238 l 224 333 q 277 197 224 251 q 411 143 331 143 q 531 190 486 143 q 576 311 576 236 q 520 441 576 397 q 375 485 464 485 l 321 485 l 321 619 l 368 619 q 499 679 463 619 q 535 854 535 739 l 535 896 l -47 896 l -47 1028 l 844 1028 l 844 896 l 676 896 l 676 858 z "},"ऊ":{"ha":1185,"x_min":-43,"x_max":1228,"o":"m 676 858 q 650 665 676 736 q 547 557 624 594 l 547 549 l 804 549 q 1125 288 1125 549 q 1049 92 1125 154 q 839 29 974 29 q 769 33 806 29 l 769 153 q 821 150 806 150 q 938 181 899 150 q 978 286 978 211 q 933 392 978 363 q 804 422 889 422 l 692 422 q 717 311 717 375 q 634 92 717 172 q 410 11 551 11 q 238 51 313 11 q 124 165 164 92 q 83 333 83 238 l 224 333 q 276 197 224 251 q 410 143 329 143 q 531 189 486 143 q 576 311 576 235 q 519 441 576 397 q 374 485 463 485 l 319 485 l 319 619 l 368 619 q 499 679 463 619 q 535 854 535 739 l 535 896 l -43 896 l -43 1028 l 1228 1028 l 1228 896 l 676 896 l 676 858 z "},"ऋ":{"ha":1386,"x_min":-43,"x_max":1431,"o":"m 817 896 l 817 653 l 1051 653 q 1115 671 1100 653 q 1129 738 1129 689 l 1129 786 l 1267 786 l 1267 294 l 1232 294 q 1122 260 1158 293 q 1085 165 1085 226 q 1128 69 1085 100 q 1238 38 1171 38 q 1325 49 1286 38 l 1325 -72 q 1226 -85 1279 -85 q 1022 -22 1101 -85 q 942 163 942 42 q 992 313 942 253 q 1129 392 1042 372 l 1129 532 q 1051 526 1100 526 l 817 526 l 817 0 l 667 0 l 667 336 l 343 0 l 147 0 l 147 8 l 656 492 q 583 599 635 560 q 454 638 531 638 q 297 574 354 638 q 239 403 239 510 l 89 403 q 130 594 89 511 q 248 722 171 676 q 429 768 325 768 q 667 658 585 768 l 667 896 l -43 896 l -43 1028 l 1431 1028 l 1431 896 l 817 896 z "},"ॠ":{"ha":1388,"x_min":-43,"x_max":1429,"o":"m 817 896 l 817 653 l 1051 653 q 1115 671 1100 653 q 1129 738 1129 689 l 1129 786 l 1267 786 l 1267 281 l 1232 281 q 1126 263 1165 279 q 1088 193 1088 246 q 1129 124 1088 140 q 1239 108 1171 108 l 1281 108 l 1281 -10 l 1236 -10 q 1089 -112 1089 -10 q 1126 -185 1089 -161 q 1224 -208 1163 -208 q 1322 -196 1267 -208 l 1322 -312 q 1213 -325 1271 -325 q 1021 -272 1094 -325 q 947 -124 947 -219 q 978 -22 947 -67 q 1058 44 1008 22 q 978 101 1010 61 q 946 196 946 142 q 998 318 946 275 q 1129 374 1050 361 l 1129 532 q 1051 526 1100 526 l 817 526 l 817 0 l 667 0 l 667 336 l 343 0 l 147 0 l 147 7 q 390 240 228 86 q 656 492 553 394 q 583 599 635 560 q 454 638 531 638 q 297 574 354 638 q 239 403 239 510 l 89 403 q 130 594 89 511 q 248 722 171 676 q 429 768 325 768 q 667 658 585 768 l 667 896 l -43 896 l -43 1028 l 1429 1028 l 1429 896 l 817 896 z "},"ऌ":{"ha":1261,"x_min":-43,"x_max":1304,"o":"m 849 147 q 897 296 849 236 q 1028 372 944 356 q 997 518 1032 458 q 874 578 961 578 q 748 517 785 578 q 711 350 711 456 q 713 306 711 321 l 571 306 q 572 350 572 321 q 413 578 572 578 q 294 524 332 578 q 257 376 257 469 q 312 215 257 272 q 471 157 367 157 l 499 158 l 499 24 q 453 22 483 22 q 267 66 346 22 q 147 189 189 110 q 106 375 106 268 q 182 624 106 535 q 399 713 258 713 q 552 671 489 713 q 643 553 615 629 q 701 646 661 610 q 800 694 742 682 l 800 896 l -43 896 l -43 1028 l 1304 1028 l 1304 896 l 946 896 l 946 707 q 1115 607 1053 689 q 1176 388 1176 525 q 1165 281 1176 339 l 1139 281 q 1027 247 1064 281 q 990 151 990 214 q 1033 56 990 88 q 1143 24 1076 24 q 1231 35 1183 24 l 1231 -86 q 1131 -99 1185 -99 q 927 -36 1006 -99 q 849 147 849 26 z "},"ॡ":{"ha":1263,"x_min":-43,"x_max":1304,"o":"m 1146 286 q 1041 269 1081 286 q 1001 199 1001 251 q 1043 131 1001 147 q 1154 115 1085 115 l 1196 115 l 1196 -3 l 1150 -3 q 1004 -107 1004 -3 q 1041 -179 1004 -156 q 1140 -203 1078 -203 q 1236 -189 1192 -203 l 1236 -306 q 1126 -318 1192 -318 q 935 -266 1008 -318 q 861 -118 861 -214 q 892 -15 861 -60 q 974 50 924 29 q 892 108 924 68 q 860 203 860 149 q 908 319 860 278 q 1028 371 956 361 q 874 578 1031 578 q 748 517 785 578 q 711 350 711 456 q 713 306 711 321 l 571 306 q 572 350 572 321 q 413 578 572 578 q 294 524 332 578 q 257 376 257 469 q 312 215 257 272 q 471 157 367 157 l 499 158 l 499 24 q 453 22 483 22 q 267 66 346 22 q 147 189 189 110 q 106 375 106 268 q 182 624 106 535 q 399 713 258 713 q 552 671 489 713 q 643 553 615 629 q 701 646 661 610 q 800 694 742 682 l 800 896 l -43 896 l -43 1028 l 1304 1028 l 1304 896 l 946 896 l 946 707 q 1116 606 1054 689 q 1178 383 1178 522 q 1168 286 1178 335 l 1146 286 z "},"ए":{"ha":928,"x_min":-43,"x_max":971,"o":"m 971 896 l 817 896 l 817 733 q 744 500 817 569 q 511 433 672 431 l 511 572 q 604 586 572 574 q 650 633 636 599 q 664 733 664 667 l 664 896 l 301 896 l 301 363 q 488 158 301 158 q 622 203 576 158 q 668 335 668 247 l 817 335 q 729 108 817 189 q 492 26 642 26 q 234 120 318 26 q 150 374 150 214 l 149 896 l -43 896 l -43 1028 l 971 1028 l 971 896 z "},"ऐ":{"ha":928,"x_min":-43,"x_max":971,"o":"m 971 896 l 817 896 l 817 733 q 744 500 817 569 q 511 433 672 431 l 511 572 q 604 586 572 574 q 650 633 636 599 q 664 733 664 667 l 664 896 l 301 896 l 301 363 q 488 158 301 158 q 622 203 576 158 q 668 335 668 247 l 817 335 q 729 108 817 189 q 492 26 642 26 q 234 120 318 26 q 150 374 150 214 l 149 896 l -43 896 l -43 1028 l 624 1028 q 514 1174 551 1133 q 431 1228 476 1215 q 293 1242 386 1242 l 236 1242 l 236 1365 l 286 1365 q 474 1344 407 1364 q 607 1256 540 1325 q 769 1028 674 1186 l 971 1028 l 971 896 z "},"ओ":{"ha":1581,"x_min":133,"x_max":1624,"o":"m 1624 1028 l 1624 896 l 1457 896 l 1457 0 l 1306 0 l 1306 896 l 1058 896 l 1058 0 l 907 0 l 907 425 l 724 425 q 732 363 732 396 q 650 153 732 229 q 435 78 568 78 q 278 112 346 78 q 172 210 210 146 q 133 363 133 275 l 276 363 q 320 250 276 293 q 436 207 364 207 q 549 249 507 207 q 590 363 590 292 q 544 472 590 435 q 413 508 497 508 l 365 508 l 365 643 l 410 643 q 528 677 482 643 q 574 776 574 711 q 535 874 574 836 q 432 911 497 911 q 327 874 367 911 q 286 775 288 836 l 144 775 q 182 915 144 854 q 285 1008 219 975 q 433 1042 351 1042 q 638 972 560 1042 q 717 785 717 901 q 681 658 717 711 q 579 583 644 606 l 579 576 q 631 553 607 568 l 907 553 l 907 1028 l 1317 1028 q 1207 1174 1244 1133 q 1124 1228 1169 1215 q 986 1242 1079 1242 l 929 1242 l 929 1365 l 979 1365 q 1167 1344 1100 1364 q 1300 1256 1233 1325 q 1463 1028 1367 1186 l 1624 1028 z "},"औ":{"ha":1628,"x_min":181,"x_max":1671,"o":"m 1671 1028 l 1671 896 l 1504 896 l 1504 0 l 1353 0 l 1353 896 l 1106 896 l 1106 0 l 954 0 l 954 425 l 771 425 q 779 363 779 396 q 697 153 779 229 q 482 78 615 78 q 325 112 393 78 q 219 210 257 146 q 181 363 181 275 l 324 363 q 367 250 324 293 q 483 207 411 207 q 596 249 554 207 q 638 363 638 292 q 591 472 638 435 q 460 508 544 508 l 413 508 l 413 643 l 457 643 q 575 677 529 643 q 621 776 621 711 q 583 874 621 836 q 479 911 544 911 q 374 874 414 911 q 333 775 335 836 l 192 775 q 229 915 192 854 q 333 1008 267 975 q 481 1042 399 1042 q 685 972 607 1042 q 764 785 764 901 q 728 658 764 711 q 626 583 692 606 l 626 576 q 678 553 654 568 l 954 553 l 954 1028 l 1356 1028 q 1267 1092 1307 1072 q 1181 1115 1226 1111 q 1042 1119 1136 1119 l 985 1119 l 985 1226 l 1035 1226 q 1163 1222 1119 1226 q 1248 1199 1206 1218 q 1340 1136 1290 1181 q 1251 1244 1293 1210 q 1163 1290 1210 1279 q 1036 1301 1115 1301 l 979 1301 l 979 1410 l 1029 1410 q 1213 1385 1147 1408 q 1341 1284 1278 1363 q 1500 1028 1404 1206 l 1671 1028 z "},"ऍ":{"ha":896,"x_min":-72,"x_max":942,"o":"m 431 1211 q 374 1274 392 1222 q 356 1404 356 1325 l 544 1404 q 526 1276 544 1328 q 471 1211 508 1224 q 450 1178 463 1178 q 431 1211 439 1178 m 942 896 l 788 896 l 788 733 q 715 500 788 569 q 482 433 643 431 l 482 572 q 575 586 543 574 q 621 633 607 599 q 635 733 635 667 l 635 896 l 272 896 l 272 363 q 458 158 272 158 q 593 203 547 158 q 639 335 639 247 l 788 335 q 700 108 788 189 q 463 26 613 26 q 205 120 289 26 q 121 374 121 214 l 119 896 l -72 896 l -72 1028 l 942 1028 l 942 896 z "},"ॲ":{"ha":1168,"x_min":119,"x_max":1261,"o":"m 1211 1028 l 1211 896 l 1044 896 l 1044 0 l 893 0 l 893 425 l 710 425 q 718 363 718 396 q 636 153 718 229 q 421 78 554 78 q 264 112 332 78 q 158 210 196 146 q 119 363 119 275 l 263 363 q 306 250 263 293 q 422 207 350 207 q 535 249 493 207 q 576 363 576 292 q 530 472 576 435 q 399 508 483 508 l 351 508 l 351 643 l 396 643 q 514 677 468 643 q 560 776 560 711 q 522 874 560 836 q 418 911 483 911 q 313 874 353 911 q 272 775 274 836 l 131 775 q 168 915 131 854 q 272 1008 206 975 q 419 1042 338 1042 q 624 972 546 1042 q 703 785 703 901 q 667 658 703 711 q 565 583 631 606 l 565 576 q 617 553 593 568 l 893 553 l 893 1028 l 1211 1028 m 976 1118 q 762 1190 832 1118 q 692 1379 692 1261 l 822 1379 q 860 1276 822 1318 q 976 1235 899 1235 q 1092 1276 1053 1235 q 1131 1379 1131 1318 l 1261 1379 q 1191 1190 1261 1261 q 976 1118 1121 1118 z "},"ऑ":{"ha":1581,"x_min":133,"x_max":1624,"o":"m 1204 1132 q 994 1203 1060 1132 q 928 1393 928 1274 l 1058 1393 q 1093 1290 1058 1331 q 1204 1249 1128 1249 q 1316 1290 1281 1249 q 1351 1393 1351 1331 l 1482 1393 q 1415 1203 1482 1274 q 1204 1132 1349 1132 m 1624 896 l 1457 896 l 1457 0 l 1306 0 l 1306 896 l 1058 896 l 1058 0 l 907 0 l 907 425 l 724 425 q 732 363 732 396 q 650 153 732 229 q 435 78 568 78 q 278 112 346 78 q 172 210 210 146 q 133 363 133 275 l 276 363 q 320 250 276 293 q 436 207 364 207 q 549 249 507 207 q 590 363 590 292 q 544 472 590 435 q 413 508 497 508 l 365 508 l 365 643 l 410 643 q 528 677 482 643 q 574 776 574 711 q 535 874 574 836 q 432 911 497 911 q 327 874 367 911 q 286 775 288 836 l 144 775 q 182 915 144 854 q 285 1008 219 975 q 433 1042 351 1042 q 638 972 560 1042 q 717 785 717 901 q 681 658 717 711 q 579 583 644 606 l 579 576 q 631 553 607 568 l 907 553 l 907 1028 l 1624 1028 l 1624 896 z "},"ा":{"ha":399,"x_min":-43,"x_max":442,"o":"m 275 0 l 124 0 l 124 896 l -43 896 l -43 1028 l 442 1028 l 442 896 l 275 896 l 275 0 z "},"ि":{"ha":399,"x_min":-43,"x_max":1225,"o":"m 675 1400 q 1073 1318 921 1400 q 1225 1044 1225 1236 l 1225 972 l 1075 972 l 1075 1029 q 966 1222 1075 1172 q 675 1271 857 1271 q 385 1222 493 1271 q 276 1029 276 1172 l 276 1028 l 442 1028 l 442 896 l 275 896 l 275 0 l 124 0 l 124 896 l -43 896 l -43 1028 l 126 1028 l 126 1044 q 278 1318 126 1236 q 675 1400 431 1400 z "},"ी":{"ha":399,"x_min":-274,"x_max":442,"o":"m 442 1028 l 442 896 l 275 896 l 275 0 l 124 0 l 124 896 l -43 896 l -43 1028 l 126 1028 l 126 1067 q 100 1223 126 1174 q -1 1272 74 1272 q -103 1223 -76 1272 q -129 1067 -129 1174 l -129 972 l -274 972 l -274 1076 q -212 1315 -274 1231 q -1 1400 -151 1400 q 210 1315 149 1400 q 271 1076 271 1231 l 271 1028 l 442 1028 z "},"ु":{"ha":0,"x_min":-597,"x_max":21,"o":"m -269 -43 q -153 -72 -190 -44 q -115 -160 -115 -99 q -153 -249 -115 -218 q -262 -279 -192 -279 q -403 -236 -350 -279 q -458 -101 -457 -193 l -597 -101 q -507 -324 -594 -244 q -260 -403 -419 -403 q -53 -337 -126 -403 q 21 -158 21 -272 q -52 22 21 -42 q -269 79 -125 85 l -269 -43 z "},"ू":{"ha":0,"x_min":-469,"x_max":158,"o":"m -192 -279 q -224 -282 -214 -282 q -309 -253 -278 -282 q -340 -171 -340 -225 q -300 -81 -340 -112 q -196 -50 -260 -50 q -26 -135 -76 -50 q 22 -383 25 -221 l 156 -383 q 77 -54 158 -179 q -196 71 -4 71 q -390 9 -311 71 q -469 -171 -469 -53 q -404 -342 -469 -282 q -232 -401 -339 -401 q -192 -399 -219 -401 l -192 -279 z "},"ृ":{"ha":0,"x_min":-431,"x_max":-74,"o":"m -153 0 q -253 -32 -219 0 q -287 -125 -287 -64 q -254 -215 -287 -182 q -154 -249 -221 -249 q -74 -233 -107 -249 l -74 -356 q -169 -372 -114 -372 q -359 -306 -287 -372 q -431 -129 -431 -239 q -360 49 -431 -17 q -160 114 -289 114 q -129 113 -135 114 l -129 0 l -153 0 z "},"ॄ":{"ha":0,"x_min":-446,"x_max":-111,"o":"m -165 -608 q -366 -560 -287 -608 q -444 -411 -444 -511 q -415 -312 -444 -353 q -333 -251 -385 -272 q -415 -190 -385 -231 q -446 -93 -446 -149 q -366 54 -446 8 q -176 100 -286 100 l -135 100 l -135 0 l -164 0 q -266 -20 -228 0 q -304 -93 -304 -40 q -264 -167 -304 -147 q -154 -186 -224 -186 l -111 -186 l -111 -304 l -162 -304 q -266 -326 -229 -306 q -303 -400 -303 -346 q -162 -490 -303 -490 l -111 -490 l -111 -608 l -165 -608 z "},"ॢ":{"ha":0,"x_min":199,"x_max":954,"o":"m 725 36 q 868 -26 818 36 q 918 -187 918 -89 q 911 -256 918 -224 l 900 -256 q 804 -331 804 -256 q 831 -384 804 -367 q 901 -401 857 -401 q 954 -396 928 -401 l 954 -496 q 890 -503 922 -503 q 742 -461 799 -503 q 686 -339 686 -419 q 718 -243 686 -282 q 801 -193 750 -204 q 788 -110 806 -144 q 715 -75 769 -75 q 642 -109 664 -75 q 621 -203 621 -143 q 622 -239 621 -226 l 500 -239 q 501 -203 501 -226 q 482 -109 501 -143 q 413 -75 463 -75 q 344 -106 368 -75 q 321 -194 321 -137 q 360 -296 321 -264 q 471 -324 399 -328 l 471 -432 q 443 -433 461 -433 q 265 -368 332 -433 q 199 -196 199 -303 q 251 -26 199 -87 q 401 35 304 35 q 503 6 461 35 q 563 -72 546 -24 q 618 6 576 -25 q 725 36 660 36 z "},"ॣ":{"ha":0,"x_min":199,"x_max":951,"o":"m 900 -254 q 828 -262 850 -254 q 807 -297 807 -269 q 829 -333 807 -325 q 900 -342 851 -340 l 921 -342 l 921 -424 l 903 -424 q 830 -433 853 -424 q 807 -471 807 -442 q 883 -515 807 -515 q 951 -504 915 -515 l 951 -590 q 868 -601 911 -601 q 745 -572 790 -601 q 700 -481 700 -542 q 771 -382 700 -407 q 700 -290 700 -358 q 731 -220 700 -244 q 804 -192 761 -196 q 789 -108 808 -143 q 715 -72 769 -72 q 642 -107 664 -72 q 621 -203 621 -142 q 622 -239 621 -226 l 500 -239 q 501 -203 501 -226 q 482 -109 501 -143 q 413 -75 463 -75 q 344 -106 368 -75 q 321 -194 321 -137 q 360 -296 321 -264 q 471 -324 399 -328 l 471 -432 q 443 -433 461 -433 q 265 -368 332 -433 q 199 -196 199 -303 q 251 -26 199 -87 q 401 35 304 35 q 503 6 461 35 q 563 -72 546 -24 q 618 6 576 -25 q 725 36 660 36 q 868 -26 818 36 q 918 -187 918 -89 q 911 -254 918 -219 l 900 -254 z "},"े":{"ha":0,"x_min":-668,"x_max":-129,"o":"m -274 1018 q -387 1172 -349 1131 q -471 1228 -425 1214 q -611 1242 -517 1242 l -668 1242 l -668 1365 l -618 1365 q -428 1344 -496 1364 q -294 1253 -361 1325 q -129 1018 -226 1181 l -274 1018 z "},"ै":{"ha":0,"x_min":-654,"x_max":-126,"o":"m -604 1410 q -419 1385 -485 1408 q -290 1281 -354 1361 q -126 1015 -225 1200 l -264 1015 q -360 1088 -318 1067 q -447 1115 -401 1110 q -592 1119 -493 1119 l -649 1119 l -649 1226 l -599 1226 q -471 1222 -514 1226 q -385 1199 -428 1218 q -293 1136 -343 1181 q -382 1244 -340 1210 q -471 1290 -424 1279 q -597 1301 -518 1301 l -654 1301 l -654 1410 l -604 1410 z "},"ो":{"ha":399,"x_min":-274,"x_max":442,"o":"m 442 1028 l 442 896 l 275 896 l 275 0 l 124 0 l 124 896 l -43 896 l -43 1028 l 114 1028 q 4 1174 42 1133 q -78 1228 -33 1215 q -217 1242 -124 1242 l -274 1242 l -274 1365 l -224 1365 q -36 1344 -103 1364 q 97 1256 31 1325 q 260 1028 164 1186 l 442 1028 z "},"ौ":{"ha":376,"x_min":-251,"x_max":442,"o":"m 442 1028 l 442 896 l 275 896 l 275 0 l 124 0 l 124 896 l -43 896 l -43 1028 l 125 1028 q 36 1092 76 1072 q -49 1115 -4 1111 q -189 1119 -94 1119 l -246 1119 l -246 1226 l -196 1226 q -68 1222 -111 1226 q 17 1199 -25 1218 q 110 1136 60 1181 q 21 1244 63 1210 q -68 1290 -21 1279 q -194 1301 -115 1301 l -251 1301 l -251 1410 l -201 1410 q -18 1385 -83 1408 q 110 1284 47 1363 q 269 1028 174 1206 l 442 1028 z "},"ॅ":{"ha":0,"x_min":-487,"x_max":82,"o":"m -203 1132 q -417 1203 -347 1132 q -487 1393 -487 1275 l -357 1393 q -319 1290 -357 1332 q -203 1249 -281 1249 q -87 1290 -126 1249 q -49 1393 -49 1332 l 82 1393 q 12 1203 82 1275 q -203 1132 -58 1132 z "},"ॉ":{"ha":392,"x_min":-89,"x_max":481,"o":"m 275 0 l 124 0 l 124 896 l -43 896 l -43 1028 l 442 1028 l 442 896 l 275 896 l 275 0 m 196 1132 q -19 1203 51 1132 q -89 1393 -89 1275 l 42 1393 q 80 1290 42 1332 q 196 1249 118 1249 q 311 1290 272 1249 q 350 1393 350 1332 l 481 1393 q 410 1203 481 1275 q 196 1132 340 1132 z "},"क":{"ha":1394,"x_min":-43,"x_max":1439,"o":"m 790 896 l 790 672 q 876 748 822 721 q 1001 775 929 775 q 1163 733 1094 775 q 1267 617 1231 690 q 1303 451 1303 544 q 1262 285 1303 356 q 1148 178 1221 215 q 982 140 1075 140 q 913 146 960 140 l 911 271 q 954 268 942 268 q 1099 316 1046 268 q 1151 451 1151 364 q 1103 592 1151 540 q 965 643 1056 643 q 835 587 879 643 q 790 431 790 531 l 790 0 l 643 0 l 643 235 q 553 158 610 186 q 419 131 496 131 q 258 172 328 131 q 151 287 189 214 q 114 451 114 360 q 151 617 114 543 q 258 733 189 690 q 419 775 328 775 q 552 747 496 775 q 643 669 608 719 l 643 896 l -43 896 l -43 1028 l 1439 1028 l 1439 896 l 790 896 m 456 263 q 594 313 544 263 q 643 451 643 364 q 593 591 643 540 q 454 642 543 642 q 315 592 364 642 q 265 451 265 542 q 315 313 265 363 q 456 263 365 263 z "},"ख":{"ha":1289,"x_min":-43,"x_max":1333,"o":"m 1333 1028 l 1333 896 l 1165 896 l 1165 0 l 1019 0 l 1019 267 q 940 205 989 226 q 825 183 892 183 q 793 185 803 183 q 671 47 758 96 q 465 -3 583 -3 q 206 89 301 -3 q 110 346 110 181 l 110 565 l 153 565 q 289 583 247 567 q 346 649 331 599 q 361 814 361 700 l 361 896 l -43 896 l -43 1028 l 1333 1028 m 464 129 q 589 158 539 129 q 658 239 639 186 q 581 336 608 276 q 554 469 554 396 q 589 615 554 550 q 685 716 624 679 q 825 753 746 753 q 1019 672 957 753 l 1019 896 l 511 896 l 511 814 q 490 603 511 676 q 417 496 469 529 q 261 456 364 463 l 261 336 q 464 129 261 129 m 860 308 q 975 351 932 308 q 1018 469 1018 394 q 976 586 1018 543 q 860 629 933 629 q 740 586 785 629 q 694 469 694 543 q 740 351 694 394 q 860 308 785 308 z "},"ग":{"ha":1032,"x_min":-43,"x_max":1076,"o":"m 1076 1028 l 1076 896 l 908 896 l 908 0 l 758 0 l 758 896 l 506 896 l 506 578 q 453 358 506 432 q 275 285 400 285 q 39 569 31 285 l 189 569 q 206 456 189 494 q 276 418 222 418 q 333 439 315 418 q 356 491 351 460 q 361 575 361 522 l 361 896 l -43 896 l -43 1028 l 1076 1028 z "},"घ":{"ha":967,"x_min":-43,"x_max":1010,"o":"m 1010 896 l 843 896 l 843 0 l 692 0 l 692 264 q 576 176 647 207 q 411 146 504 146 q 260 174 331 146 q 145 259 189 203 q 101 397 101 315 q 140 524 101 471 q 239 601 178 576 l 239 610 q 147 699 172 640 q 122 867 122 758 l 122 896 l -43 896 l -43 1028 l 1010 1028 l 1010 896 m 692 896 l 275 896 l 275 867 q 288 751 275 793 q 334 689 300 710 q 435 668 368 668 l 489 668 l 489 542 l 432 542 q 301 507 350 542 q 253 407 253 472 q 306 306 253 339 q 440 274 360 274 q 567 301 510 274 q 658 378 625 328 q 692 494 692 428 l 692 896 z "},"ङ":{"ha":939,"x_min":-43,"x_max":982,"o":"m 982 1028 l 982 896 l 656 896 l 656 640 l 433 640 q 311 621 354 640 q 268 547 268 601 q 308 470 268 489 q 431 451 349 451 q 655 403 569 451 q 740 221 740 354 q 703 97 740 151 q 599 11 667 42 q 439 -19 531 -19 q 194 56 288 -19 q 97 267 100 131 l 246 267 q 299 147 251 189 q 436 104 346 104 q 549 134 508 104 q 590 224 590 164 q 547 308 590 288 q 419 329 503 329 q 199 377 282 329 q 115 554 115 425 q 196 717 115 667 q 401 767 276 767 l 504 767 l 504 896 l -43 896 l -43 1028 l 982 1028 m 808 607 q 872 581 846 607 q 899 517 899 554 q 872 452 899 479 q 808 425 846 425 q 744 452 771 425 q 718 517 718 479 q 744 581 718 554 q 808 607 771 607 z "},"च":{"ha":1021,"x_min":-43,"x_max":1064,"o":"m 1064 1028 l 1064 896 l 897 896 l 897 0 l 746 0 l 746 246 q 653 162 713 193 q 507 131 593 131 q 349 165 421 131 q 235 262 276 199 q 193 408 193 325 q 217 520 193 471 q 282 603 240 569 l 68 603 l 68 725 l 576 725 l 576 603 l 532 603 q 392 557 444 603 q 339 429 339 511 q 393 305 339 349 q 535 261 447 261 q 687 328 628 261 q 746 494 746 394 l 746 896 l -43 896 l -43 1028 l 1064 1028 z "},"छ":{"ha":1143,"x_min":-43,"x_max":1186,"o":"m 904 896 l 904 764 q 1028 662 986 738 q 1071 472 1071 586 q 1013 245 1071 342 q 842 96 954 149 q 571 43 729 43 q 341 74 446 43 q 172 172 236 106 q 108 340 108 239 q 149 477 108 419 q 260 564 189 535 l 260 572 q 158 666 185 600 q 131 854 131 732 l 131 896 l -43 896 l -43 1028 l 1186 1028 l 1186 896 l 904 896 m 760 896 l 282 896 l 282 849 q 294 721 282 767 q 343 653 307 675 q 450 631 379 631 l 468 631 l 468 503 l 446 503 q 312 464 363 503 q 261 351 261 425 q 349 216 261 258 q 568 174 438 174 q 842 249 743 174 q 940 479 940 325 q 906 613 940 567 q 814 658 872 658 q 715 603 747 658 q 685 401 682 549 l 554 401 l 553 444 q 604 681 553 603 q 758 774 656 760 l 760 896 z "},"ज":{"ha":1161,"x_min":-43,"x_max":1204,"o":"m 1204 1028 l 1204 896 l 1038 896 l 1038 0 l 886 0 l 886 582 l 665 582 l 665 494 q 601 233 665 325 q 381 142 538 142 q 151 237 215 142 q 86 494 86 332 l 86 707 l 238 707 l 238 528 q 246 387 238 439 q 285 304 254 335 q 379 274 315 274 q 472 304 443 274 q 509 385 501 335 q 517 528 517 436 l 517 707 l 886 707 l 886 896 l -43 896 l -43 1028 l 1204 1028 z "},"झ":{"ha":1174,"x_min":-43,"x_max":1217,"o":"m 1217 896 l 1050 896 l 1050 0 l 899 0 l 899 364 l 676 364 q 711 324 697 351 q 725 263 725 297 q 659 99 725 164 q 471 33 593 33 q 356 56 410 33 q 275 115 303 78 l 275 -60 l 131 -60 l 131 304 l 275 304 q 323 195 278 235 q 443 156 368 156 q 547 185 511 156 q 583 269 583 214 q 563 334 583 314 q 512 360 543 354 q 425 365 481 365 q 272 380 335 365 q 167 441 208 394 q 125 578 125 488 q 411 781 125 781 l 513 781 l 513 896 l -43 896 l -43 1028 l 1217 1028 l 1217 896 m 899 896 l 664 896 l 664 654 l 442 654 q 352 649 386 654 q 297 627 318 644 q 276 572 276 610 q 312 501 276 518 q 418 485 347 485 l 899 485 l 899 896 z "},"ञ":{"ha":1157,"x_min":-43,"x_max":1200,"o":"m 1200 1028 l 1200 896 l 1033 896 l 1033 0 l 882 0 l 882 394 l 725 394 q 626 197 708 271 q 406 124 543 124 q 185 192 267 124 q 86 365 103 261 l 235 365 q 291 287 247 318 q 406 256 335 256 q 539 309 494 256 q 583 457 583 363 q 539 604 583 550 q 406 658 494 658 q 291 627 335 658 q 235 549 247 596 l 86 549 q 185 720 103 651 q 406 789 268 789 q 623 717 540 789 q 724 525 706 644 l 882 525 l 882 896 l -43 896 l -43 1028 l 1200 1028 z "},"ट":{"ha":913,"x_min":-43,"x_max":956,"o":"m 526 640 q 319 583 396 640 q 242 407 242 525 q 306 242 242 304 q 475 181 371 181 q 642 242 582 181 q 703 411 703 304 l 849 411 q 803 218 849 300 q 673 92 757 136 q 476 49 589 49 q 278 93 365 49 q 142 219 190 138 q 93 408 93 300 q 198 669 93 575 q 475 771 303 764 l 475 896 l -43 896 l -43 1028 l 956 1028 l 956 896 l 626 896 l 626 640 l 526 640 z "},"ठ":{"ha":931,"x_min":-43,"x_max":974,"o":"m 853 415 q 803 228 853 308 q 668 103 754 147 q 474 58 582 58 q 279 103 365 58 q 144 228 193 147 q 96 415 96 308 q 179 649 96 556 q 399 764 263 743 l 399 896 l -43 896 l -43 1028 l 974 1028 l 974 896 l 549 896 l 549 764 q 769 650 685 744 q 853 415 853 556 m 244 415 q 308 251 244 314 q 474 189 371 189 q 641 251 578 189 q 704 415 704 314 q 641 579 704 517 q 474 642 578 642 q 308 579 371 642 q 244 415 244 517 z "},"ड":{"ha":803,"x_min":-43,"x_max":846,"o":"m 433 640 q 311 621 354 640 q 268 547 268 601 q 308 470 268 489 q 431 451 349 451 q 655 403 569 451 q 740 221 740 354 q 703 97 740 151 q 599 11 667 42 q 439 -19 531 -19 q 194 56 288 -19 q 97 267 100 131 l 246 267 q 299 147 251 189 q 436 104 346 104 q 549 134 508 104 q 590 224 590 164 q 547 308 590 288 q 419 329 503 329 q 199 377 282 329 q 115 554 115 425 q 196 717 115 667 q 401 767 276 767 l 504 767 l 504 896 l -43 896 l -43 1028 l 846 1028 l 846 896 l 656 896 l 656 640 l 433 640 z "},"ढ":{"ha":886,"x_min":-43,"x_max":929,"o":"m 553 653 q 324 585 408 653 q 239 383 239 517 q 315 200 239 265 q 519 135 390 135 q 655 173 607 135 q 703 276 703 211 q 677 358 703 326 q 596 390 651 390 q 517 357 542 390 q 493 269 493 324 l 360 269 q 418 447 358 381 q 594 513 478 513 q 774 449 704 513 q 844 281 844 386 q 802 131 844 194 q 685 35 760 68 q 515 3 610 3 q 298 48 394 3 q 146 180 201 93 q 90 386 90 267 q 208 675 90 575 q 517 782 326 775 l 517 896 l -43 896 l -43 1028 l 929 1028 l 929 896 l 668 896 l 668 653 l 553 653 z "},"ण":{"ha":1208,"x_min":-43,"x_max":1253,"o":"m 1253 1028 l 1253 896 l 1085 896 l 1085 0 l 935 0 l 935 896 l 711 896 l 711 550 q 642 308 711 394 q 421 221 572 221 q 131 550 131 221 l 131 896 l -43 896 l -43 1028 l 1253 1028 m 561 896 l 279 896 l 279 544 q 310 401 279 450 q 421 353 340 353 q 531 401 501 353 q 561 544 561 450 l 561 896 z "},"त":{"ha":946,"x_min":-43,"x_max":990,"o":"m 453 -1 q 180 88 274 -1 q 86 342 86 176 q 194 604 86 521 q 482 688 301 688 l 672 688 l 672 896 l -43 896 l -43 1028 l 990 1028 l 990 896 l 822 896 l 822 0 l 672 0 l 672 556 l 485 556 q 304 503 371 556 q 238 342 238 451 q 294 178 238 233 q 479 122 351 122 l 479 -1 l 453 -1 z "},"थ":{"ha":1067,"x_min":114,"x_max":1110,"o":"m 943 0 l 792 0 l 792 265 q 684 166 758 207 q 501 125 610 125 q 292 177 379 125 q 159 323 204 229 q 114 540 114 417 q 119 632 114 589 l 260 631 q 455 663 390 631 q 519 783 519 696 q 488 874 519 842 q 400 907 456 907 q 307 867 338 907 q 279 758 276 826 l 138 758 q 167 907 135 843 q 261 1006 200 971 q 401 1040 322 1040 q 536 1009 476 1040 q 631 919 596 978 q 665 779 665 860 q 559 574 665 636 q 274 515 453 513 q 330 328 267 399 q 522 257 393 257 q 658 291 597 257 q 754 388 718 325 q 792 533 790 450 l 792 1028 l 1110 1028 l 1110 896 l 943 896 l 943 0 z "},"द":{"ha":835,"x_min":-43,"x_max":878,"o":"m 586 179 q 515 132 563 150 q 411 114 468 114 q 244 151 318 114 q 127 261 169 189 q 85 435 85 333 q 194 686 85 604 q 488 768 303 768 l 536 768 l 536 896 l -43 896 l -43 1028 l 878 1028 l 878 896 l 688 896 l 688 632 l 503 632 q 306 586 376 632 q 236 431 236 540 q 290 292 236 339 q 438 244 343 244 q 555 282 510 244 q 600 396 600 319 l 736 396 l 736 -11 l 586 -11 l 586 179 z "},"ध":{"ha":1007,"x_min":124,"x_max":1049,"o":"m 1049 896 l 883 896 l 883 0 l 732 0 l 732 250 q 613 163 688 193 q 444 133 538 133 q 290 163 363 133 q 174 248 218 192 q 129 383 129 304 q 169 511 129 461 q 276 586 208 561 l 276 594 q 166 676 208 619 q 124 814 124 733 q 190 978 124 915 q 364 1042 257 1042 q 538 977 475 1042 q 601 808 601 913 l 600 783 l 474 783 q 449 876 476 842 q 368 910 422 910 q 292 881 321 910 q 263 803 263 851 q 319 690 263 726 q 467 653 376 653 l 542 653 l 542 526 l 481 526 q 336 496 392 526 q 281 396 281 465 q 338 296 281 329 q 475 263 394 263 q 605 292 546 263 q 698 375 664 321 q 732 501 732 429 l 732 1028 l 1049 1028 l 1049 896 z "},"न":{"ha":1097,"x_min":-43,"x_max":1142,"o":"m 563 549 q 619 478 599 524 q 639 379 639 433 q 565 192 639 263 q 365 122 490 122 q 213 157 281 122 q 108 255 146 192 q 69 403 69 318 q 155 606 69 533 q 393 678 240 678 l 824 678 l 824 896 l -43 896 l -43 1028 l 1142 1028 l 1142 896 l 974 896 l 974 0 l 824 0 l 824 549 l 563 549 m 210 401 q 254 292 210 331 q 364 254 299 254 q 465 293 425 254 q 506 401 506 332 q 467 507 506 468 q 360 546 428 546 q 253 508 296 546 q 210 401 210 469 z "},"प":{"ha":924,"x_min":-43,"x_max":967,"o":"m 967 1028 l 967 896 l 800 896 l 800 0 l 649 0 l 649 371 q 563 293 618 322 q 424 264 507 264 q 258 310 326 264 q 156 435 190 356 q 121 615 121 514 l 121 896 l -43 896 l -43 1028 l 967 1028 m 463 396 q 597 453 546 396 q 649 604 649 511 l 649 896 l 272 896 l 272 615 q 463 396 272 396 z "},"फ":{"ha":1368,"x_min":-43,"x_max":1411,"o":"m 776 896 l 776 643 q 866 719 810 692 q 999 747 922 747 q 1154 708 1088 747 q 1257 597 1221 668 q 1293 438 1293 526 q 1206 213 1293 296 q 974 131 1119 131 q 929 132 944 131 l 928 260 q 957 258 938 258 q 1096 305 1044 258 q 1147 435 1147 351 q 1100 567 1147 519 q 967 614 1053 614 q 827 555 878 614 q 776 404 776 496 l 776 0 l 625 0 l 625 406 q 417 306 558 306 q 199 403 274 306 q 125 656 125 500 l 125 896 l -43 896 l -43 1028 l 1411 1028 l 1411 896 l 776 896 m 454 436 q 581 498 536 436 q 625 657 625 560 l 625 896 l 276 896 l 276 654 q 316 492 276 547 q 454 436 356 436 z "},"ब":{"ha":931,"x_min":-43,"x_max":975,"o":"m 975 1028 l 975 896 l 807 896 l 807 0 l 661 0 l 661 221 q 560 136 624 167 q 415 106 497 106 q 238 149 317 106 q 115 272 160 193 q 69 449 69 350 q 115 626 69 549 q 238 748 160 704 q 415 792 317 792 q 560 760 497 792 q 661 675 624 729 l 661 896 l -43 896 l -43 1028 l 975 1028 m 443 671 q 293 628 356 671 l 650 360 q 667 449 667 400 q 604 608 667 546 q 443 671 542 671 m 207 449 q 272 286 207 346 q 443 226 338 226 q 593 279 532 226 l 229 553 q 207 449 207 504 z "},"भ":{"ha":1142,"x_min":117,"x_max":1185,"o":"m 1185 896 l 1018 896 l 1018 0 l 867 0 l 867 506 l 658 506 l 658 432 q 592 201 658 281 q 393 121 526 121 q 253 153 317 121 q 153 245 190 186 q 117 381 117 304 q 201 572 117 510 q 446 633 286 633 l 515 633 l 515 733 q 493 859 515 814 q 410 904 471 904 q 327 859 349 904 q 306 729 306 814 l 157 729 q 408 1038 154 1038 q 658 732 658 1038 l 658 633 l 867 633 l 867 1028 l 1185 1028 l 1185 896 m 515 506 l 440 506 q 308 476 354 506 q 261 376 261 447 q 297 286 261 321 q 390 251 333 251 q 488 296 460 251 q 515 428 515 340 l 515 506 z "},"म":{"ha":1119,"x_min":-43,"x_max":1163,"o":"m 1163 896 l 996 896 l 996 0 l 844 0 l 844 508 l 614 508 l 614 435 q 549 203 614 283 q 349 124 483 124 q 209 156 272 124 q 109 248 146 189 q 72 383 72 307 q 157 574 72 511 q 400 636 242 636 l 471 636 l 471 896 l -43 896 l -43 1028 l 1163 1028 l 1163 896 m 844 896 l 614 896 l 614 636 l 844 636 l 844 896 m 471 508 l 396 508 q 263 479 310 508 q 215 378 215 450 q 252 288 215 322 q 346 254 289 254 q 443 299 415 254 q 471 431 471 343 l 471 508 z "},"य":{"ha":1022,"x_min":-43,"x_max":1065,"o":"m 1065 1028 l 1065 896 l 899 896 l 899 0 l 747 0 l 747 272 q 640 173 710 210 q 476 136 571 136 q 191 254 290 136 q 92 574 92 372 q 93 618 92 603 q 264 642 211 618 q 330 713 317 667 q 343 858 343 760 l 343 896 l -43 896 l -43 1028 l 1065 1028 m 500 268 q 681 344 615 268 q 747 544 747 421 l 747 896 l 493 896 l 493 854 q 475 673 493 740 q 405 568 457 606 q 250 522 353 531 q 315 338 249 408 q 500 268 381 268 z "},"र":{"ha":728,"x_min":-43,"x_max":772,"o":"m 631 833 q 601 597 631 676 q 492 484 571 517 q 258 450 414 451 l 258 296 q 388 129 258 129 q 485 173 454 129 q 515 293 515 217 l 665 293 q 594 75 665 153 q 388 -3 522 -3 q 178 76 251 -3 q 106 294 106 154 l 106 574 q 367 585 301 574 q 456 647 433 596 q 479 836 479 697 l 479 896 l -43 896 l -43 1028 l 772 1028 l 772 896 l 631 896 l 631 833 z "},"ल":{"ha":1261,"x_min":-43,"x_max":1304,"o":"m 571 306 q 572 350 572 321 q 413 578 572 578 q 294 524 332 578 q 257 376 257 469 q 312 215 257 272 q 471 157 367 157 l 499 158 l 499 24 q 453 22 483 22 q 267 66 346 22 q 147 189 189 110 q 106 375 106 268 q 182 624 106 535 q 399 713 258 713 q 552 671 489 713 q 643 553 615 629 q 701 646 661 610 q 800 694 742 682 l 800 896 l -43 896 l -43 1028 l 1304 1028 l 1304 896 l 946 896 l 946 707 q 1118 601 1058 688 q 1178 375 1178 515 q 1136 189 1178 268 q 1016 66 1094 110 q 831 22 938 22 q 785 24 800 22 l 785 158 l 813 157 q 972 215 917 157 q 1026 376 1026 272 q 989 524 1026 469 q 871 578 951 578 q 711 350 711 578 q 713 306 711 321 l 571 306 z "},"व":{"ha":899,"x_min":-43,"x_max":942,"o":"m 942 1028 l 942 896 l 775 896 l 775 0 l 629 0 l 629 229 q 530 147 592 176 q 388 117 468 117 q 224 160 297 117 q 110 280 151 204 q 68 449 68 356 q 110 618 68 542 q 224 738 151 694 q 388 782 297 782 q 530 752 468 782 q 629 668 592 722 l 629 896 l -43 896 l -43 1028 l 942 1028 m 424 246 q 573 301 517 246 q 629 449 629 356 l 629 450 q 573 597 629 542 q 424 651 517 651 q 273 597 329 651 q 217 449 217 542 q 273 301 217 356 q 424 246 329 246 z "},"श":{"ha":1144,"x_min":135,"x_max":1188,"o":"m 288 283 q 324 169 288 208 q 431 129 361 129 q 540 176 507 129 q 572 311 572 222 l 721 311 q 650 80 719 163 q 432 -3 581 -3 q 215 74 296 -3 q 135 289 135 150 l 135 568 q 288 567 164 567 q 444 580 381 567 q 547 634 508 593 q 586 754 586 675 q 549 867 586 826 q 442 907 511 907 q 324 853 361 907 q 290 715 288 800 l 140 715 q 168 878 136 804 q 269 996 200 951 q 440 1040 339 1040 q 597 1005 529 1040 q 701 905 664 969 q 738 756 738 840 q 634 515 738 588 q 340 442 531 442 l 288 442 l 288 283 m 1021 0 l 869 0 l 869 1028 l 1188 1028 l 1188 896 l 1021 896 l 1021 0 z "},"ष":{"ha":929,"x_min":-43,"x_max":972,"o":"m 972 1028 l 972 896 l 806 896 l 806 0 l 654 0 l 654 361 q 422 251 588 251 q 199 346 279 251 q 119 593 119 440 l 119 896 l -43 896 l -43 1028 l 972 1028 m 271 896 l 271 892 l 654 600 l 654 896 l 271 896 m 465 383 q 565 411 522 383 q 632 490 608 439 l 271 764 l 271 604 q 318 442 271 500 q 465 383 365 383 z "},"स":{"ha":1119,"x_min":-43,"x_max":1163,"o":"m 1163 896 l 996 896 l 996 0 l 844 0 l 844 464 l 260 464 l 260 289 q 389 129 260 129 q 490 176 461 129 q 517 313 518 224 l 667 313 q 390 -3 667 -3 q 181 78 254 -3 q 107 294 107 158 l 107 575 l 188 575 q 310 586 267 575 l 311 589 l 324 589 q 399 634 374 603 q 433 715 424 665 q 442 850 442 765 l 442 896 l -43 896 l -43 1028 l 1163 1028 l 1163 896 m 844 896 l 592 896 l 592 846 q 543 589 592 668 l 844 589 l 844 896 z "},"ह":{"ha":850,"x_min":-43,"x_max":894,"o":"m 436 646 q 331 623 371 646 q 292 551 292 600 q 360 463 292 492 q 444 471 400 471 q 602 440 532 471 q 713 356 672 410 q 757 232 754 301 l 610 232 q 558 312 600 282 q 444 342 515 342 q 317 296 365 342 q 268 174 268 250 q 316 49 268 96 q 444 1 364 1 q 558 31 515 1 q 610 111 600 61 l 757 111 q 713 -12 754 42 q 602 -97 672 -67 q 444 -128 532 -128 q 272 -90 346 -128 q 158 15 199 -53 q 118 174 118 83 q 147 308 118 249 q 228 407 175 368 q 164 475 186 435 q 142 565 142 515 q 214 718 142 664 q 415 772 286 772 l 522 772 l 522 896 l -43 896 l -43 1028 l 894 1028 l 894 896 l 674 896 l 674 646 l 436 646 z "},"ळ":{"ha":1299,"x_min":-43,"x_max":1343,"o":"m 982 896 l 982 707 q 1126 655 1063 697 q 1224 544 1189 613 q 1260 390 1260 476 q 1218 224 1260 296 q 1103 111 1176 151 q 936 71 1029 71 q 774 113 847 71 q 664 233 700 156 q 555 113 629 154 q 393 71 481 71 q 226 111 300 71 q 111 224 153 151 q 69 390 69 296 q 112 557 69 485 q 228 669 154 629 q 393 710 301 710 q 553 669 481 710 q 664 547 626 628 q 735 641 690 604 q 835 696 779 678 l 835 896 l -43 896 l -43 1028 l 1343 1028 l 1343 896 l 982 896 m 406 203 q 540 255 489 203 q 590 390 590 307 q 539 526 589 474 q 406 578 489 578 q 269 526 321 578 q 217 390 217 475 q 269 254 217 306 q 406 203 321 203 m 1113 390 q 1060 526 1113 475 q 924 578 1008 578 q 790 525 842 578 q 739 390 739 472 q 790 255 739 307 q 924 203 842 203 q 1060 254 1008 203 q 1113 390 1113 306 z "},"क़":{"ha":1394,"x_min":-43,"x_max":1439,"o":"m 790 896 l 790 672 q 876 748 822 721 q 1001 775 929 775 q 1163 733 1094 775 q 1267 617 1231 690 q 1303 451 1303 544 q 1262 285 1303 356 q 1148 178 1221 215 q 982 140 1075 140 q 913 146 960 140 l 911 271 q 954 268 942 268 q 1099 316 1046 268 q 1151 451 1151 364 q 1103 592 1151 540 q 965 643 1056 643 q 835 587 879 643 q 790 431 790 531 l 790 0 l 643 0 l 643 235 q 553 158 610 186 q 419 131 496 131 q 258 172 328 131 q 151 287 189 214 q 114 451 114 360 q 151 617 114 543 q 258 733 189 690 q 419 775 328 775 q 552 747 496 775 q 643 669 608 719 l 643 896 l -43 896 l -43 1028 l 1439 1028 l 1439 896 l 790 896 m 456 263 q 594 313 544 263 q 643 451 643 364 q 593 591 643 540 q 454 642 543 642 q 315 592 364 642 q 265 451 265 542 q 315 313 265 363 q 456 263 365 263 m 333 -47 q 361 20 333 -8 q 429 49 389 49 q 497 20 468 49 q 525 -47 525 -8 q 497 -115 525 -87 q 429 -143 468 -143 q 361 -115 389 -143 q 333 -47 333 -87 z "},"ख़":{"ha":1289,"x_min":-43,"x_max":1333,"o":"m 1333 1028 l 1333 896 l 1165 896 l 1165 0 l 1019 0 l 1019 267 q 940 205 989 226 q 825 183 892 183 q 793 185 803 183 q 671 47 758 96 q 465 -3 583 -3 q 206 89 301 -3 q 110 346 110 181 l 110 565 l 153 565 q 289 583 247 567 q 346 649 331 599 q 361 814 361 700 l 361 896 l -43 896 l -43 1028 l 1333 1028 m 464 129 q 589 158 539 129 q 658 239 639 186 q 581 336 608 276 q 554 469 554 396 q 589 615 554 550 q 685 716 624 679 q 825 753 746 753 q 1019 672 957 753 l 1019 896 l 511 896 l 511 814 q 490 603 511 676 q 417 496 469 529 q 261 456 364 463 l 261 336 q 464 129 261 129 m 860 308 q 975 351 932 308 q 1018 469 1018 394 q 976 586 1018 543 q 860 629 933 629 q 740 586 785 629 q 694 469 694 543 q 740 351 694 394 q 860 308 785 308 m 372 -197 q 400 -130 372 -158 q 468 -101 428 -101 q 535 -130 507 -101 q 564 -197 564 -158 q 535 -265 564 -237 q 468 -293 507 -293 q 400 -265 428 -293 q 372 -197 372 -237 z "},"ग़":{"ha":1032,"x_min":-43,"x_max":1076,"o":"m 1076 1028 l 1076 896 l 908 896 l 908 0 l 758 0 l 758 896 l 506 896 l 506 578 q 453 358 506 432 q 275 285 400 285 q 39 569 31 285 l 189 569 q 206 456 189 494 q 276 418 222 418 q 333 439 315 418 q 356 491 351 460 q 361 575 361 522 l 361 896 l -43 896 l -43 1028 l 1076 1028 m 192 18 q 219 85 192 57 q 288 114 247 114 q 355 85 326 114 q 383 18 383 57 q 355 -50 383 -22 q 288 -78 326 -78 q 219 -50 247 -78 q 192 18 192 -22 z "},"ज़":{"ha":1161,"x_min":-43,"x_max":1204,"o":"m 1204 1028 l 1204 896 l 1038 896 l 1038 0 l 886 0 l 886 582 l 665 582 l 665 494 q 601 233 665 325 q 381 142 538 142 q 151 237 215 142 q 86 494 86 332 l 86 707 l 238 707 l 238 528 q 246 387 238 439 q 285 304 254 335 q 379 274 315 274 q 472 304 443 274 q 509 385 501 335 q 517 528 517 436 l 517 707 l 886 707 l 886 896 l -43 896 l -43 1028 l 1204 1028 m 272 -83 q 300 -16 272 -44 q 368 13 328 13 q 435 -16 407 13 q 464 -83 464 -44 q 435 -151 464 -124 q 368 -179 407 -179 q 300 -151 328 -179 q 272 -83 272 -124 z "},"ड़":{"ha":803,"x_min":-43,"x_max":846,"o":"m 433 640 q 311 621 354 640 q 268 547 268 601 q 308 470 268 489 q 431 451 349 451 q 655 403 569 451 q 740 221 740 354 q 703 97 740 151 q 599 11 667 42 q 439 -19 531 -19 q 194 56 288 -19 q 97 267 100 131 l 246 267 q 299 147 251 189 q 436 104 346 104 q 549 134 508 104 q 590 224 590 164 q 547 308 590 288 q 419 329 503 329 q 199 377 282 329 q 115 554 115 425 q 196 717 115 667 q 401 767 276 767 l 504 767 l 504 896 l -43 896 l -43 1028 l 846 1028 l 846 896 l 656 896 l 656 640 l 433 640 m 349 -192 q 376 -124 349 -153 q 444 -96 404 -96 q 512 -124 483 -96 q 540 -192 540 -153 q 512 -260 540 -232 q 444 -287 483 -287 q 376 -260 404 -287 q 349 -192 349 -232 z "},"ढ़":{"ha":886,"x_min":-43,"x_max":929,"o":"m 553 653 q 324 585 408 653 q 239 383 239 517 q 315 200 239 265 q 519 135 390 135 q 655 173 607 135 q 703 276 703 211 q 677 358 703 326 q 596 390 651 390 q 517 357 542 390 q 493 269 493 324 l 360 269 q 418 447 358 381 q 594 513 478 513 q 774 449 704 513 q 844 281 844 386 q 802 131 844 194 q 685 35 760 68 q 515 3 610 3 q 298 48 394 3 q 146 180 201 93 q 90 386 90 267 q 208 675 90 575 q 517 782 326 775 l 517 896 l -43 896 l -43 1028 l 929 1028 l 929 896 l 668 896 l 668 653 l 553 653 m 431 -179 q 458 -112 431 -140 q 526 -83 486 -83 q 594 -112 565 -83 q 622 -179 622 -140 q 594 -247 622 -219 q 526 -275 565 -275 q 458 -247 486 -275 q 431 -179 431 -219 z "},"फ़":{"ha":1368,"x_min":-43,"x_max":1411,"o":"m 776 896 l 776 643 q 866 719 810 692 q 999 747 922 747 q 1154 708 1088 747 q 1257 597 1221 668 q 1293 438 1293 526 q 1206 213 1293 296 q 974 131 1119 131 q 929 132 944 131 l 928 260 q 957 258 938 258 q 1096 305 1044 258 q 1147 435 1147 351 q 1100 567 1147 519 q 967 614 1053 614 q 827 555 878 614 q 776 404 776 496 l 776 0 l 625 0 l 625 406 q 417 306 558 306 q 199 403 274 306 q 125 656 125 500 l 125 896 l -43 896 l -43 1028 l 1411 1028 l 1411 896 l 776 896 m 454 436 q 581 498 536 436 q 625 657 625 560 l 625 896 l 276 896 l 276 654 q 316 492 276 547 q 454 436 356 436 m 268 47 q 296 115 268 86 q 364 143 324 143 q 431 115 403 143 q 460 47 460 86 q 431 -21 460 7 q 364 -49 403 -49 q 296 -21 324 -49 q 268 47 268 7 z "},"ऱ":{"ha":728,"x_min":-46,"x_max":772,"o":"m 631 833 q 601 597 631 676 q 492 484 571 517 q 258 450 414 451 l 258 296 q 388 129 258 129 q 485 173 454 129 q 515 293 515 217 l 665 293 q 594 75 665 153 q 388 -3 522 -3 q 178 76 251 -3 q 106 294 106 154 l 106 574 q 367 585 301 574 q 456 647 433 596 q 479 836 479 697 l 479 896 l -43 896 l -43 1028 l 772 1028 l 772 896 l 631 896 l 631 833 m -46 -60 q -18 8 -46 -21 q 50 36 10 36 q 117 8 89 36 q 146 -60 146 -21 q 117 -128 146 -100 q 50 -156 89 -156 q -18 -128 10 -156 q -46 -60 -46 -100 z "},"ं":{"ha":0,"x_min":-294,"x_max":-103,"o":"m -294 1261 q -267 1330 -294 1301 q -199 1358 -239 1358 q -131 1330 -158 1358 q -103 1261 -103 1301 q -131 1194 -103 1222 q -199 1167 -158 1167 q -267 1194 -239 1167 q -294 1261 -294 1222 z "},"ँ":{"ha":0,"x_min":-487,"x_max":82,"o":"m -282 1432 q -259 1488 -282 1464 q -204 1511 -236 1511 q -148 1488 -171 1511 q -125 1432 -125 1464 q -148 1376 -125 1399 q -204 1353 -171 1353 q -259 1376 -236 1353 q -282 1432 -282 1399 m -203 1132 q -416 1204 -344 1132 q -487 1393 -487 1276 l -361 1393 q -321 1290 -361 1332 q -203 1247 -281 1247 q -86 1290 -126 1247 q -46 1393 -46 1332 l 82 1393 q 10 1204 82 1276 q -203 1132 -61 1132 z "},"ः":{"ha":257,"x_min":44,"x_max":214,"o":"m 44 683 q 69 743 44 718 q 128 768 93 768 q 189 744 164 768 q 214 683 214 719 q 189 624 214 649 q 128 599 164 599 q 69 624 93 599 q 44 683 44 649 m 44 274 q 69 333 44 308 q 128 358 93 358 q 189 334 164 358 q 214 274 214 310 q 189 213 214 238 q 128 189 164 189 q 69 214 93 189 q 44 274 44 239 z "},"ऽ":{"ha":836,"x_min":74,"x_max":760,"o":"m 679 232 q 619 115 679 151 q 425 78 558 78 l 74 78 l 74 210 l 401 210 q 492 219 465 210 q 519 261 519 228 q 494 328 519 289 q 417 435 469 368 q 294 608 338 535 q 251 754 251 682 q 318 890 251 846 q 493 933 385 933 l 760 933 l 760 801 l 558 801 q 449 785 486 801 q 413 724 413 769 q 438 655 413 694 q 515 549 463 615 q 637 376 594 447 q 679 232 679 304 z "},"्":{"ha":0,"x_min":-264,"x_max":47,"o":"m -264 -81 l -119 -81 l 47 -332 l -110 -332 l -264 -81 z "},"़":{"ha":0,"x_min":-558,"x_max":-367,"o":"m -558 -165 q -531 -98 -558 -126 q -462 -69 -503 -69 q -395 -98 -424 -69 q -367 -165 -367 -126 q -395 -233 -367 -206 q -462 -261 -424 -261 q -531 -233 -503 -261 q -558 -165 -558 -206 z "},"०":{"ha":890,"x_min":83,"x_max":806,"o":"m 83 508 q 165 138 83 272 q 444 3 246 3 q 724 138 643 3 q 806 508 806 272 q 724 878 806 743 q 444 1013 643 1013 q 165 878 246 1013 q 83 508 83 743 m 650 508 q 635 321 650 397 q 576 196 621 244 q 444 147 532 147 q 313 196 357 147 q 253 321 268 244 q 239 508 239 397 q 253 694 239 618 q 313 819 268 771 q 444 868 357 868 q 576 819 532 868 q 635 694 621 771 q 650 508 650 618 z "},"१":{"ha":486,"x_min":63,"x_max":351,"o":"m 63 842 l 63 986 l 351 986 l 351 0 l 192 0 l 192 842 l 63 842 z "},"२":{"ha":801,"x_min":69,"x_max":746,"o":"m 174 218 q 383 406 307 332 q 510 558 460 479 q 561 713 561 636 q 522 838 561 792 q 397 883 482 883 q 270 831 315 883 q 222 692 225 779 l 69 692 q 165 934 74 850 q 396 1018 256 1018 q 569 981 497 1018 q 680 875 642 943 q 718 719 718 807 q 667 533 718 624 q 547 371 617 443 q 369 203 478 299 l 306 146 l 746 146 l 746 14 l 71 14 l 71 129 l 174 218 z "},"३":{"ha":825,"x_min":67,"x_max":742,"o":"m 413 1036 q 581 1001 510 1036 q 688 907 651 967 q 724 772 724 847 q 678 625 724 686 q 568 543 632 564 l 568 538 q 696 447 650 513 q 742 278 742 381 q 704 132 742 196 q 593 31 667 68 q 417 -6 519 -6 q 170 72 267 -6 q 67 293 74 149 l 219 293 q 276 173 225 219 q 415 126 328 126 q 546 173 500 126 q 592 293 592 219 q 530 431 592 390 q 340 472 468 472 l 304 472 l 304 603 l 342 603 q 513 640 454 604 q 572 754 572 676 q 529 860 572 821 q 407 900 486 900 q 286 860 329 900 q 235 763 243 821 l 81 763 q 180 964 89 892 q 413 1036 271 1036 z "},"४":{"ha":899,"x_min":64,"x_max":851,"o":"m 64 211 l 64 331 l 531 1000 l 722 1000 l 722 349 l 851 349 l 851 211 l 722 211 l 722 0 l 567 0 l 567 211 l 64 211 m 574 839 l 246 349 l 574 349 l 574 839 z "},"५":{"ha":888,"x_min":103,"x_max":806,"o":"m 736 876 l 271 876 l 271 600 q 358 665 300 639 q 481 692 415 692 q 670 642 597 692 q 774 515 743 592 q 806 354 806 439 q 766 172 806 251 q 648 46 726 92 q 456 0 569 0 q 213 75 304 0 q 103 274 121 150 l 257 274 q 325 170 272 208 q 457 132 378 132 q 605 192 556 132 q 654 350 654 251 q 604 503 654 450 q 457 557 554 557 q 342 523 389 557 q 275 431 296 489 l 125 431 l 125 1015 l 736 1015 l 736 876 z "},"६":{"ha":892,"x_min":103,"x_max":806,"o":"m 628 778 q 572 874 613 842 q 460 906 532 906 q 296 822 350 906 q 239 543 242 738 q 344 638 275 604 q 494 671 414 671 q 656 631 586 671 q 766 517 726 592 q 806 338 806 442 q 767 164 806 240 q 654 44 729 88 q 474 0 579 0 q 249 63 331 0 q 135 242 168 126 q 103 529 103 357 q 461 1038 103 1038 q 680 963 600 1038 q 774 778 760 888 l 628 778 m 257 340 q 312 188 257 244 q 465 132 367 132 q 603 186 553 132 q 654 331 654 240 q 605 481 654 425 q 460 538 556 538 q 316 487 375 538 q 257 340 257 436 z "},"७":{"ha":778,"x_min":56,"x_max":725,"o":"m 725 890 l 339 0 l 165 0 l 569 876 l 56 876 l 56 1008 l 725 1008 l 725 890 z "},"८":{"ha":886,"x_min":85,"x_max":803,"o":"m 110 771 q 147 908 110 846 q 260 1008 185 971 q 443 1044 335 1044 q 626 1008 550 1044 q 739 908 701 971 q 776 771 776 846 q 737 634 776 693 q 632 543 697 575 q 757 446 711 513 q 803 286 803 379 q 757 122 803 192 q 629 13 711 51 q 443 -25 547 -25 q 258 13 339 -25 q 131 122 176 51 q 85 286 85 192 q 131 447 85 381 q 254 543 176 514 q 110 771 110 615 m 263 750 q 313 637 263 681 q 443 593 364 593 q 574 638 522 593 q 625 751 625 682 q 576 871 625 829 q 443 913 528 913 q 311 871 360 913 q 263 750 263 829 m 236 292 q 292 158 236 208 q 443 107 347 107 q 592 158 538 107 q 647 292 647 210 q 592 426 647 379 q 443 474 536 474 q 294 428 351 474 q 236 292 236 382 z "},"९":{"ha":882,"x_min":107,"x_max":792,"o":"m 281 275 q 340 169 294 206 q 464 133 386 133 q 608 211 563 133 q 654 476 654 289 q 560 403 621 429 q 429 378 500 378 q 265 415 339 378 q 149 524 192 451 q 107 701 107 597 q 197 945 107 854 q 443 1036 286 1036 q 712 910 632 1036 q 792 525 792 785 q 762 232 792 346 q 658 60 732 118 q 454 1 585 1 q 225 79 306 1 q 135 275 144 157 l 281 275 m 636 701 q 585 851 636 797 q 447 904 535 904 q 309 849 360 904 q 258 706 258 794 q 308 566 258 621 q 457 511 357 511 q 588 563 540 511 q 636 701 636 615 z "},"ॐ":{"ha":1511,"x_min":117,"x_max":1379,"o":"m 782 1247 q 726 1270 750 1247 q 703 1325 703 1293 q 726 1381 703 1357 q 782 1404 750 1404 q 838 1381 815 1404 q 861 1325 861 1357 q 838 1270 861 1293 q 782 1247 815 1247 m 782 1025 q 569 1097 640 1025 q 497 1288 497 1169 l 624 1288 q 665 1183 624 1225 q 782 1140 706 1140 q 900 1183 860 1140 q 940 1288 940 1225 l 1067 1288 q 996 1097 1067 1169 q 782 1025 925 1025 m 1099 958 q 1314 874 1249 958 q 1379 617 1379 789 l 1379 461 q 1294 149 1379 251 q 1008 46 1208 46 q 847 60 947 46 l 847 190 q 975 181 929 181 q 1126 210 1069 181 q 1207 302 1182 239 q 1232 471 1232 365 l 1232 628 q 1204 784 1232 738 q 1100 831 1176 831 q 999 783 1028 831 q 971 628 971 736 q 905 449 971 499 q 706 396 839 399 q 721 308 721 353 q 639 94 721 172 q 422 15 557 15 q 264 52 333 15 q 156 156 194 89 q 117 311 117 224 l 260 311 q 305 190 260 236 q 425 144 350 144 q 539 188 499 144 q 579 308 579 232 q 531 426 579 383 q 399 468 482 468 l 351 468 l 351 603 l 396 603 q 515 642 467 603 q 563 747 563 681 q 524 853 563 814 q 417 893 486 893 q 310 853 349 893 q 269 746 271 814 l 126 746 q 164 892 126 829 q 268 988 201 954 q 419 1022 335 1022 q 569 989 504 1022 q 671 895 635 956 q 707 756 707 835 q 669 624 707 682 q 565 543 631 565 l 565 536 q 601 521 582 531 l 678 521 q 794 543 761 521 q 826 632 826 565 q 889 876 826 794 q 1099 958 951 958 z "},"॰":{"ha":675,"x_min":131,"x_max":576,"o":"m 576 344 q 548 237 576 285 q 470 162 519 189 q 358 135 421 135 q 194 198 257 135 q 131 358 131 261 q 159 465 131 417 q 238 540 188 513 q 351 568 288 568 q 517 507 457 568 q 576 344 576 446 m 231 356 q 266 267 231 300 q 358 233 301 233 q 442 266 410 233 q 475 347 475 299 q 443 436 475 403 q 353 469 411 469 q 266 437 301 469 q 231 356 231 404 z "},"।":{"ha":388,"x_min":203,"x_max":353,"o":"m 353 0 l 203 0 l 203 1029 l 353 1029 l 353 0 z "},"॥":{"ha":707,"x_min":203,"x_max":674,"o":"m 353 0 l 203 0 l 203 1029 l 353 1029 l 353 0 m 674 0 l 522 0 l 522 1029 l 674 1029 l 674 0 z "},"₨":{"ha":1593,"x_min":104,"x_max":1469,"o":"m 779 678 q 720 503 779 581 q 539 401 661 425 l 794 0 l 601 0 l 360 392 l 263 392 l 263 0 l 104 0 l 104 965 l 438 965 q 626 927 549 965 q 741 824 703 889 q 779 678 779 758 m 263 515 l 438 515 q 572 558 528 515 q 617 678 617 601 q 572 799 617 756 q 438 842 528 842 l 263 842 l 263 515 m 1022 551 q 1046 493 1022 515 q 1106 459 1069 471 q 1206 433 1143 447 q 1342 394 1290 414 q 1432 331 1394 375 q 1469 213 1469 288 q 1431 96 1469 147 q 1325 16 1393 44 q 1171 -12 1257 -12 q 956 51 1038 -12 q 865 233 874 115 l 1029 233 q 1071 144 1033 176 q 1171 113 1108 113 q 1276 141 1238 113 q 1314 215 1314 169 q 1290 275 1314 253 q 1228 309 1265 297 q 1126 335 1190 321 q 992 373 1043 354 q 903 433 940 392 q 867 546 867 475 q 903 663 867 610 q 1008 747 939 715 q 1169 778 1076 778 q 1376 712 1297 778 q 1460 532 1454 646 l 1297 532 q 1258 621 1293 589 q 1158 653 1222 653 q 1058 624 1094 653 q 1022 551 1022 596 z "},"₹":{"ha":864,"x_min":64,"x_max":819,"o":"m 658 747 l 658 728 l 819 728 l 819 614 l 650 614 q 592 466 635 521 q 472 387 550 411 q 271 363 394 363 l 271 275 q 303 154 271 199 q 414 110 336 110 q 556 269 556 110 l 701 269 q 626 58 700 129 q 411 -14 551 -14 q 197 64 271 -14 q 122 282 122 142 l 122 472 q 349 481 276 472 q 456 519 421 490 q 503 614 492 549 l 64 614 l 64 728 l 510 728 l 510 747 l 510 851 l 64 851 l 64 967 l 819 967 l 819 851 l 658 851 l 658 747 z "},"ʼ":{"ha":243,"x_min":40,"x_max":203,"o":"m 183 1111 q 203 972 203 1039 q 47 800 203 800 l 47 868 q 114 947 114 868 l 114 976 l 40 976 l 40 1111 l 183 1111 z "},"​":{"ha":0,"x_min":0,"x_max":0,"o":""},"‌":{"ha":0,"x_min":-32,"x_max":33,"o":"m -32 1126 l 33 1126 l 33 -319 l -32 -319 l -32 1126 z "},"‍":{"ha":0,"x_min":-178,"x_max":178,"o":"m 32 882 l 32 -319 l -33 -319 l -33 882 l -129 781 l -175 826 l -46 956 l -178 1088 l -132 1133 l 0 1001 l 133 1133 l 178 1089 l 44 956 l 178 824 l 132 778 l 32 882 z "},"◌":{"ha":904,"x_min":69,"x_max":835,"o":"m 418 633 q 375 649 392 633 q 358 692 358 665 q 375 734 358 718 q 418 750 392 750 q 461 734 444 750 q 478 692 478 718 q 461 649 478 665 q 418 633 444 633 m 586 613 q 543 628 560 613 q 526 671 526 644 q 543 713 526 697 q 586 729 560 729 q 629 713 613 729 q 646 671 646 697 q 629 628 646 644 q 586 613 613 613 m 256 575 q 213 591 229 575 q 196 633 196 607 q 213 676 196 660 q 256 692 229 692 q 299 676 282 692 q 315 633 315 660 q 299 591 315 607 q 256 575 282 575 m 714 510 q 671 526 688 510 q 654 568 654 542 q 671 610 654 594 q 714 626 688 626 q 757 610 740 626 q 774 568 774 594 q 757 526 774 542 q 714 510 740 510 m 150 438 q 107 453 124 438 q 90 496 90 469 q 107 538 90 522 q 150 554 124 554 q 193 538 176 554 q 210 496 210 522 q 193 453 210 469 q 150 438 176 438 m 775 351 q 732 367 749 351 q 715 410 715 383 q 732 452 715 436 q 775 468 749 468 q 818 452 801 468 q 835 410 835 436 q 818 367 835 383 q 775 351 801 351 m 129 269 q 86 285 103 269 q 69 328 69 301 q 86 370 69 354 q 129 386 103 386 q 172 370 156 386 q 189 328 189 354 q 172 285 189 301 q 129 269 156 269 m 761 185 q 718 201 735 185 q 701 243 701 217 q 718 285 701 269 q 761 301 735 301 q 804 285 788 301 q 821 243 821 269 q 804 201 821 217 q 761 185 788 185 m 192 113 q 149 128 165 113 q 132 171 132 144 q 149 213 132 197 q 192 229 165 229 q 235 213 218 229 q 251 171 251 197 q 235 128 251 144 q 192 113 218 113 m 660 51 q 617 67 633 51 q 600 110 600 83 q 617 152 600 136 q 660 168 633 168 q 703 152 686 168 q 719 110 719 136 q 703 67 719 83 q 660 51 686 51 m 328 7 q 285 23 301 7 q 268 65 268 39 q 285 108 268 92 q 328 124 301 124 q 371 108 354 124 q 388 65 388 92 q 371 23 388 39 q 328 7 354 7 m 500 -12 q 457 3 474 -12 q 440 46 440 19 q 457 88 440 72 q 500 104 474 104 q 543 88 526 104 q 560 46 560 72 q 543 3 560 19 q 500 -12 526 -12 z "},"!":{"ha":575,"x_min":206,"x_max":396,"o":"m 381 1040 l 361 306 l 231 306 l 213 1040 l 381 1040 m 206 94 q 233 163 206 135 q 300 190 260 190 q 368 163 340 190 q 396 94 396 135 q 368 28 396 56 q 300 0 340 0 q 233 28 261 0 q 206 94 206 56 z "},"\"":{"ha":449,"x_min":47,"x_max":400,"o":"m 190 1107 l 174 822 l 65 822 l 47 1107 l 190 1107 m 400 1107 l 383 822 l 275 822 l 257 1107 l 400 1107 z "},"#":{"ha":1211,"x_min":43,"x_max":1128,"o":"m 914 636 l 863 396 l 1046 396 l 1046 257 l 833 257 l 778 0 l 626 0 l 682 257 l 410 257 l 354 0 l 203 0 l 258 257 l 43 257 l 43 396 l 288 396 l 339 636 l 125 636 l 125 775 l 368 775 l 422 1028 l 574 1028 l 519 775 l 792 775 l 846 1028 l 997 1028 l 943 775 l 1128 775 l 1128 636 l 914 636 m 763 636 l 490 636 l 439 396 l 711 396 l 763 636 z "},"$":{"ha":903,"x_min":83,"x_max":756,"o":"m 756 275 q 721 144 756 206 q 619 41 686 82 q 460 -8 551 0 l 460 -121 l 381 -121 l 381 -8 q 165 72 247 1 q 83 257 83 142 l 253 257 q 289 166 257 201 q 381 121 321 131 l 381 426 q 226 474 285 450 q 125 552 167 499 q 83 697 83 606 q 165 890 83 815 q 381 976 247 965 l 381 1089 l 460 1089 l 460 976 q 660 901 585 967 q 746 718 736 835 l 576 718 q 541 797 572 763 q 460 843 510 832 l 460 543 q 614 497 556 521 q 714 420 672 474 q 756 275 756 367 m 244 706 q 280 615 244 647 q 381 564 315 583 l 381 847 q 281 803 318 839 q 244 706 244 768 m 460 121 q 560 170 524 131 q 596 267 596 210 q 560 354 596 322 q 460 406 525 386 l 460 121 z "},"%":{"ha":1003,"x_min":57,"x_max":946,"o":"m 268 981 q 420 924 361 981 q 479 768 479 867 q 420 612 479 669 q 268 554 361 554 q 116 612 175 554 q 57 768 57 669 q 116 924 57 867 q 268 981 175 981 m 856 967 l 301 0 l 146 0 l 700 967 l 856 967 m 181 768 q 268 650 181 650 q 333 679 310 650 q 356 768 356 708 q 333 856 356 828 q 268 885 310 885 q 181 768 181 885 m 736 413 q 887 356 828 413 q 946 200 946 299 q 887 44 946 101 q 736 -14 828 -14 q 584 44 643 -14 q 525 200 525 101 q 584 356 525 299 q 736 413 643 413 m 647 200 q 670 112 647 140 q 735 83 693 83 q 799 112 776 83 q 822 200 822 140 q 799 288 822 260 q 735 317 776 317 q 670 288 693 317 q 647 200 647 260 z "},"&":{"ha":940,"x_min":50,"x_max":925,"o":"m 736 0 l 610 171 q 507 40 581 92 q 342 -11 433 -11 q 194 26 261 -11 q 89 131 128 64 q 50 282 50 199 q 88 430 50 364 q 188 533 125 496 q 324 569 250 569 l 300 581 q 229 696 251 646 q 207 796 207 746 q 238 910 207 857 q 327 995 268 963 q 467 1028 386 1028 q 606 997 547 1028 q 697 915 665 965 q 728 807 728 864 q 715 736 728 768 l 560 736 q 571 792 571 761 q 542 865 571 836 q 467 894 513 894 q 394 865 422 894 q 365 793 365 836 q 376 736 365 764 q 418 669 388 708 l 925 0 l 736 0 m 343 119 q 452 167 407 119 q 497 283 497 215 q 452 399 497 351 q 343 446 407 446 q 234 399 278 446 q 190 283 190 351 q 235 167 190 214 q 343 119 279 119 z "},"'":{"ha":239,"x_min":47,"x_max":190,"o":"m 190 1107 l 174 822 l 65 822 l 47 1107 l 190 1107 z "},"(":{"ha":747,"x_min":176,"x_max":710,"o":"m 176 560 q 223 888 176 731 q 353 1169 269 1044 q 546 1374 436 1293 l 710 1374 l 710 1358 q 425 999 519 1207 q 331 560 331 792 q 425 119 331 326 q 710 -242 519 -89 l 710 -257 l 546 -257 q 353 -51 436 -175 q 223 231 269 74 q 176 560 176 388 z "},")":{"ha":749,"x_min":38,"x_max":572,"o":"m 572 560 q 526 231 572 388 q 395 -51 479 74 q 201 -257 311 -175 l 38 -257 l 38 -242 q 324 119 229 -89 q 418 560 418 326 q 324 999 418 792 q 38 1358 229 1207 l 38 1374 l 201 1374 q 395 1169 311 1293 q 526 888 479 1044 q 572 560 572 731 z "},"*":{"ha":700,"x_min":88,"x_max":607,"o":"m 544 943 l 607 832 l 417 761 l 607 690 l 543 576 l 385 701 l 414 500 l 286 500 l 313 701 l 154 574 l 88 692 l 276 763 l 88 831 l 151 944 l 314 819 l 286 1022 l 415 1022 l 385 819 l 544 943 z "},"+":{"ha":992,"x_min":142,"x_max":850,"o":"m 850 431 l 571 431 l 571 147 l 421 147 l 421 431 l 142 431 l 142 572 l 421 572 l 421 856 l 571 856 l 571 572 l 850 572 l 850 431 z "},",":{"ha":281,"x_min":50,"x_max":225,"o":"m 200 108 q 225 -40 225 19 q 185 -169 225 -124 q 63 -215 144 -215 l 63 -146 q 113 -129 97 -146 q 129 -74 129 -112 l 129 -44 l 50 -44 l 50 108 l 200 108 z "},"-":{"ha":813,"x_min":121,"x_max":692,"o":"m 692 569 l 692 436 l 121 436 l 121 569 l 692 569 z "},".":{"ha":326,"x_min":68,"x_max":258,"o":"m 68 94 q 95 163 68 135 q 163 190 122 190 q 231 163 203 190 q 258 94 258 135 q 231 27 258 54 q 163 0 203 0 q 96 28 124 0 q 68 94 68 56 z "},"/":{"ha":714,"x_min":85,"x_max":618,"o":"m 618 1311 l 240 -243 l 85 -243 l 461 1311 l 618 1311 z "},":":{"ha":426,"x_min":111,"x_max":301,"o":"m 111 676 q 139 744 111 717 q 206 772 167 772 q 274 744 246 772 q 301 676 301 717 q 274 609 301 636 q 206 582 246 582 q 139 610 167 582 q 111 676 111 638 m 111 94 q 138 163 111 135 q 206 190 165 190 q 274 163 246 190 q 301 94 301 135 q 274 27 301 54 q 206 0 246 0 q 139 28 167 0 q 111 94 111 56 z "},";":{"ha":422,"x_min":132,"x_max":322,"o":"m 132 678 q 159 746 132 718 q 226 774 186 774 q 294 746 267 774 q 322 678 322 718 q 294 610 322 638 q 226 583 267 583 q 160 611 188 583 q 132 678 132 639 m 292 108 q 317 -40 317 19 q 276 -169 317 -124 q 154 -215 236 -215 l 154 -146 q 205 -129 189 -146 q 221 -74 221 -112 l 221 -44 l 142 -44 l 142 108 l 292 108 z "},"<":{"ha":850,"x_min":136,"x_max":656,"o":"m 456 186 l 136 501 l 456 817 l 656 817 l 335 501 l 656 186 l 456 186 z "},"=":{"ha":1075,"x_min":168,"x_max":907,"o":"m 907 729 l 907 589 l 168 589 l 168 729 l 907 729 m 907 414 l 907 274 l 168 274 l 168 414 l 907 414 z "},">":{"ha":819,"x_min":156,"x_max":675,"o":"m 156 817 l 356 817 l 675 501 l 356 186 l 156 186 l 476 501 l 156 817 z "},"?":{"ha":879,"x_min":133,"x_max":754,"o":"m 442 1039 q 669 961 583 1039 q 754 749 754 883 q 672 533 754 599 q 429 467 590 468 l 429 297 l 279 297 l 279 575 l 346 575 q 487 588 432 574 q 572 639 542 601 q 603 749 603 676 q 560 864 603 822 q 443 906 518 906 q 325 865 368 906 q 282 753 282 825 l 133 753 q 171 901 133 836 q 278 1003 208 967 q 442 1039 349 1039 m 357 183 q 425 156 397 183 q 453 88 453 128 q 425 19 453 47 q 357 -8 397 -8 q 290 19 318 -8 q 263 88 263 47 q 290 156 263 128 q 357 183 318 183 z "},"@":{"ha":1656,"x_min":68,"x_max":1588,"o":"m 929 1101 q 1274 1027 1125 1101 q 1505 817 1422 953 q 1588 499 1588 681 q 1531 240 1588 357 q 1383 55 1474 122 q 1194 -12 1292 -12 q 1063 35 1107 -12 q 1017 158 1019 82 q 736 -12 914 -12 q 583 29 653 -12 q 474 147 514 71 q 435 321 435 224 q 439 388 435 353 q 519 590 456 501 q 676 728 582 679 q 875 776 769 776 q 1040 738 968 776 q 1151 628 1111 699 q 1190 468 1190 558 q 1186 406 1190 438 l 1156 199 q 1154 181 1154 192 q 1168 138 1154 153 q 1207 124 1182 124 q 1305 172 1254 124 q 1390 306 1356 219 q 1424 500 1424 392 q 1363 749 1424 642 q 1185 915 1301 856 q 908 974 1068 974 q 560 883 714 974 q 318 638 406 793 q 231 296 231 483 q 300 17 231 133 q 498 -162 369 -100 q 803 -228 626 -224 l 771 -356 q 405 -273 564 -351 q 157 -49 246 -194 q 68 296 68 97 q 181 709 68 525 q 490 997 293 893 q 929 1101 688 1101 m 775 124 q 886 157 832 124 q 978 249 940 190 q 1028 383 1017 308 q 1031 431 1031 400 q 1006 540 1031 492 q 941 614 982 588 q 850 640 900 640 q 739 607 793 640 q 647 515 685 574 q 597 382 608 456 q 593 335 593 357 q 645 182 593 240 q 775 124 697 124 z "},"A":{"ha":968,"x_min":47,"x_max":922,"o":"m 686 197 l 282 197 l 213 0 l 47 0 l 393 967 l 576 967 l 922 0 l 756 0 l 686 197 m 643 321 l 485 775 l 325 321 l 643 321 z "},"B":{"ha":875,"x_min":104,"x_max":807,"o":"m 597 496 q 749 412 692 481 q 807 254 807 343 q 769 124 807 182 q 658 33 731 67 q 490 0 586 0 l 104 0 l 104 965 l 472 965 q 642 932 571 965 q 749 840 713 899 q 785 710 785 782 q 736 574 785 628 q 597 496 688 521 m 263 556 l 458 556 q 580 593 536 556 q 624 697 624 631 q 580 803 624 765 q 458 842 536 842 l 263 842 l 263 556 m 476 124 q 603 164 557 124 q 649 276 649 204 q 600 390 649 347 q 471 432 551 432 l 263 432 l 263 124 l 476 124 z "},"C":{"ha":1074,"x_min":51,"x_max":993,"o":"m 544 978 q 819 902 699 978 q 993 688 939 826 l 803 688 q 699 797 765 760 q 544 833 632 833 q 374 790 449 833 q 256 668 299 747 q 214 485 214 589 q 256 301 214 381 q 374 178 299 221 q 544 135 449 135 q 699 172 632 135 q 803 281 765 208 l 993 281 q 819 67 939 142 q 544 -8 699 -8 q 296 55 408 -8 q 117 231 183 118 q 51 485 51 343 q 117 739 51 626 q 297 915 183 851 q 544 978 410 978 z "},"D":{"ha":985,"x_min":104,"x_max":932,"o":"m 932 479 q 869 224 932 332 q 690 58 806 115 q 419 0 574 0 l 104 0 l 104 965 l 419 965 q 690 906 574 965 q 869 737 806 847 q 932 479 932 626 m 419 121 q 678 217 588 121 q 769 479 769 313 q 678 742 769 647 q 419 838 588 838 l 263 838 l 263 121 l 419 121 z "},"E":{"ha":728,"x_min":104,"x_max":638,"o":"m 263 843 l 263 550 l 596 550 l 596 428 l 263 428 l 263 124 l 638 124 l 638 0 l 104 0 l 104 967 l 638 967 l 638 843 l 263 843 z "},"F":{"ha":715,"x_min":104,"x_max":672,"o":"m 672 965 l 672 842 l 263 842 l 263 549 l 582 549 l 582 426 l 263 426 l 263 0 l 104 0 l 104 965 l 672 965 z "},"G":{"ha":1074,"x_min":51,"x_max":1022,"o":"m 544 978 q 819 902 699 978 q 993 688 939 826 l 803 688 q 699 797 765 760 q 544 833 632 833 q 374 790 449 833 q 256 668 299 747 q 214 485 214 589 q 256 301 214 381 q 374 178 299 221 q 544 135 449 135 q 755 208 674 135 q 853 406 836 281 l 490 406 l 490 529 l 1022 529 l 1022 406 q 942 199 1007 293 q 774 48 878 104 q 544 -8 671 -8 q 296 55 408 -8 q 117 231 183 118 q 51 485 51 343 q 117 739 51 626 q 297 915 183 851 q 544 978 410 978 z "},"H":{"ha":979,"x_min":104,"x_max":875,"o":"m 875 965 l 875 0 l 717 0 l 717 426 l 263 426 l 263 0 l 104 0 l 104 965 l 263 965 l 263 549 l 717 549 l 717 965 l 875 965 z "},"I":{"ha":367,"x_min":104,"x_max":263,"o":"m 263 965 l 263 0 l 104 0 l 104 965 l 263 965 z "},"J":{"ha":783,"x_min":61,"x_max":631,"o":"m 631 965 l 631 269 q 552 65 631 140 q 346 -10 474 -10 q 140 65 218 -10 q 61 269 61 140 l 221 269 q 253 168 222 206 q 346 131 285 131 q 439 169 407 131 q 471 269 471 207 l 471 965 l 631 965 z "},"K":{"ha":879,"x_min":104,"x_max":844,"o":"m 408 481 l 844 0 l 636 0 l 263 432 l 263 0 l 104 0 l 104 965 l 263 965 l 263 525 l 638 965 l 844 965 l 408 481 z "},"L":{"ha":617,"x_min":104,"x_max":589,"o":"m 263 121 l 589 121 l 589 0 l 104 0 l 104 965 l 263 965 l 263 121 z "},"M":{"ha":1225,"x_min":104,"x_max":1121,"o":"m 1121 965 l 1121 0 l 963 0 l 963 661 l 668 0 l 558 0 l 263 661 l 263 0 l 104 0 l 104 965 l 275 965 l 614 208 l 951 965 l 1121 965 z "},"N":{"ha":1001,"x_min":104,"x_max":897,"o":"m 897 0 l 739 0 l 263 721 l 263 0 l 104 0 l 104 967 l 263 967 l 739 247 l 739 967 l 897 967 l 897 0 z "},"O":{"ha":1089,"x_min":51,"x_max":1038,"o":"m 544 978 q 794 915 681 978 q 972 739 907 851 q 1038 485 1038 626 q 972 230 1038 343 q 794 53 907 117 q 544 -10 681 -10 q 297 53 410 -10 q 117 230 183 117 q 51 485 51 343 q 117 739 51 626 q 297 915 183 851 q 544 978 410 978 m 544 833 q 374 790 449 833 q 256 668 299 747 q 214 485 214 589 q 256 301 214 381 q 374 177 299 221 q 544 133 449 133 q 715 177 640 133 q 833 301 790 221 q 875 485 875 381 q 833 668 875 589 q 715 790 790 747 q 544 833 640 833 z "},"P":{"ha":826,"x_min":104,"x_max":779,"o":"m 263 392 l 263 0 l 104 0 l 104 965 l 438 965 q 626 927 549 965 q 741 824 703 889 q 779 678 779 758 q 744 539 779 604 q 633 433 710 474 q 438 392 557 392 l 263 392 m 438 515 q 572 558 528 515 q 617 678 617 601 q 572 799 617 756 q 438 842 528 842 l 263 842 l 263 515 l 438 515 z "},"Q":{"ha":1093,"x_min":51,"x_max":1053,"o":"m 851 -175 l 682 8 q 544 -10 619 -10 q 297 53 410 -10 q 117 230 183 117 q 51 485 51 343 q 117 739 51 626 q 297 915 183 851 q 544 978 410 978 q 794 915 681 978 q 972 739 907 851 q 1038 485 1038 626 q 980 244 1038 351 q 821 71 922 136 l 1053 -175 l 851 -175 m 214 485 q 256 301 214 381 q 374 177 299 221 q 544 133 449 133 q 715 177 640 133 q 833 301 790 221 q 875 485 875 381 q 833 668 875 589 q 715 790 790 747 q 544 833 640 833 q 374 790 449 833 q 256 668 299 747 q 214 485 214 589 z "},"R":{"ha":878,"x_min":104,"x_max":794,"o":"m 601 0 l 360 392 l 263 392 l 263 0 l 104 0 l 104 965 l 438 965 q 626 927 549 965 q 741 824 703 889 q 779 678 779 758 q 720 503 779 581 q 539 401 661 425 l 794 0 l 601 0 m 263 515 l 438 515 q 572 558 528 515 q 617 678 617 601 q 572 799 617 756 q 438 842 528 842 l 263 842 l 263 515 z "},"S":{"ha":839,"x_min":83,"x_max":756,"o":"m 756 275 q 716 136 756 201 q 600 31 676 71 q 421 -10 524 -10 q 178 61 272 -10 q 83 257 83 132 l 253 257 q 300 156 258 193 q 421 118 342 118 q 549 160 503 118 q 596 267 596 201 q 567 348 596 318 q 496 394 539 378 q 378 428 453 410 q 225 474 283 450 q 125 552 167 499 q 83 697 83 606 q 125 844 83 781 q 242 943 167 908 q 414 978 317 978 q 642 911 556 978 q 739 718 729 844 l 564 718 q 517 811 558 774 q 406 849 475 849 q 289 813 333 849 q 244 706 244 776 q 273 623 244 654 q 344 576 301 592 q 464 542 388 560 q 615 495 557 519 q 715 419 674 471 q 756 275 756 367 z "},"T":{"ha":783,"x_min":54,"x_max":728,"o":"m 728 965 l 728 842 l 471 842 l 471 0 l 313 0 l 313 842 l 54 842 l 54 965 l 728 965 z "},"U":{"ha":958,"x_min":103,"x_max":857,"o":"m 261 965 l 261 353 q 319 188 261 243 q 479 132 376 132 q 641 188 583 132 q 699 353 699 243 l 699 965 l 857 965 l 857 353 q 806 153 857 235 q 668 31 754 71 q 478 -10 582 -10 q 288 31 374 -10 q 153 153 203 71 q 103 353 103 235 l 103 965 l 261 965 z "},"V":{"ha":964,"x_min":26,"x_max":936,"o":"m 196 965 l 481 164 l 768 965 l 936 965 l 574 0 l 390 0 l 26 965 l 196 965 z "},"W":{"ha":1388,"x_min":26,"x_max":1361,"o":"m 1361 965 l 1075 0 l 896 0 l 693 731 l 478 0 l 300 -1 l 26 965 l 194 965 l 394 179 l 611 965 l 789 965 l 990 183 l 1192 965 l 1361 965 z "},"X":{"ha":917,"x_min":69,"x_max":849,"o":"m 547 482 l 847 0 l 669 0 l 451 350 l 247 0 l 69 0 l 369 482 l 69 965 l 247 965 l 465 614 l 671 965 l 849 965 l 547 482 z "},"Y":{"ha":840,"x_min":21,"x_max":819,"o":"m 819 965 l 500 350 l 500 0 l 342 0 l 342 350 l 21 965 l 197 965 l 419 494 l 642 965 l 819 965 z "},"Z":{"ha":775,"x_min":69,"x_max":706,"o":"m 251 124 l 706 124 l 706 0 l 69 0 l 69 124 l 522 842 l 69 842 l 69 965 l 706 965 l 706 842 l 251 124 z "},"[":{"ha":674,"x_min":206,"x_max":494,"o":"m 494 1311 l 494 1181 l 354 1181 l 354 -112 l 494 -112 l 494 -244 l 206 -244 l 206 1311 l 494 1311 z "},"\\":{"ha":996,"x_min":228,"x_max":800,"o":"m 644 -243 l 228 1311 l 383 1311 l 800 -243 l 644 -243 z "},"]":{"ha":672,"x_min":178,"x_max":467,"o":"m 178 -244 l 178 -112 l 319 -112 l 319 1181 l 178 1181 l 178 1311 l 467 1311 l 467 -244 l 178 -244 z "},"^":{"ha":908,"x_min":50,"x_max":860,"o":"m 214 233 l 50 233 l 379 967 l 529 967 l 860 233 l 694 233 l 456 775 l 214 233 z "},"_":{"ha":1108,"x_min":175,"x_max":950,"o":"m 950 -56 l 950 -203 l 175 -203 l 175 -56 l 950 -56 z "},"`":{"ha":353,"x_min":14,"x_max":321,"o":"m 321 936 l 321 819 l 14 971 l 14 1106 l 321 936 z "},"a":{"ha":942,"x_min":51,"x_max":838,"o":"m 413 778 q 572 737 503 778 q 678 629 640 696 l 678 765 l 838 765 l 838 0 l 678 0 l 678 143 q 571 30 639 72 q 413 -12 503 -12 q 230 38 313 -12 q 99 180 147 89 q 51 386 51 271 q 99 590 51 501 q 230 728 147 679 q 413 778 313 778 m 446 640 q 332 610 385 640 q 247 523 279 581 q 214 386 214 465 q 247 247 214 307 q 333 156 279 188 q 446 125 386 125 q 560 156 507 125 q 645 245 613 186 q 678 383 678 304 q 645 521 678 463 q 560 610 613 579 q 446 640 507 640 z "},"b":{"ha":942,"x_min":104,"x_max":889,"o":"m 529 778 q 712 728 629 778 q 842 590 794 679 q 889 386 889 501 q 842 180 889 271 q 712 38 794 89 q 529 -12 629 -12 q 371 30 439 -12 q 263 143 303 72 l 263 0 l 104 0 l 104 1028 l 263 1028 l 263 629 q 370 737 301 696 q 529 778 439 778 m 494 640 q 381 610 435 640 q 295 521 328 579 q 263 383 263 463 q 295 245 263 304 q 381 156 328 186 q 494 125 435 125 q 609 156 556 125 q 695 247 663 188 q 728 386 728 307 q 695 523 728 465 q 609 610 663 581 q 494 640 556 640 z "},"c":{"ha":833,"x_min":51,"x_max":779,"o":"m 426 778 q 656 712 565 778 q 779 524 747 646 l 608 524 q 542 613 588 581 q 426 644 496 644 q 272 576 329 644 q 214 383 214 507 q 272 190 214 260 q 426 121 329 121 q 608 242 564 121 l 779 242 q 654 56 746 125 q 426 -12 563 -12 q 232 37 317 -12 q 99 176 147 86 q 51 383 51 265 q 99 591 51 501 q 232 729 147 681 q 426 778 317 778 z "},"d":{"ha":942,"x_min":51,"x_max":838,"o":"m 413 778 q 572 737 503 778 q 678 629 640 696 l 678 1028 l 838 1028 l 838 0 l 678 0 l 678 143 q 571 30 639 72 q 413 -12 503 -12 q 230 38 313 -12 q 99 180 147 89 q 51 386 51 271 q 99 590 51 501 q 230 728 147 679 q 413 778 313 778 m 446 640 q 332 610 385 640 q 247 523 279 581 q 214 386 214 465 q 247 247 214 307 q 333 156 279 188 q 446 125 386 125 q 560 156 507 125 q 645 245 613 186 q 678 383 678 304 q 645 521 678 463 q 560 610 613 579 q 446 640 507 640 z "},"e":{"ha":857,"x_min":51,"x_max":806,"o":"m 806 404 q 800 329 806 364 l 214 329 q 278 177 219 233 q 426 121 338 121 q 608 228 556 121 l 779 228 q 653 55 744 122 q 426 -12 561 -12 q 232 37 317 -12 q 99 176 147 86 q 51 383 51 265 q 99 591 51 501 q 234 729 147 681 q 433 778 321 778 q 626 731 542 778 q 758 599 711 683 q 806 404 806 514 m 640 438 q 578 588 639 532 q 426 644 517 644 q 283 588 342 644 q 215 438 224 532 l 640 438 z "},"f":{"ha":461,"x_min":33,"x_max":425,"o":"m 425 636 l 283 636 l 283 0 l 124 0 l 124 636 l 33 636 l 33 765 l 124 765 l 124 819 q 194 1012 124 951 q 414 1072 264 1072 l 414 940 q 313 913 342 940 q 283 819 283 886 l 283 765 l 425 765 l 425 636 z "},"g":{"ha":942,"x_min":51,"x_max":838,"o":"m 413 778 q 572 737 503 778 q 678 629 640 696 l 678 765 l 838 765 l 838 -12 q 793 -201 838 -118 q 665 -331 749 -283 q 464 -378 581 -378 q 206 -305 308 -378 q 89 -107 103 -232 l 246 -107 q 323 -203 264 -167 q 464 -240 382 -240 q 619 -182 560 -240 q 678 -12 678 -124 l 678 143 q 571 30 639 72 q 413 -12 503 -12 q 230 38 313 -12 q 99 180 147 89 q 51 386 51 271 q 99 590 51 501 q 230 728 147 679 q 413 778 313 778 m 446 640 q 332 610 385 640 q 247 523 279 581 q 214 386 214 465 q 247 247 214 307 q 333 156 279 188 q 446 125 386 125 q 560 156 507 125 q 645 245 613 186 q 678 383 678 304 q 645 521 678 463 q 560 610 613 579 q 446 640 507 640 z "},"h":{"ha":901,"x_min":104,"x_max":804,"o":"m 507 778 q 658 740 590 778 q 765 629 725 703 q 804 451 804 556 l 804 0 l 647 0 l 647 428 q 596 585 647 531 q 456 640 544 640 q 315 585 367 640 q 263 428 263 531 l 263 0 l 104 0 l 104 1028 l 263 1028 l 263 644 q 363 744 300 710 q 507 778 426 778 z "},"i":{"ha":367,"x_min":83,"x_max":285,"o":"m 83 968 q 113 1040 83 1011 q 185 1069 142 1069 q 256 1040 226 1069 q 285 968 285 1011 q 256 896 285 925 q 185 867 226 867 q 113 896 142 867 q 83 968 83 925 m 263 765 l 263 0 l 104 0 l 104 765 l 263 765 z "},"j":{"ha":367,"x_min":-39,"x_max":285,"o":"m 83 968 q 113 1040 83 1011 q 185 1069 142 1069 q 256 1040 226 1069 q 285 968 285 1011 q 256 896 285 925 q 185 867 226 867 q 113 896 142 867 q 83 968 83 925 m 263 -150 q 206 -313 263 -262 q 43 -364 150 -364 l -39 -364 l -39 -231 l 15 -231 q 84 -212 64 -231 q 104 -150 104 -193 l 104 765 l 263 765 l 263 -150 z "},"k":{"ha":769,"x_min":104,"x_max":760,"o":"m 407 382 l 760 0 l 546 0 l 263 329 l 263 0 l 104 0 l 104 1028 l 263 1028 l 263 431 l 540 765 l 760 765 l 407 382 z "},"l":{"ha":367,"x_min":104,"x_max":263,"o":"m 263 1028 l 263 0 l 104 0 l 104 1028 l 263 1028 z "},"m":{"ha":1443,"x_min":104,"x_max":1346,"o":"m 1044 778 q 1199 740 1131 778 q 1306 629 1267 703 q 1346 451 1346 556 l 1346 0 l 1188 0 l 1188 428 q 1136 585 1188 531 q 996 640 1085 640 q 856 585 907 640 q 804 428 804 531 l 804 0 l 647 0 l 647 428 q 596 585 647 531 q 456 640 544 640 q 315 585 367 640 q 263 428 263 531 l 263 0 l 104 0 l 104 765 l 263 765 l 263 644 q 363 744 300 710 q 507 778 426 778 q 665 736 596 778 q 771 615 735 694 q 883 735 811 692 q 1044 778 954 778 z "},"n":{"ha":901,"x_min":104,"x_max":804,"o":"m 507 778 q 658 740 590 778 q 765 629 725 703 q 804 451 804 556 l 804 0 l 647 0 l 647 428 q 596 585 647 531 q 456 640 544 640 q 315 585 367 640 q 263 428 263 531 l 263 0 l 104 0 l 104 765 l 263 765 l 263 644 q 363 744 300 710 q 507 778 426 778 z "},"o":{"ha":886,"x_min":53,"x_max":833,"o":"m 443 778 q 642 729 553 778 q 782 590 731 681 q 833 383 833 500 q 781 176 833 267 q 637 37 728 86 q 436 -12 546 -12 q 240 37 328 -12 q 103 176 153 86 q 53 383 53 265 q 104 590 53 500 q 244 729 156 681 q 443 778 333 778 m 440 644 q 328 615 379 644 q 245 526 276 585 q 214 383 214 467 q 244 240 214 300 q 324 151 274 181 q 436 121 375 121 q 551 151 497 121 q 638 241 604 182 q 671 383 671 300 q 639 526 671 467 q 554 615 607 585 q 440 644 501 644 z "},"p":{"ha":942,"x_min":104,"x_max":889,"o":"m 529 778 q 712 728 629 778 q 842 590 794 679 q 889 386 889 501 q 842 180 889 271 q 712 38 794 89 q 529 -12 629 -12 q 371 30 439 -12 q 263 143 303 72 l 263 -364 l 104 -364 l 104 765 l 263 765 l 263 629 q 370 737 301 696 q 529 778 439 778 m 494 640 q 381 610 435 640 q 295 521 328 579 q 263 383 263 463 q 295 245 263 304 q 381 156 328 186 q 494 125 435 125 q 609 156 556 125 q 695 247 663 188 q 728 386 728 307 q 695 523 728 465 q 609 610 663 581 q 494 640 556 640 z "},"q":{"ha":942,"x_min":51,"x_max":838,"o":"m 413 778 q 572 737 503 778 q 678 629 640 696 l 678 765 l 838 765 l 838 -364 l 678 -364 l 678 143 q 571 30 639 72 q 413 -12 503 -12 q 230 38 313 -12 q 99 180 147 89 q 51 386 51 271 q 99 590 51 501 q 230 728 147 679 q 413 778 313 778 m 446 640 q 332 610 385 640 q 247 523 279 581 q 214 386 214 465 q 247 247 214 307 q 333 156 279 188 q 446 125 386 125 q 560 156 507 125 q 645 245 613 186 q 678 383 678 304 q 645 521 678 463 q 560 610 613 579 q 446 640 507 640 z "},"r":{"ha":533,"x_min":104,"x_max":492,"o":"m 263 632 q 355 740 297 701 q 492 778 413 778 l 492 614 l 451 614 q 310 567 358 614 q 263 403 263 519 l 263 0 l 104 0 l 104 765 l 263 765 l 263 632 z "},"s":{"ha":742,"x_min":68,"x_max":672,"o":"m 372 778 q 578 712 500 778 q 663 532 657 646 l 500 532 q 460 621 496 589 q 361 653 425 653 q 261 624 297 653 q 225 551 225 596 q 249 493 225 515 q 309 459 272 471 q 408 433 346 447 q 545 394 493 414 q 635 331 597 375 q 672 213 672 288 q 634 96 672 147 q 528 16 596 44 q 374 -12 460 -12 q 158 51 240 -12 q 68 233 76 115 l 232 233 q 274 144 236 176 q 374 113 311 113 q 478 141 440 113 q 517 215 517 169 q 492 275 517 253 q 431 309 468 297 q 329 335 393 321 q 194 373 246 354 q 106 433 143 392 q 69 546 69 475 q 106 663 69 610 q 210 747 142 715 q 372 778 279 778 z "},"t":{"ha":517,"x_min":39,"x_max":475,"o":"m 289 636 l 289 213 q 309 151 289 169 q 378 132 329 132 l 475 132 l 475 0 l 350 0 q 186 50 243 0 q 129 213 129 100 l 129 636 l 39 636 l 39 765 l 129 765 l 129 956 l 289 956 l 289 765 l 475 765 l 475 636 l 289 636 z "},"u":{"ha":901,"x_min":97,"x_max":797,"o":"m 797 765 l 797 0 l 639 0 l 639 121 q 538 22 601 56 q 394 -11 475 -11 q 244 26 311 -11 q 137 137 176 64 q 97 314 97 210 l 97 765 l 254 765 l 254 338 q 306 180 254 235 q 446 125 357 125 q 587 180 535 125 q 639 338 639 235 l 639 765 l 797 765 z "},"v":{"ha":800,"x_min":14,"x_max":788,"o":"m 400 142 l 617 765 l 788 765 l 496 0 l 304 0 l 14 765 l 183 765 l 400 142 z "},"w":{"ha":1146,"x_min":14,"x_max":1132,"o":"m 1132 765 l 894 0 l 728 0 l 574 565 l 419 0 l 253 0 l 14 765 l 175 765 l 335 150 l 497 765 l 663 765 l 818 153 l 976 765 l 1132 765 z "},"x":{"ha":693,"x_min":14,"x_max":679,"o":"m 432 388 l 679 0 l 500 0 l 335 260 l 179 0 l 14 0 l 261 376 l 14 765 l 193 765 l 358 506 l 514 765 l 679 765 l 432 388 z "},"y":{"ha":808,"x_min":14,"x_max":793,"o":"m 190 765 l 406 182 l 629 765 l 793 765 l 324 -360 l 160 -360 l 315 13 l 14 765 l 190 765 z "},"z":{"ha":654,"x_min":61,"x_max":592,"o":"m 244 129 l 592 129 l 592 0 l 61 0 l 61 129 l 410 636 l 61 636 l 61 765 l 592 765 l 592 636 l 244 129 z "},"{":{"ha":754,"x_min":175,"x_max":625,"o":"m 321 515 q 465 335 465 486 q 461 265 465 301 q 456 217 457 229 q 443 68 443 139 q 492 -159 443 -69 q 625 -279 542 -249 l 625 -301 l 465 -301 q 289 44 289 -222 q 301 183 289 103 q 313 315 313 267 q 283 424 313 375 q 175 485 253 472 l 175 549 q 283 609 253 561 q 313 718 313 657 q 301 850 313 767 q 289 989 289 931 q 465 1335 289 1256 l 625 1335 l 625 1313 q 492 1192 542 1282 q 443 965 443 1103 q 456 817 443 894 q 461 768 457 804 q 465 699 465 732 q 430 581 465 628 q 321 518 394 533 l 321 515 z "},"|":{"ha":450,"x_min":146,"x_max":304,"o":"m 304 -157 l 146 -157 l 146 1113 l 304 1113 l 304 -157 z "},"}":{"ha":744,"x_min":131,"x_max":581,"o":"m 435 518 q 325 581 361 533 q 289 699 289 628 q 293 768 289 732 q 299 817 297 804 q 311 965 311 894 q 263 1192 311 1103 q 131 1313 214 1282 l 131 1335 l 290 1335 q 465 989 465 1257 q 453 850 465 931 q 442 718 442 767 q 472 609 442 657 q 581 549 501 561 l 581 485 q 472 424 501 472 q 442 315 442 375 q 453 183 442 267 q 465 44 465 103 q 290 -301 465 -224 l 131 -301 l 131 -279 q 263 -159 214 -249 q 311 68 311 -69 q 299 217 311 139 q 293 265 297 229 q 289 335 289 301 q 435 515 289 486 l 435 518 z "},"~":{"ha":768,"x_min":50,"x_max":718,"o":"m 271 560 q 340 547 310 560 q 408 510 369 535 q 463 479 443 489 q 508 469 483 469 q 570 492 543 469 q 603 557 597 515 l 718 557 q 640 384 697 440 q 496 328 582 328 q 428 340 457 328 q 360 378 399 353 q 307 408 329 399 q 260 418 285 418 q 197 395 224 418 q 164 331 169 372 l 50 331 q 128 503 71 447 q 271 560 185 560 z "}," ":{"ha":417,"x_min":0,"x_max":0,"o":""},"¡":{"ha":599,"x_min":206,"x_max":396,"o":"m 300 778 q 368 750 340 778 q 396 683 396 722 q 368 615 396 643 q 300 588 340 588 q 233 615 260 588 q 206 683 206 643 q 233 751 206 724 q 300 778 261 778 m 231 472 l 361 472 l 381 -262 l 213 -262 l 231 472 z "},"¢":{"ha":958,"x_min":92,"x_max":785,"o":"m 457 128 q 576 158 532 128 q 638 242 621 188 l 785 242 q 697 78 774 144 q 501 -1 621 11 l 501 -122 l 411 -122 l 411 -1 q 174 113 257 13 q 92 360 92 213 q 174 608 92 507 q 411 722 257 708 l 411 843 l 501 843 l 501 722 q 697 643 621 710 q 785 479 774 576 l 638 479 q 576 563 621 533 q 457 593 532 593 q 300 531 358 593 q 242 360 242 468 q 300 190 242 251 q 457 128 358 128 z "},"£":{"ha":897,"x_min":58,"x_max":775,"o":"m 775 126 l 775 -3 l 132 -3 l 104 83 q 190 208 163 146 q 218 361 218 269 q 211 419 218 389 l 58 419 l 58 529 l 176 529 q 147 699 147 617 q 188 860 147 792 q 299 965 228 928 q 463 1001 369 1001 q 688 918 611 1001 q 767 706 764 835 l 622 706 q 583 824 622 781 q 463 868 544 868 q 342 825 388 868 q 297 690 297 782 q 306 613 297 650 q 329 529 314 575 l 599 529 l 599 419 l 361 419 q 368 360 368 388 q 275 126 368 225 l 775 126 z "},"¤":{"ha":761,"x_min":83,"x_max":678,"o":"m 639 524 q 596 381 639 440 l 678 299 l 608 228 l 522 313 q 378 276 461 276 q 238 311 299 276 l 154 228 l 83 299 l 164 381 q 124 524 124 440 q 167 669 124 610 l 83 751 l 154 822 l 240 736 q 381 771 303 771 q 522 736 460 771 l 608 822 l 678 751 l 596 669 q 639 524 639 607 m 378 369 q 473 410 433 369 q 513 524 513 450 q 474 638 513 597 q 379 679 435 679 q 286 638 324 679 q 249 524 249 597 q 285 410 249 450 q 378 369 322 369 z "},"¥":{"ha":840,"x_min":21,"x_max":819,"o":"m 603 549 l 778 549 l 778 435 l 543 432 l 500 350 l 500 308 l 778 308 l 778 194 l 500 194 l 500 0 l 342 0 l 342 194 l 64 194 l 64 308 l 342 308 l 342 350 l 299 432 l 64 435 l 64 549 l 238 549 l 21 965 l 197 965 l 419 494 l 642 965 l 819 965 l 603 549 z "},"¦":{"ha":450,"x_min":146,"x_max":304,"o":"m 146 1113 l 304 1113 l 304 574 l 146 574 l 146 1113 m 304 -157 l 146 -157 l 146 382 l 304 382 l 304 -157 z "},"§":{"ha":803,"x_min":57,"x_max":746,"o":"m 576 117 q 668 40 636 82 q 700 -64 700 -3 q 664 -179 700 -126 q 560 -263 628 -232 q 403 -294 493 -294 q 192 -234 274 -294 q 111 -65 111 -174 l 269 -65 q 307 -153 274 -121 q 403 -185 340 -185 q 506 -158 469 -185 q 542 -78 542 -131 q 523 -23 542 -46 q 459 23 504 0 q 324 78 414 46 q 122 186 188 126 q 57 339 57 246 q 101 472 57 414 q 228 561 144 531 q 135 638 168 596 q 103 742 103 681 q 139 857 103 804 q 242 941 175 910 q 400 972 310 972 q 610 912 529 972 q 692 743 692 851 l 533 743 q 496 831 529 799 q 400 863 463 863 q 297 835 333 863 q 261 756 261 808 q 280 701 261 724 q 344 655 299 678 q 479 600 389 632 q 681 492 615 551 q 746 339 746 432 q 703 208 746 265 q 576 117 661 151 m 219 339 q 270 237 219 279 q 404 194 321 194 q 535 236 486 194 q 583 339 583 278 q 533 442 583 400 q 400 483 482 483 q 269 442 318 483 q 219 339 219 400 z "},"¨":{"ha":433,"x_min":14,"x_max":419,"o":"m 14 944 q 38 1003 14 979 q 97 1028 63 1028 q 156 1003 132 1028 q 181 944 181 979 q 156 885 181 910 q 97 861 132 861 q 38 885 63 861 q 14 944 14 910 m 253 944 q 277 1003 253 979 q 336 1028 301 1028 q 395 1003 371 1028 q 419 944 419 979 q 395 885 419 910 q 336 861 371 861 q 277 885 301 861 q 253 944 253 910 z "},"©":{"ha":1096,"x_min":64,"x_max":1032,"o":"m 549 978 q 297 915 407 978 q 125 739 186 851 q 64 483 64 626 q 125 227 64 340 q 297 51 186 114 q 549 -12 407 -12 q 800 51 690 -12 q 971 227 910 114 q 1032 483 1032 340 q 971 739 1032 626 q 800 915 910 851 q 549 978 690 978 m 549 915 q 768 862 675 915 q 912 711 861 808 q 963 483 963 614 q 912 256 963 354 q 767 104 861 158 q 549 50 674 50 q 328 104 422 50 q 184 256 235 158 q 133 483 133 354 q 184 711 133 614 q 328 862 235 808 q 549 915 422 915 m 544 803 q 728 749 653 803 q 829 599 803 696 l 685 599 q 634 667 671 643 q 544 690 597 690 q 426 638 471 690 q 382 485 382 585 q 426 331 382 385 q 544 278 471 278 q 633 301 600 278 q 685 369 667 325 l 829 369 q 726 222 803 278 q 544 165 650 165 q 391 205 460 165 q 282 317 322 244 q 242 485 242 390 q 281 651 242 579 q 390 763 321 724 q 544 803 460 803 z "},"ª":{"ha":633,"x_min":43,"x_max":575,"o":"m 276 985 q 384 960 339 985 q 451 892 429 935 l 451 976 l 575 976 l 575 490 l 451 490 l 451 575 q 383 508 428 533 q 276 482 338 482 q 159 515 213 482 q 74 606 106 547 q 43 736 43 664 q 74 865 43 808 q 159 953 106 921 q 276 985 213 985 m 311 889 q 213 848 254 889 q 171 735 171 807 q 213 620 171 663 q 311 578 254 578 q 410 619 369 578 q 451 733 451 661 q 410 847 451 806 q 311 889 369 889 z "},"«":{"ha":679,"x_min":63,"x_max":610,"o":"m 190 167 l 63 410 l 190 653 l 343 653 l 210 410 l 343 167 l 190 167 m 457 167 l 329 410 l 457 653 l 610 653 l 476 410 l 610 167 l 457 167 z "},"¬":{"ha":1039,"x_min":57,"x_max":964,"o":"m 964 604 l 964 289 l 806 289 l 806 481 l 57 481 l 57 604 l 964 604 z "},"­":{"ha":813,"x_min":121,"x_max":692,"o":"m 692 569 l 692 436 l 121 436 l 121 569 l 692 569 z "},"®":{"ha":1096,"x_min":64,"x_max":1051,"o":"m 558 978 q 815 915 703 978 q 990 739 928 851 q 1051 483 1051 626 q 989 226 1051 339 q 815 51 926 114 q 558 -12 703 -12 q 301 51 413 -12 q 126 226 189 114 q 64 483 64 339 q 126 740 64 628 q 301 915 189 851 q 558 978 413 978 m 558 50 q 783 104 688 50 q 931 256 879 158 q 982 483 982 354 q 931 712 982 614 q 783 863 879 810 q 558 915 688 915 q 333 863 429 915 q 185 712 236 810 q 133 483 133 614 q 185 256 133 354 q 333 104 236 158 q 558 50 429 50 m 799 622 q 760 506 799 557 q 640 440 721 456 l 808 178 l 683 178 l 525 435 l 460 435 l 460 178 l 357 178 l 357 811 l 575 811 q 741 758 683 811 q 799 622 799 704 m 460 514 l 575 514 q 665 543 635 514 q 694 622 694 572 q 665 702 694 674 q 575 731 635 731 l 460 731 l 460 514 z "},"¯":{"ha":536,"x_min":14,"x_max":522,"o":"m 522 1000 l 522 882 l 14 882 l 14 1000 l 522 1000 z "},"°":{"ha":593,"x_min":39,"x_max":554,"o":"m 297 975 q 429 945 371 975 q 521 859 488 915 q 554 729 554 803 q 520 599 554 656 q 426 513 486 543 q 293 482 367 482 q 109 550 179 482 q 39 729 39 618 q 111 908 39 840 q 297 975 183 975 m 294 885 q 202 844 240 885 q 164 729 164 803 q 201 615 164 654 q 293 575 238 575 q 388 615 349 575 q 428 729 428 656 q 389 844 428 803 q 294 885 350 885 z "},"±":{"ha":996,"x_min":144,"x_max":851,"o":"m 574 513 l 574 313 l 851 313 l 851 172 l 144 172 l 144 313 l 422 313 l 422 513 l 144 513 l 144 654 l 422 654 l 422 863 l 574 863 l 574 654 l 851 654 l 851 513 l 574 513 z "},"²":{"ha":472,"x_min":38,"x_max":414,"o":"m 414 589 l 414 489 l 40 489 l 40 581 l 190 690 q 259 757 236 726 q 282 824 282 788 q 265 874 282 856 q 221 893 247 893 q 181 879 196 893 q 163 840 165 865 l 38 840 q 90 947 40 907 q 225 988 139 988 q 324 965 282 988 q 390 907 367 943 q 413 829 413 871 q 383 740 413 779 q 282 654 353 701 l 181 589 l 414 589 z "},"³":{"ha":475,"x_min":25,"x_max":429,"o":"m 231 988 q 328 968 283 988 q 399 915 374 949 q 425 842 425 882 q 401 773 425 800 q 340 735 378 746 l 340 732 q 404 690 379 718 q 429 619 429 661 q 372 522 429 561 q 225 482 314 482 q 82 523 136 482 q 25 635 28 564 l 147 635 q 172 589 153 604 q 224 574 192 574 q 276 590 256 574 q 296 636 296 607 q 275 680 296 664 q 221 696 254 696 l 169 696 l 169 776 l 217 776 q 272 792 251 776 q 292 835 292 807 q 273 878 292 863 q 221 894 254 894 q 149 846 163 894 l 31 846 q 90 948 36 908 q 231 988 144 988 z "},"´":{"ha":335,"x_min":14,"x_max":321,"o":"m 321 971 l 14 819 l 14 936 l 321 1106 l 321 971 z "},"µ":{"ha":908,"x_min":104,"x_max":804,"o":"m 804 765 l 804 0 l 646 0 l 646 121 q 545 22 608 56 q 401 -11 482 -11 q 261 32 318 -11 l 261 -364 l 104 -364 l 104 765 l 261 765 l 261 338 q 313 180 261 235 q 453 125 364 125 q 594 180 542 125 q 646 338 646 235 l 646 765 l 804 765 z "},"¶":{"ha":875,"x_min":49,"x_max":771,"o":"m 771 0 l 631 0 l 631 842 l 538 842 l 538 0 l 397 0 l 397 392 l 378 392 q 131 472 214 392 q 49 678 49 551 q 132 885 49 804 q 378 965 215 965 l 771 965 l 771 0 z "},"·":{"ha":339,"x_min":74,"x_max":264,"o":"m 74 468 q 101 536 74 508 q 168 564 128 564 q 236 536 208 564 q 264 468 264 508 q 236 401 264 428 q 168 374 208 374 q 101 401 129 374 q 74 468 74 429 z "},"¸":{"ha":388,"x_min":14,"x_max":374,"o":"m 193 -67 q 324 -105 274 -67 q 374 -212 374 -143 q 324 -323 374 -282 q 197 -364 274 -364 l 14 -364 l 14 -264 l 165 -264 q 224 -253 204 -264 q 243 -212 243 -242 q 224 -172 243 -183 q 165 -161 204 -161 l 89 -161 l 89 10 l 193 10 l 193 -67 z "},"¹":{"ha":290,"x_min":28,"x_max":226,"o":"m 28 883 l 28 978 l 226 978 l 226 489 l 103 489 l 103 883 l 28 883 z "},"º":{"ha":617,"x_min":43,"x_max":574,"o":"m 308 985 q 444 954 383 985 q 539 866 504 924 q 574 733 574 808 q 538 602 574 660 q 442 513 503 544 q 306 482 381 482 q 171 513 231 482 q 77 601 111 544 q 43 733 43 658 q 78 865 43 808 q 173 953 113 922 q 308 985 233 985 m 307 893 q 210 851 250 893 q 171 732 171 810 q 210 616 171 657 q 306 575 249 575 q 404 617 363 575 q 446 732 446 658 q 405 851 446 808 q 307 893 364 893 z "},"»":{"ha":679,"x_min":69,"x_max":617,"o":"m 201 410 l 69 653 l 221 653 l 350 410 l 221 167 l 69 167 l 201 410 m 468 410 l 336 653 l 488 653 l 617 410 l 488 167 l 336 167 l 468 410 z "},"¼":{"ha":947,"x_min":47,"x_max":893,"o":"m 47 883 l 47 978 l 246 978 l 246 489 l 122 489 l 122 883 l 47 883 m 768 967 l 238 0 l 88 0 l 619 967 l 768 967 m 893 93 l 831 93 l 831 0 l 707 0 l 707 93 l 449 93 l 449 163 l 658 490 l 831 490 l 831 171 l 893 171 l 893 93 m 710 396 l 572 171 l 710 171 l 710 396 z "},"½":{"ha":974,"x_min":47,"x_max":913,"o":"m 122 883 l 47 883 l 47 978 l 246 978 l 246 489 l 122 489 l 122 883 m 753 967 l 238 0 l 88 0 l 603 967 l 753 967 m 913 99 l 913 -1 l 539 -1 l 539 90 l 689 200 q 758 267 735 236 q 781 333 781 297 q 763 384 781 365 q 719 403 746 403 q 679 389 694 403 q 661 350 664 375 l 536 350 q 588 457 539 417 q 724 497 638 497 q 823 475 781 497 q 888 417 865 453 q 911 339 911 381 q 881 250 911 289 q 781 164 851 211 l 679 99 l 913 99 z "},"¾":{"ha":1031,"x_min":46,"x_max":994,"o":"m 251 988 q 349 968 304 988 q 420 915 394 949 q 446 842 446 882 q 422 773 446 800 q 361 735 399 746 l 361 732 q 425 690 400 718 q 450 619 450 661 q 392 522 450 561 q 246 482 335 482 q 103 523 157 482 q 46 635 49 564 l 168 635 q 193 589 174 604 q 244 574 213 574 q 297 590 276 574 q 317 636 317 607 q 296 680 317 664 q 242 696 275 696 l 190 696 l 190 776 l 238 776 q 292 792 272 776 q 313 835 313 807 q 294 878 313 863 q 242 894 275 894 q 169 846 183 894 l 51 846 q 111 948 57 908 q 251 988 165 988 m 900 967 l 342 0 l 193 0 l 751 967 l 900 967 m 994 93 l 932 93 l 932 0 l 808 0 l 808 93 l 550 93 l 550 163 l 760 490 l 932 490 l 932 171 l 994 171 l 994 93 m 811 396 l 674 171 l 811 171 l 811 396 z "},"¿":{"ha":879,"x_min":125,"x_max":746,"o":"m 522 586 q 454 614 482 586 q 426 682 426 642 q 454 750 426 722 q 522 778 482 778 q 589 750 561 778 q 617 682 617 722 q 589 614 617 642 q 522 586 561 586 m 438 -269 q 210 -192 296 -269 q 125 21 125 -114 q 207 236 125 171 q 450 303 289 301 l 450 472 l 600 472 l 600 194 l 533 194 q 392 182 447 196 q 307 131 338 168 q 276 21 276 93 q 319 -94 276 -53 q 436 -136 361 -136 q 554 -96 511 -136 q 597 17 597 -56 l 746 17 q 708 -132 746 -67 q 601 -233 671 -197 q 438 -269 531 -269 z "},"À":{"ha":968,"x_min":47,"x_max":922,"o":"m 686 197 l 282 197 l 213 0 l 47 0 l 393 967 l 576 967 l 922 0 l 756 0 l 686 197 m 643 321 l 485 775 l 325 321 l 643 321 m 628 1138 l 628 1021 l 321 1172 l 321 1307 l 628 1138 z "},"Á":{"ha":968,"x_min":47,"x_max":922,"o":"m 686 197 l 282 197 l 213 0 l 47 0 l 393 967 l 576 967 l 922 0 l 756 0 l 686 197 m 643 321 l 485 775 l 325 321 l 643 321 m 628 1172 l 321 1021 l 321 1138 l 628 1307 l 628 1172 z "},"Â":{"ha":968,"x_min":47,"x_max":922,"o":"m 686 197 l 282 197 l 213 0 l 47 0 l 393 967 l 576 967 l 922 0 l 756 0 l 686 197 m 643 321 l 485 775 l 325 321 l 643 321 m 485 1149 l 286 1029 l 286 1153 l 485 1268 l 683 1153 l 683 1029 l 485 1149 z "},"Ã":{"ha":968,"x_min":47,"x_max":922,"o":"m 686 197 l 282 197 l 213 0 l 47 0 l 393 967 l 576 967 l 922 0 l 756 0 l 686 197 m 643 321 l 485 775 l 325 321 l 643 321 m 415 1208 q 461 1200 442 1208 q 508 1175 481 1192 q 544 1154 529 1161 q 576 1147 558 1147 q 616 1162 600 1147 q 636 1206 632 1176 l 725 1206 q 672 1084 714 1125 q 568 1043 631 1043 q 521 1052 542 1043 q 475 1078 500 1061 q 437 1099 450 1093 q 407 1106 424 1106 q 367 1090 383 1106 q 347 1046 351 1075 l 258 1046 q 311 1167 269 1126 q 415 1208 353 1208 z "},"Ä":{"ha":968,"x_min":47,"x_max":922,"o":"m 686 197 l 282 197 l 213 0 l 47 0 l 393 967 l 576 967 l 922 0 l 756 0 l 686 197 m 643 321 l 485 775 l 325 321 l 643 321 m 282 1146 q 306 1205 282 1181 q 365 1229 331 1229 q 424 1205 400 1229 q 449 1146 449 1181 q 424 1087 449 1111 q 365 1063 400 1063 q 306 1087 331 1063 q 282 1146 282 1111 m 521 1146 q 545 1205 521 1181 q 604 1229 569 1229 q 663 1205 639 1229 q 688 1146 688 1181 q 663 1087 688 1111 q 604 1063 639 1063 q 545 1087 569 1063 q 521 1146 521 1111 z "},"Å":{"ha":968,"x_min":47,"x_max":922,"o":"m 686 197 l 282 197 l 213 0 l 47 0 l 393 967 l 576 967 l 922 0 l 756 0 l 686 197 m 643 321 l 485 775 l 325 321 l 643 321 m 485 1346 q 593 1304 550 1346 q 636 1193 636 1263 q 593 1083 636 1125 q 485 1042 550 1042 q 377 1083 421 1042 q 333 1193 333 1125 q 377 1304 333 1263 q 485 1346 421 1346 m 485 1265 q 434 1246 454 1265 q 414 1194 414 1226 q 435 1144 414 1164 q 485 1124 456 1124 q 536 1144 515 1124 q 557 1194 557 1164 q 536 1246 557 1226 q 485 1265 515 1265 z "},"Æ":{"ha":1279,"x_min":17,"x_max":1188,"o":"m 814 843 l 814 550 l 1146 550 l 1146 428 l 814 428 l 814 124 l 1188 124 l 1188 0 l 656 0 l 656 197 l 296 197 l 189 0 l 17 0 l 549 967 l 1188 967 l 1188 843 l 814 843 m 656 321 l 656 857 l 364 321 l 656 321 z "},"Ç":{"ha":1074,"x_min":51,"x_max":993,"o":"m 544 135 q 699 172 632 135 q 803 281 765 208 l 993 281 q 838 79 943 153 q 594 -6 732 6 l 594 -67 q 725 -105 675 -67 q 775 -212 775 -143 q 725 -323 775 -282 q 599 -364 675 -364 l 415 -364 l 415 -264 l 567 -264 q 625 -253 606 -264 q 644 -212 644 -242 q 625 -172 644 -183 q 567 -161 606 -161 l 490 -161 l 490 -6 q 267 72 367 7 q 109 245 167 138 q 51 485 51 353 q 117 739 51 626 q 297 915 183 851 q 544 978 410 978 q 819 902 699 978 q 993 688 939 826 l 803 688 q 699 797 765 760 q 544 833 632 833 q 374 790 449 833 q 256 668 299 747 q 214 485 214 589 q 256 301 214 381 q 374 178 299 221 q 544 135 449 135 z "},"È":{"ha":728,"x_min":104,"x_max":638,"o":"m 263 843 l 263 550 l 596 550 l 596 428 l 263 428 l 263 124 l 638 124 l 638 0 l 104 0 l 104 967 l 638 967 l 638 843 l 263 843 m 507 1138 l 507 1021 l 200 1172 l 200 1307 l 507 1138 z "},"É":{"ha":728,"x_min":104,"x_max":638,"o":"m 263 843 l 263 550 l 596 550 l 596 428 l 263 428 l 263 124 l 638 124 l 638 0 l 104 0 l 104 967 l 638 967 l 638 843 l 263 843 m 507 1172 l 200 1021 l 200 1138 l 507 1307 l 507 1172 z "},"Ê":{"ha":728,"x_min":104,"x_max":638,"o":"m 263 843 l 263 550 l 596 550 l 596 428 l 263 428 l 263 124 l 638 124 l 638 0 l 104 0 l 104 967 l 638 967 l 638 843 l 263 843 m 364 1149 l 165 1029 l 165 1153 l 364 1268 l 563 1153 l 563 1029 l 364 1149 z "},"Ë":{"ha":728,"x_min":104,"x_max":638,"o":"m 263 843 l 263 550 l 596 550 l 596 428 l 263 428 l 263 124 l 638 124 l 638 0 l 104 0 l 104 967 l 638 967 l 638 843 l 263 843 m 161 1146 q 185 1205 161 1181 q 244 1229 210 1229 q 303 1205 279 1229 q 328 1146 328 1181 q 303 1087 328 1111 q 244 1063 279 1063 q 185 1087 210 1063 q 161 1146 161 1111 m 400 1146 q 424 1205 400 1181 q 483 1229 449 1229 q 542 1205 518 1229 q 567 1146 567 1181 q 542 1087 567 1111 q 483 1063 518 1063 q 424 1087 449 1063 q 400 1146 400 1111 z "},"Ì":{"ha":367,"x_min":19,"x_max":326,"o":"m 263 965 l 263 0 l 104 0 l 104 965 l 263 965 m 326 1138 l 326 1021 l 19 1172 l 19 1307 l 326 1138 z "},"Í":{"ha":367,"x_min":19,"x_max":326,"o":"m 263 965 l 263 0 l 104 0 l 104 965 l 263 965 m 326 1172 l 19 1021 l 19 1138 l 326 1307 l 326 1172 z "},"Î":{"ha":367,"x_min":-15,"x_max":382,"o":"m 263 965 l 263 0 l 104 0 l 104 965 l 263 965 m 183 1149 l -15 1029 l -15 1153 l 183 1268 l 382 1153 l 382 1029 l 183 1149 z "},"Ï":{"ha":367,"x_min":-19,"x_max":386,"o":"m 263 965 l 263 0 l 104 0 l 104 965 l 263 965 m -19 1146 q 5 1205 -19 1181 q 64 1229 29 1229 q 123 1205 99 1229 q 147 1146 147 1181 q 123 1087 147 1111 q 64 1063 99 1063 q 5 1087 29 1063 q -19 1146 -19 1111 m 219 1146 q 244 1205 219 1181 q 303 1229 268 1229 q 362 1205 338 1229 q 386 1146 386 1181 q 362 1087 386 1111 q 303 1063 338 1063 q 244 1087 268 1063 q 219 1146 219 1111 z "},"Ð":{"ha":1000,"x_min":13,"x_max":947,"o":"m 436 965 q 706 906 590 965 q 884 737 821 847 q 947 479 947 626 q 884 224 947 332 q 706 58 821 115 q 436 0 590 0 l 119 0 l 119 407 l 13 407 l 13 553 l 119 553 l 119 965 l 436 965 m 436 121 q 694 217 604 121 q 785 479 785 313 q 694 742 785 647 q 436 838 604 838 l 279 838 l 279 553 l 526 553 l 526 407 l 279 407 l 279 121 l 436 121 z "},"Ñ":{"ha":1001,"x_min":104,"x_max":897,"o":"m 897 0 l 739 0 l 263 721 l 263 0 l 104 0 l 104 967 l 263 967 l 739 247 l 739 967 l 897 967 l 897 0 m 432 1208 q 478 1200 458 1208 q 525 1175 497 1192 q 560 1154 546 1161 q 593 1147 575 1147 q 633 1162 617 1147 q 653 1206 649 1176 l 742 1206 q 689 1084 731 1125 q 585 1043 647 1043 q 538 1052 558 1043 q 492 1078 517 1061 q 453 1099 467 1093 q 424 1106 440 1106 q 384 1090 400 1106 q 364 1046 368 1075 l 275 1046 q 328 1167 286 1126 q 432 1208 369 1208 z "},"Ò":{"ha":1089,"x_min":51,"x_max":1038,"o":"m 544 978 q 794 915 681 978 q 972 739 907 851 q 1038 485 1038 626 q 972 230 1038 343 q 794 53 907 117 q 544 -10 681 -10 q 297 53 410 -10 q 117 230 183 117 q 51 485 51 343 q 117 739 51 626 q 297 915 183 851 q 544 978 410 978 m 544 833 q 374 790 449 833 q 256 668 299 747 q 214 485 214 589 q 256 301 214 381 q 374 177 299 221 q 544 133 449 133 q 715 177 640 133 q 833 301 790 221 q 875 485 875 381 q 833 668 875 589 q 715 790 790 747 q 544 833 640 833 m 688 1138 l 688 1021 l 381 1172 l 381 1307 l 688 1138 z "},"Ó":{"ha":1089,"x_min":51,"x_max":1038,"o":"m 544 978 q 794 915 681 978 q 972 739 907 851 q 1038 485 1038 626 q 972 230 1038 343 q 794 53 907 117 q 544 -10 681 -10 q 297 53 410 -10 q 117 230 183 117 q 51 485 51 343 q 117 739 51 626 q 297 915 183 851 q 544 978 410 978 m 544 833 q 374 790 449 833 q 256 668 299 747 q 214 485 214 589 q 256 301 214 381 q 374 177 299 221 q 544 133 449 133 q 715 177 640 133 q 833 301 790 221 q 875 485 875 381 q 833 668 875 589 q 715 790 790 747 q 544 833 640 833 m 688 1172 l 381 1021 l 381 1138 l 688 1307 l 688 1172 z "},"Ô":{"ha":1089,"x_min":51,"x_max":1038,"o":"m 544 978 q 794 915 681 978 q 972 739 907 851 q 1038 485 1038 626 q 972 230 1038 343 q 794 53 907 117 q 544 -10 681 -10 q 297 53 410 -10 q 117 230 183 117 q 51 485 51 343 q 117 739 51 626 q 297 915 183 851 q 544 978 410 978 m 544 833 q 374 790 449 833 q 256 668 299 747 q 214 485 214 589 q 256 301 214 381 q 374 177 299 221 q 544 133 449 133 q 715 177 640 133 q 833 301 790 221 q 875 485 875 381 q 833 668 875 589 q 715 790 790 747 q 544 833 640 833 m 544 1149 l 346 1029 l 346 1153 l 544 1268 l 743 1153 l 743 1029 l 544 1149 z "},"Õ":{"ha":1089,"x_min":51,"x_max":1038,"o":"m 544 978 q 794 915 681 978 q 972 739 907 851 q 1038 485 1038 626 q 972 230 1038 343 q 794 53 907 117 q 544 -10 681 -10 q 297 53 410 -10 q 117 230 183 117 q 51 485 51 343 q 117 739 51 626 q 297 915 183 851 q 544 978 410 978 m 544 833 q 374 790 449 833 q 256 668 299 747 q 214 485 214 589 q 256 301 214 381 q 374 177 299 221 q 544 133 449 133 q 715 177 640 133 q 833 301 790 221 q 875 485 875 381 q 833 668 875 589 q 715 790 790 747 q 544 833 640 833 m 475 1208 q 521 1200 501 1208 q 568 1175 540 1192 q 603 1154 589 1161 q 636 1147 618 1147 q 676 1162 660 1147 q 696 1206 692 1176 l 785 1206 q 732 1084 774 1125 q 628 1043 690 1043 q 581 1052 601 1043 q 535 1078 560 1061 q 497 1099 510 1093 q 467 1106 483 1106 q 427 1090 443 1106 q 407 1046 411 1075 l 318 1046 q 371 1167 329 1126 q 475 1208 413 1208 z "},"Ö":{"ha":1089,"x_min":51,"x_max":1038,"o":"m 544 978 q 794 915 681 978 q 972 739 907 851 q 1038 485 1038 626 q 972 230 1038 343 q 794 53 907 117 q 544 -10 681 -10 q 297 53 410 -10 q 117 230 183 117 q 51 485 51 343 q 117 739 51 626 q 297 915 183 851 q 544 978 410 978 m 544 833 q 374 790 449 833 q 256 668 299 747 q 214 485 214 589 q 256 301 214 381 q 374 177 299 221 q 544 133 449 133 q 715 177 640 133 q 833 301 790 221 q 875 485 875 381 q 833 668 875 589 q 715 790 790 747 q 544 833 640 833 m 342 1146 q 366 1205 342 1181 q 425 1229 390 1229 q 484 1205 460 1229 q 508 1146 508 1181 q 484 1087 508 1111 q 425 1063 460 1063 q 366 1087 390 1063 q 342 1146 342 1111 m 581 1146 q 605 1205 581 1181 q 664 1229 629 1229 q 723 1205 699 1229 q 747 1146 747 1181 q 723 1087 747 1111 q 664 1063 699 1063 q 605 1087 629 1063 q 581 1146 581 1111 z "},"×":{"ha":971,"x_min":171,"x_max":799,"o":"m 697 192 l 486 403 l 275 192 l 171 296 l 383 507 l 176 714 l 278 815 l 485 608 l 692 815 l 796 711 l 589 504 l 799 293 l 697 192 z "},"Ø":{"ha":1089,"x_min":36,"x_max":1053,"o":"m 915 818 q 1006 667 974 753 q 1038 485 1038 582 q 972 230 1038 343 q 794 53 907 117 q 544 -10 681 -10 q 383 15 460 -10 q 243 88 306 40 l 163 0 l 36 0 l 175 150 q 84 302 117 217 q 51 485 51 388 q 117 739 51 626 q 297 915 183 851 q 544 978 410 978 q 707 953 629 978 q 847 881 785 928 l 926 967 l 1053 967 l 915 818 m 214 485 q 279 264 214 356 l 746 771 q 544 833 661 833 q 374 790 449 833 q 256 668 299 747 q 214 485 214 589 m 875 485 q 811 704 875 611 l 344 197 q 544 133 428 133 q 715 177 640 133 q 833 301 790 221 q 875 485 875 381 z "},"Ù":{"ha":958,"x_min":103,"x_max":857,"o":"m 261 965 l 261 353 q 319 188 261 243 q 479 132 376 132 q 641 188 583 132 q 699 353 699 243 l 699 965 l 857 965 l 857 353 q 806 153 857 235 q 668 31 754 71 q 478 -10 582 -10 q 288 31 374 -10 q 153 153 203 71 q 103 353 103 235 l 103 965 l 261 965 m 622 1138 l 622 1021 l 315 1172 l 315 1307 l 622 1138 z "},"Ú":{"ha":958,"x_min":103,"x_max":857,"o":"m 261 965 l 261 353 q 319 188 261 243 q 479 132 376 132 q 641 188 583 132 q 699 353 699 243 l 699 965 l 857 965 l 857 353 q 806 153 857 235 q 668 31 754 71 q 478 -10 582 -10 q 288 31 374 -10 q 153 153 203 71 q 103 353 103 235 l 103 965 l 261 965 m 622 1172 l 315 1021 l 315 1138 l 622 1307 l 622 1172 z "},"Û":{"ha":958,"x_min":103,"x_max":857,"o":"m 261 965 l 261 353 q 319 188 261 243 q 479 132 376 132 q 641 188 583 132 q 699 353 699 243 l 699 965 l 857 965 l 857 353 q 806 153 857 235 q 668 31 754 71 q 478 -10 582 -10 q 288 31 374 -10 q 153 153 203 71 q 103 353 103 235 l 103 965 l 261 965 m 479 1149 l 281 1029 l 281 1153 l 479 1268 l 678 1153 l 678 1029 l 479 1149 z "},"Ü":{"ha":958,"x_min":103,"x_max":857,"o":"m 261 965 l 261 353 q 319 188 261 243 q 479 132 376 132 q 641 188 583 132 q 699 353 699 243 l 699 965 l 857 965 l 857 353 q 806 153 857 235 q 668 31 754 71 q 478 -10 582 -10 q 288 31 374 -10 q 153 153 203 71 q 103 353 103 235 l 103 965 l 261 965 m 276 1146 q 301 1205 276 1181 q 360 1229 325 1229 q 419 1205 394 1229 q 443 1146 443 1181 q 419 1087 443 1111 q 360 1063 394 1063 q 301 1087 325 1063 q 276 1146 276 1111 m 515 1146 q 540 1205 515 1181 q 599 1229 564 1229 q 658 1205 633 1229 q 682 1146 682 1181 q 658 1087 682 1111 q 599 1063 633 1063 q 540 1087 564 1063 q 515 1146 515 1111 z "},"Ý":{"ha":840,"x_min":21,"x_max":819,"o":"m 819 965 l 500 350 l 500 0 l 342 0 l 342 350 l 21 965 l 197 965 l 419 494 l 642 965 l 819 965 m 564 1172 l 257 1021 l 257 1138 l 564 1307 l 564 1172 z "},"Þ":{"ha":826,"x_min":104,"x_max":779,"o":"m 263 197 l 263 0 l 104 0 l 104 967 l 261 967 l 261 771 l 438 771 q 626 733 549 771 q 741 629 703 694 q 779 483 779 564 q 744 344 779 410 q 633 238 710 279 q 438 197 557 197 l 263 197 m 438 321 q 572 364 528 321 q 617 483 617 407 q 572 603 617 560 q 438 647 528 647 l 263 647 l 263 321 l 438 321 z "},"ß":{"ha":947,"x_min":104,"x_max":910,"o":"m 724 535 q 867 410 824 474 q 910 256 910 347 q 870 115 910 176 q 765 21 831 54 q 626 -12 700 -12 q 494 17 556 -12 q 395 105 432 47 q 358 239 358 163 l 492 239 q 531 156 497 186 q 621 126 564 126 q 713 165 679 126 q 747 256 747 203 q 722 335 747 300 q 640 404 697 369 l 424 538 l 424 613 l 464 635 q 543 767 543 678 q 504 865 543 825 q 406 904 465 904 q 303 863 344 904 q 263 754 263 822 l 263 0 l 104 0 l 104 751 q 189 963 104 885 q 413 1042 274 1042 q 574 1008 508 1042 q 673 918 640 974 q 706 800 706 863 q 676 697 706 742 q 586 618 647 653 l 724 535 z "},"à":{"ha":942,"x_min":51,"x_max":838,"o":"m 413 778 q 572 737 503 778 q 678 629 640 696 l 678 765 l 838 765 l 838 0 l 678 0 l 678 143 q 571 30 639 72 q 413 -12 503 -12 q 230 38 313 -12 q 99 180 147 89 q 51 386 51 271 q 99 590 51 501 q 230 728 147 679 q 413 778 313 778 m 446 640 q 332 610 385 640 q 247 523 279 581 q 214 386 214 465 q 247 247 214 307 q 333 156 279 188 q 446 125 386 125 q 560 156 507 125 q 645 245 613 186 q 678 383 678 304 q 645 521 678 463 q 560 610 613 579 q 446 640 507 640 m 614 936 l 614 819 l 307 971 l 307 1106 l 614 936 z "},"á":{"ha":942,"x_min":51,"x_max":838,"o":"m 413 778 q 572 737 503 778 q 678 629 640 696 l 678 765 l 838 765 l 838 0 l 678 0 l 678 143 q 571 30 639 72 q 413 -12 503 -12 q 230 38 313 -12 q 99 180 147 89 q 51 386 51 271 q 99 590 51 501 q 230 728 147 679 q 413 778 313 778 m 446 640 q 332 610 385 640 q 247 523 279 581 q 214 386 214 465 q 247 247 214 307 q 333 156 279 188 q 446 125 386 125 q 560 156 507 125 q 645 245 613 186 q 678 383 678 304 q 645 521 678 463 q 560 610 613 579 q 446 640 507 640 m 614 971 l 307 819 l 307 936 l 614 1106 l 614 971 z "},"â":{"ha":942,"x_min":51,"x_max":838,"o":"m 413 778 q 572 737 503 778 q 678 629 640 696 l 678 765 l 838 765 l 838 0 l 678 0 l 678 143 q 571 30 639 72 q 413 -12 503 -12 q 230 38 313 -12 q 99 180 147 89 q 51 386 51 271 q 99 590 51 501 q 230 728 147 679 q 413 778 313 778 m 446 640 q 332 610 385 640 q 247 523 279 581 q 214 386 214 465 q 247 247 214 307 q 333 156 279 188 q 446 125 386 125 q 560 156 507 125 q 645 245 613 186 q 678 383 678 304 q 645 521 678 463 q 560 610 613 579 q 446 640 507 640 m 471 947 l 272 828 l 272 951 l 471 1067 l 669 951 l 669 828 l 471 947 z "},"ã":{"ha":942,"x_min":51,"x_max":838,"o":"m 413 778 q 572 737 503 778 q 678 629 640 696 l 678 765 l 838 765 l 838 0 l 678 0 l 678 143 q 571 30 639 72 q 413 -12 503 -12 q 230 38 313 -12 q 99 180 147 89 q 51 386 51 271 q 99 590 51 501 q 230 728 147 679 q 413 778 313 778 m 446 640 q 332 610 385 640 q 247 523 279 581 q 214 386 214 465 q 247 247 214 307 q 333 156 279 188 q 446 125 386 125 q 560 156 507 125 q 645 245 613 186 q 678 383 678 304 q 645 521 678 463 q 560 610 613 579 q 446 640 507 640 m 401 1007 q 447 999 428 1007 q 494 974 467 990 q 530 953 515 960 q 563 946 544 946 q 602 960 586 946 q 622 1004 618 975 l 711 1004 q 658 883 700 924 q 554 842 617 842 q 507 851 528 842 q 461 876 486 860 q 423 898 436 892 q 393 904 410 904 q 353 889 369 904 q 333 844 338 874 l 244 844 q 297 966 256 925 q 401 1007 339 1007 z "},"ä":{"ha":942,"x_min":51,"x_max":838,"o":"m 413 778 q 572 737 503 778 q 678 629 640 696 l 678 765 l 838 765 l 838 0 l 678 0 l 678 143 q 571 30 639 72 q 413 -12 503 -12 q 230 38 313 -12 q 99 180 147 89 q 51 386 51 271 q 99 590 51 501 q 230 728 147 679 q 413 778 313 778 m 446 640 q 332 610 385 640 q 247 523 279 581 q 214 386 214 465 q 247 247 214 307 q 333 156 279 188 q 446 125 386 125 q 560 156 507 125 q 645 245 613 186 q 678 383 678 304 q 645 521 678 463 q 560 610 613 579 q 446 640 507 640 m 268 944 q 292 1003 268 979 q 351 1028 317 1028 q 410 1003 386 1028 q 435 944 435 979 q 410 885 435 910 q 351 861 386 861 q 292 885 317 861 q 268 944 268 910 m 507 944 q 531 1003 507 979 q 590 1028 556 1028 q 649 1003 625 1028 q 674 944 674 979 q 649 885 674 910 q 590 861 625 861 q 531 885 556 861 q 507 944 507 910 z "},"å":{"ha":942,"x_min":51,"x_max":838,"o":"m 413 778 q 572 737 503 778 q 678 629 640 696 l 678 765 l 838 765 l 838 0 l 678 0 l 678 143 q 571 30 639 72 q 413 -12 503 -12 q 230 38 313 -12 q 99 180 147 89 q 51 386 51 271 q 99 590 51 501 q 230 728 147 679 q 413 778 313 778 m 446 640 q 332 610 385 640 q 247 523 279 581 q 214 386 214 465 q 247 247 214 307 q 333 156 279 188 q 446 125 386 125 q 560 156 507 125 q 645 245 613 186 q 678 383 678 304 q 645 521 678 463 q 560 610 613 579 q 446 640 507 640 m 471 1144 q 579 1103 536 1144 q 622 992 622 1061 q 579 882 622 924 q 471 840 536 840 q 363 882 407 840 q 319 992 319 924 q 363 1103 319 1061 q 471 1144 407 1144 m 471 1064 q 420 1044 440 1064 q 400 993 400 1025 q 421 942 400 963 q 471 922 442 922 q 522 942 501 922 q 543 993 543 963 q 522 1044 543 1025 q 471 1064 501 1064 z "},"æ":{"ha":1511,"x_min":51,"x_max":1460,"o":"m 1460 404 q 1454 329 1460 364 l 856 329 q 897 217 864 264 q 978 145 931 169 q 1079 121 1026 121 q 1195 150 1149 121 q 1263 228 1242 179 l 1435 228 q 1313 55 1400 122 q 1100 -12 1225 -12 q 945 25 1017 -12 q 835 125 874 63 l 835 0 l 676 0 l 676 125 q 566 25 635 63 q 413 -12 497 -12 q 230 38 313 -12 q 99 180 147 89 q 51 386 51 271 q 99 591 51 501 q 232 729 147 681 q 421 778 317 778 q 676 649 590 778 l 676 765 l 835 765 l 835 649 q 951 748 886 718 q 1100 778 1015 778 q 1286 730 1204 778 q 1414 597 1368 682 q 1460 404 1460 511 m 1296 438 q 1235 588 1294 532 q 1082 644 1175 644 q 931 587 996 644 q 856 438 867 529 l 1296 438 m 446 125 q 560 156 507 125 q 645 245 613 186 q 678 383 678 304 q 645 521 678 463 q 560 610 613 579 q 446 640 507 640 q 332 610 385 640 q 247 523 279 581 q 214 386 214 465 q 247 247 214 307 q 333 156 279 188 q 446 125 386 125 z "},"ç":{"ha":833,"x_min":51,"x_max":779,"o":"m 426 121 q 608 242 564 121 l 779 242 q 670 69 749 136 q 474 -10 592 1 l 474 -67 q 604 -105 554 -67 q 654 -212 654 -143 q 604 -323 654 -282 q 478 -364 554 -364 l 294 -364 l 294 -264 l 446 -264 q 504 -253 485 -264 q 524 -212 524 -242 q 504 -172 524 -183 q 446 -161 485 -161 l 369 -161 l 369 -8 q 203 55 275 3 q 91 191 131 107 q 51 383 51 275 q 99 591 51 501 q 232 729 147 681 q 426 778 317 778 q 656 712 565 778 q 779 524 747 646 l 608 524 q 542 613 588 581 q 426 644 496 644 q 272 576 329 644 q 214 383 214 507 q 272 190 214 260 q 426 121 329 121 z "},"è":{"ha":857,"x_min":51,"x_max":806,"o":"m 806 404 q 800 329 806 364 l 214 329 q 278 177 219 233 q 426 121 338 121 q 608 228 556 121 l 779 228 q 653 55 744 122 q 426 -12 561 -12 q 232 37 317 -12 q 99 176 147 86 q 51 383 51 265 q 99 591 51 501 q 234 729 147 681 q 433 778 321 778 q 626 731 542 778 q 758 599 711 683 q 806 404 806 514 m 640 438 q 578 588 639 532 q 426 644 517 644 q 283 588 342 644 q 215 438 224 532 l 640 438 m 571 936 l 571 819 l 264 971 l 264 1106 l 571 936 z "},"é":{"ha":857,"x_min":51,"x_max":806,"o":"m 806 404 q 800 329 806 364 l 214 329 q 278 177 219 233 q 426 121 338 121 q 608 228 556 121 l 779 228 q 653 55 744 122 q 426 -12 561 -12 q 232 37 317 -12 q 99 176 147 86 q 51 383 51 265 q 99 591 51 501 q 234 729 147 681 q 433 778 321 778 q 626 731 542 778 q 758 599 711 683 q 806 404 806 514 m 640 438 q 578 588 639 532 q 426 644 517 644 q 283 588 342 644 q 215 438 224 532 l 640 438 m 571 971 l 264 819 l 264 936 l 571 1106 l 571 971 z "},"ê":{"ha":857,"x_min":51,"x_max":806,"o":"m 806 404 q 800 329 806 364 l 214 329 q 278 177 219 233 q 426 121 338 121 q 608 228 556 121 l 779 228 q 653 55 744 122 q 426 -12 561 -12 q 232 37 317 -12 q 99 176 147 86 q 51 383 51 265 q 99 591 51 501 q 234 729 147 681 q 433 778 321 778 q 626 731 542 778 q 758 599 711 683 q 806 404 806 514 m 640 438 q 578 588 639 532 q 426 644 517 644 q 283 588 342 644 q 215 438 224 532 l 640 438 m 428 947 l 229 828 l 229 951 l 428 1067 l 626 951 l 626 828 l 428 947 z "},"ë":{"ha":857,"x_min":51,"x_max":806,"o":"m 806 404 q 800 329 806 364 l 214 329 q 278 177 219 233 q 426 121 338 121 q 608 228 556 121 l 779 228 q 653 55 744 122 q 426 -12 561 -12 q 232 37 317 -12 q 99 176 147 86 q 51 383 51 265 q 99 591 51 501 q 234 729 147 681 q 433 778 321 778 q 626 731 542 778 q 758 599 711 683 q 806 404 806 514 m 640 438 q 578 588 639 532 q 426 644 517 644 q 283 588 342 644 q 215 438 224 532 l 640 438 m 226 944 q 251 1003 226 979 q 310 1028 275 1028 q 369 1003 344 1028 q 393 944 393 979 q 369 885 393 910 q 310 861 344 861 q 251 885 275 861 q 226 944 226 910 m 465 944 q 490 1003 465 979 q 549 1028 514 1028 q 608 1003 583 1028 q 632 944 632 979 q 608 885 632 910 q 549 861 583 861 q 490 885 514 861 q 465 944 465 910 z "},"ì":{"ha":367,"x_min":19,"x_max":326,"o":"m 263 765 l 263 0 l 104 0 l 104 765 l 263 765 m 326 936 l 326 819 l 19 971 l 19 1106 l 326 936 z "},"í":{"ha":367,"x_min":19,"x_max":326,"o":"m 263 765 l 263 0 l 104 0 l 104 765 l 263 765 m 326 971 l 19 819 l 19 936 l 326 1106 l 326 971 z "},"î":{"ha":367,"x_min":-15,"x_max":382,"o":"m 263 765 l 263 0 l 104 0 l 104 765 l 263 765 m 183 947 l -15 828 l -15 951 l 183 1067 l 382 951 l 382 828 l 183 947 z "},"ï":{"ha":367,"x_min":-19,"x_max":386,"o":"m 263 765 l 263 0 l 104 0 l 104 765 l 263 765 m -19 944 q 5 1003 -19 979 q 64 1028 29 1028 q 123 1003 99 1028 q 147 944 147 979 q 123 885 147 910 q 64 861 99 861 q 5 885 29 861 q -19 944 -19 910 m 219 944 q 244 1003 219 979 q 303 1028 268 1028 q 362 1003 338 1028 q 386 944 386 979 q 362 885 386 910 q 303 861 338 861 q 244 885 268 861 q 219 944 219 910 z "},"ð":{"ha":883,"x_min":51,"x_max":832,"o":"m 653 910 q 832 440 832 699 q 781 192 832 294 q 640 39 729 90 q 436 -12 550 -12 q 239 37 326 -12 q 101 176 151 86 q 51 383 51 265 q 102 591 51 501 q 240 729 153 681 q 435 778 328 778 q 548 758 497 778 q 647 699 599 739 q 538 872 608 789 l 367 817 l 367 901 l 476 938 q 374 1028 429 982 l 535 1028 q 592 975 564 1003 l 765 1032 l 765 947 l 653 910 m 436 121 q 551 151 497 121 q 637 241 604 182 q 669 383 669 300 q 638 526 669 467 q 553 615 606 585 q 439 644 500 644 q 326 615 378 644 q 244 526 275 585 q 214 383 214 467 q 244 240 214 300 q 324 151 274 181 q 436 121 375 121 z "},"ñ":{"ha":901,"x_min":104,"x_max":804,"o":"m 507 778 q 658 740 590 778 q 765 629 725 703 q 804 451 804 556 l 804 0 l 647 0 l 647 428 q 596 585 647 531 q 456 640 544 640 q 315 585 367 640 q 263 428 263 531 l 263 0 l 104 0 l 104 765 l 263 765 l 263 644 q 363 744 300 710 q 507 778 426 778 m 396 1007 q 442 999 422 1007 q 489 974 461 990 q 524 953 510 960 q 557 946 539 946 q 597 960 581 946 q 617 1004 613 975 l 706 1004 q 653 883 694 924 q 549 842 611 842 q 501 851 522 842 q 456 876 481 860 q 417 898 431 892 q 388 904 404 904 q 348 889 364 904 q 328 844 332 874 l 239 844 q 292 966 250 925 q 396 1007 333 1007 z "},"ò":{"ha":886,"x_min":53,"x_max":833,"o":"m 443 778 q 642 729 553 778 q 782 590 731 681 q 833 383 833 500 q 781 176 833 267 q 637 37 728 86 q 436 -12 546 -12 q 240 37 328 -12 q 103 176 153 86 q 53 383 53 265 q 104 590 53 500 q 244 729 156 681 q 443 778 333 778 m 440 644 q 328 615 379 644 q 245 526 276 585 q 214 383 214 467 q 244 240 214 300 q 324 151 274 181 q 436 121 375 121 q 551 151 497 121 q 638 241 604 182 q 671 383 671 300 q 639 526 671 467 q 554 615 607 585 q 440 644 501 644 m 586 936 l 586 819 l 279 971 l 279 1106 l 586 936 z "},"ó":{"ha":886,"x_min":53,"x_max":833,"o":"m 443 778 q 642 729 553 778 q 782 590 731 681 q 833 383 833 500 q 781 176 833 267 q 637 37 728 86 q 436 -12 546 -12 q 240 37 328 -12 q 103 176 153 86 q 53 383 53 265 q 104 590 53 500 q 244 729 156 681 q 443 778 333 778 m 440 644 q 328 615 379 644 q 245 526 276 585 q 214 383 214 467 q 244 240 214 300 q 324 151 274 181 q 436 121 375 121 q 551 151 497 121 q 638 241 604 182 q 671 383 671 300 q 639 526 671 467 q 554 615 607 585 q 440 644 501 644 m 586 971 l 279 819 l 279 936 l 586 1106 l 586 971 z "},"ô":{"ha":886,"x_min":53,"x_max":833,"o":"m 443 778 q 642 729 553 778 q 782 590 731 681 q 833 383 833 500 q 781 176 833 267 q 637 37 728 86 q 436 -12 546 -12 q 240 37 328 -12 q 103 176 153 86 q 53 383 53 265 q 104 590 53 500 q 244 729 156 681 q 443 778 333 778 m 440 644 q 328 615 379 644 q 245 526 276 585 q 214 383 214 467 q 244 240 214 300 q 324 151 274 181 q 436 121 375 121 q 551 151 497 121 q 638 241 604 182 q 671 383 671 300 q 639 526 671 467 q 554 615 607 585 q 440 644 501 644 m 443 947 l 244 828 l 244 951 l 443 1067 l 642 951 l 642 828 l 443 947 z "},"õ":{"ha":886,"x_min":53,"x_max":833,"o":"m 443 778 q 642 729 553 778 q 782 590 731 681 q 833 383 833 500 q 781 176 833 267 q 637 37 728 86 q 436 -12 546 -12 q 240 37 328 -12 q 103 176 153 86 q 53 383 53 265 q 104 590 53 500 q 244 729 156 681 q 443 778 333 778 m 440 644 q 328 615 379 644 q 245 526 276 585 q 214 383 214 467 q 244 240 214 300 q 324 151 274 181 q 436 121 375 121 q 551 151 497 121 q 638 241 604 182 q 671 383 671 300 q 639 526 671 467 q 554 615 607 585 q 440 644 501 644 m 374 1007 q 419 999 400 1007 q 467 974 439 990 q 502 953 488 960 q 535 946 517 946 q 574 960 558 946 q 594 1004 590 975 l 683 1004 q 631 883 672 924 q 526 842 589 842 q 479 851 500 842 q 433 876 458 860 q 395 898 408 892 q 365 904 382 904 q 326 889 342 904 q 306 844 310 874 l 217 844 q 269 966 228 925 q 374 1007 311 1007 z "},"ö":{"ha":886,"x_min":53,"x_max":833,"o":"m 443 778 q 642 729 553 778 q 782 590 731 681 q 833 383 833 500 q 781 176 833 267 q 637 37 728 86 q 436 -12 546 -12 q 240 37 328 -12 q 103 176 153 86 q 53 383 53 265 q 104 590 53 500 q 244 729 156 681 q 443 778 333 778 m 440 644 q 328 615 379 644 q 245 526 276 585 q 214 383 214 467 q 244 240 214 300 q 324 151 274 181 q 436 121 375 121 q 551 151 497 121 q 638 241 604 182 q 671 383 671 300 q 639 526 671 467 q 554 615 607 585 q 440 644 501 644 m 240 944 q 265 1003 240 979 q 324 1028 289 1028 q 383 1003 358 1028 q 407 944 407 979 q 383 885 407 910 q 324 861 358 861 q 265 885 289 861 q 240 944 240 910 m 479 944 q 503 1003 479 979 q 563 1028 528 1028 q 622 1003 597 1028 q 646 944 646 979 q 622 885 646 910 q 563 861 597 861 q 503 885 528 861 q 479 944 479 910 z "},"÷":{"ha":943,"x_min":125,"x_max":833,"o":"m 383 797 q 412 865 383 838 q 479 893 440 893 q 547 865 519 893 q 575 797 575 838 q 547 730 575 758 q 479 701 519 701 q 412 730 440 701 q 383 797 383 758 m 833 572 l 833 432 l 125 432 l 125 572 l 833 572 m 383 206 q 411 274 383 246 q 479 301 439 301 q 547 274 519 301 q 575 206 575 246 q 547 139 575 167 q 479 111 519 111 q 411 139 439 111 q 383 206 383 167 z "},"ø":{"ha":886,"x_min":39,"x_max":847,"o":"m 740 649 q 833 383 833 542 q 781 176 833 267 q 637 37 728 86 q 436 -12 546 -12 q 204 60 303 -12 l 149 0 l 39 0 l 144 115 q 53 383 53 222 q 104 590 53 500 q 244 729 156 681 q 443 778 333 778 q 681 704 579 778 l 738 765 l 847 765 l 740 649 m 214 383 q 249 231 214 293 l 582 594 q 440 644 521 644 q 328 615 379 644 q 245 526 276 585 q 214 383 214 467 m 671 383 q 635 532 671 469 l 301 167 q 436 121 358 121 q 551 151 497 121 q 638 241 604 182 q 671 383 671 300 z "},"ù":{"ha":901,"x_min":97,"x_max":797,"o":"m 797 765 l 797 0 l 639 0 l 639 121 q 538 22 601 56 q 394 -11 475 -11 q 244 26 311 -11 q 137 137 176 64 q 97 314 97 210 l 97 765 l 254 765 l 254 338 q 306 180 254 235 q 446 125 357 125 q 587 180 535 125 q 639 338 639 235 l 639 765 l 797 765 m 594 936 l 594 819 l 288 971 l 288 1106 l 594 936 z "},"ú":{"ha":901,"x_min":97,"x_max":797,"o":"m 797 765 l 797 0 l 639 0 l 639 121 q 538 22 601 56 q 394 -11 475 -11 q 244 26 311 -11 q 137 137 176 64 q 97 314 97 210 l 97 765 l 254 765 l 254 338 q 306 180 254 235 q 446 125 357 125 q 587 180 535 125 q 639 338 639 235 l 639 765 l 797 765 m 594 971 l 288 819 l 288 936 l 594 1106 l 594 971 z "},"û":{"ha":901,"x_min":97,"x_max":797,"o":"m 797 765 l 797 0 l 639 0 l 639 121 q 538 22 601 56 q 394 -11 475 -11 q 244 26 311 -11 q 137 137 176 64 q 97 314 97 210 l 97 765 l 254 765 l 254 338 q 306 180 254 235 q 446 125 357 125 q 587 180 535 125 q 639 338 639 235 l 639 765 l 797 765 m 451 947 l 253 828 l 253 951 l 451 1067 l 650 951 l 650 828 l 451 947 z "},"ü":{"ha":901,"x_min":97,"x_max":797,"o":"m 797 765 l 797 0 l 639 0 l 639 121 q 538 22 601 56 q 394 -11 475 -11 q 244 26 311 -11 q 137 137 176 64 q 97 314 97 210 l 97 765 l 254 765 l 254 338 q 306 180 254 235 q 446 125 357 125 q 587 180 535 125 q 639 338 639 235 l 639 765 l 797 765 m 249 944 q 273 1003 249 979 q 332 1028 297 1028 q 391 1003 367 1028 q 415 944 415 979 q 391 885 415 910 q 332 861 367 861 q 273 885 297 861 q 249 944 249 910 m 488 944 q 512 1003 488 979 q 571 1028 536 1028 q 630 1003 606 1028 q 654 944 654 979 q 630 885 654 910 q 571 861 606 861 q 512 885 536 861 q 488 944 488 910 z "},"ý":{"ha":808,"x_min":14,"x_max":793,"o":"m 190 765 l 406 182 l 629 765 l 793 765 l 324 -360 l 160 -360 l 315 13 l 14 765 l 190 765 m 547 971 l 240 819 l 240 936 l 547 1106 l 547 971 z "},"þ":{"ha":942,"x_min":104,"x_max":889,"o":"m 529 778 q 712 728 629 778 q 842 590 794 679 q 889 386 889 501 q 842 180 889 271 q 712 38 794 89 q 529 -12 629 -12 q 371 30 439 -12 q 263 143 303 72 l 263 -364 l 104 -364 l 104 1028 l 263 1028 l 263 629 q 370 737 301 696 q 529 778 439 778 m 494 640 q 381 610 435 640 q 295 521 328 579 q 263 383 263 463 q 295 245 263 304 q 381 156 328 186 q 494 125 435 125 q 609 156 556 125 q 695 247 663 188 q 728 386 728 307 q 695 523 728 465 q 609 610 663 581 q 494 640 556 640 z "},"ÿ":{"ha":808,"x_min":14,"x_max":793,"o":"m 190 765 l 406 182 l 629 765 l 793 765 l 324 -360 l 160 -360 l 315 13 l 14 765 l 190 765 m 201 944 q 226 1003 201 979 q 285 1028 250 1028 q 344 1003 319 1028 q 368 944 368 979 q 344 885 368 910 q 285 861 319 861 q 226 885 250 861 q 201 944 201 910 m 440 944 q 465 1003 440 979 q 524 1028 489 1028 q 583 1003 558 1028 q 607 944 607 979 q 583 885 607 910 q 524 861 558 861 q 465 885 489 861 q 440 944 440 910 z "},"Ā":{"ha":968,"x_min":47,"x_max":922,"o":"m 686 197 l 282 197 l 213 0 l 47 0 l 393 967 l 576 967 l 922 0 l 756 0 l 686 197 m 643 321 l 485 775 l 325 321 l 643 321 m 739 1201 l 739 1083 l 231 1083 l 231 1201 l 739 1201 z "},"ā":{"ha":942,"x_min":51,"x_max":838,"o":"m 413 778 q 572 737 503 778 q 678 629 640 696 l 678 765 l 838 765 l 838 0 l 678 0 l 678 143 q 571 30 639 72 q 413 -12 503 -12 q 230 38 313 -12 q 99 180 147 89 q 51 386 51 271 q 99 590 51 501 q 230 728 147 679 q 413 778 313 778 m 446 640 q 332 610 385 640 q 247 523 279 581 q 214 386 214 465 q 247 247 214 307 q 333 156 279 188 q 446 125 386 125 q 560 156 507 125 q 645 245 613 186 q 678 383 678 304 q 645 521 678 463 q 560 610 613 579 q 446 640 507 640 m 725 1000 l 725 882 l 217 882 l 217 1000 l 725 1000 z "},"Ă":{"ha":968,"x_min":47,"x_max":922,"o":"m 686 197 l 282 197 l 213 0 l 47 0 l 393 967 l 576 967 l 922 0 l 756 0 l 686 197 m 643 321 l 485 775 l 325 321 l 643 321 m 485 1046 q 332 1099 388 1046 q 276 1240 276 1153 l 276 1269 l 367 1269 q 393 1194 367 1219 q 485 1169 419 1169 q 576 1194 550 1169 q 603 1269 603 1219 l 694 1269 l 694 1239 q 638 1099 694 1151 q 485 1046 582 1046 z "},"ă":{"ha":942,"x_min":51,"x_max":838,"o":"m 413 778 q 572 737 503 778 q 678 629 640 696 l 678 765 l 838 765 l 838 0 l 678 0 l 678 143 q 571 30 639 72 q 413 -12 503 -12 q 230 38 313 -12 q 99 180 147 89 q 51 386 51 271 q 99 590 51 501 q 230 728 147 679 q 413 778 313 778 m 446 640 q 332 610 385 640 q 247 523 279 581 q 214 386 214 465 q 247 247 214 307 q 333 156 279 188 q 446 125 386 125 q 560 156 507 125 q 645 245 613 186 q 678 383 678 304 q 645 521 678 463 q 560 610 613 579 q 446 640 507 640 m 471 844 q 318 898 374 844 q 263 1039 263 951 l 263 1068 l 353 1068 q 379 993 353 1018 q 471 968 406 968 q 563 993 536 968 q 589 1068 589 1018 l 681 1068 l 681 1038 q 624 897 681 950 q 471 844 568 844 z "},"Ą":{"ha":968,"x_min":47,"x_max":969,"o":"m 969 -185 l 969 -285 l 822 -285 q 695 -244 746 -285 q 644 -133 644 -203 q 674 -48 644 -82 q 757 -1 704 -14 l 688 197 l 282 197 l 213 0 l 47 0 l 393 967 l 576 967 l 922 1 l 922 -83 l 853 -83 q 794 -94 813 -83 q 775 -133 775 -104 q 794 -174 775 -162 q 853 -185 814 -185 l 969 -185 m 644 321 l 485 775 l 325 321 l 644 321 z "},"ą":{"ha":942,"x_min":51,"x_max":885,"o":"m 885 -185 l 885 -285 l 738 -285 q 610 -244 661 -285 q 560 -133 560 -203 q 592 -43 560 -79 q 678 6 624 -7 l 678 143 q 571 30 639 72 q 413 -12 503 -12 q 230 38 313 -12 q 99 180 147 89 q 51 386 51 271 q 99 590 51 501 q 230 728 147 679 q 413 778 313 778 q 572 737 503 778 q 678 629 640 696 l 678 765 l 838 765 l 838 0 l 836 0 l 836 -83 l 768 -83 q 709 -94 728 -83 q 690 -133 690 -104 q 710 -174 690 -162 q 768 -185 729 -185 l 885 -185 m 446 125 q 560 156 507 125 q 645 245 613 186 q 678 383 678 304 q 645 521 678 463 q 560 610 613 579 q 446 640 507 640 q 332 610 385 640 q 247 523 279 581 q 214 386 214 465 q 247 247 214 307 q 333 156 279 188 q 446 125 386 125 z "},"Ć":{"ha":1074,"x_min":51,"x_max":993,"o":"m 544 978 q 819 902 699 978 q 993 688 939 826 l 803 688 q 699 797 765 760 q 544 833 632 833 q 374 790 449 833 q 256 668 299 747 q 214 485 214 589 q 256 301 214 381 q 374 178 299 221 q 544 135 449 135 q 699 172 632 135 q 803 281 765 208 l 993 281 q 819 67 939 142 q 544 -8 699 -8 q 296 55 408 -8 q 117 231 183 118 q 51 485 51 343 q 117 739 51 626 q 297 915 183 851 q 544 978 410 978 m 679 1172 l 372 1021 l 372 1138 l 679 1307 l 679 1172 z "},"ć":{"ha":833,"x_min":51,"x_max":779,"o":"m 426 778 q 656 712 565 778 q 779 524 747 646 l 608 524 q 542 613 588 581 q 426 644 496 644 q 272 576 329 644 q 214 383 214 507 q 272 190 214 260 q 426 121 329 121 q 608 242 564 121 l 779 242 q 654 56 746 125 q 426 -12 563 -12 q 232 37 317 -12 q 99 176 147 86 q 51 383 51 265 q 99 591 51 501 q 232 729 147 681 q 426 778 317 778 m 560 971 l 253 819 l 253 936 l 560 1106 l 560 971 z "},"Č":{"ha":1074,"x_min":51,"x_max":993,"o":"m 544 978 q 819 902 699 978 q 993 688 939 826 l 803 688 q 699 797 765 760 q 544 833 632 833 q 374 790 449 833 q 256 668 299 747 q 214 485 214 589 q 256 301 214 381 q 374 178 299 221 q 544 135 449 135 q 699 172 632 135 q 803 281 765 208 l 993 281 q 819 67 939 142 q 544 -8 699 -8 q 296 55 408 -8 q 117 231 183 118 q 51 485 51 343 q 117 739 51 626 q 297 915 183 851 q 544 978 410 978 m 735 1144 l 536 1029 l 338 1144 l 338 1268 l 536 1149 l 735 1268 l 735 1144 z "},"č":{"ha":833,"x_min":51,"x_max":779,"o":"m 426 778 q 656 712 565 778 q 779 524 747 646 l 608 524 q 542 613 588 581 q 426 644 496 644 q 272 576 329 644 q 214 383 214 507 q 272 190 214 260 q 426 121 329 121 q 608 242 564 121 l 779 242 q 654 56 746 125 q 426 -12 563 -12 q 232 37 317 -12 q 99 176 147 86 q 51 383 51 265 q 99 591 51 501 q 232 729 147 681 q 426 778 317 778 m 615 943 l 417 828 l 218 943 l 218 1067 l 417 947 l 615 1067 l 615 943 z "},"Ď":{"ha":985,"x_min":104,"x_max":932,"o":"m 932 479 q 869 224 932 332 q 690 58 806 115 q 419 0 574 0 l 104 0 l 104 965 l 419 965 q 690 906 574 965 q 869 737 806 847 q 932 479 932 626 m 419 121 q 678 217 588 121 q 769 479 769 313 q 678 742 769 647 q 419 838 588 838 l 263 838 l 263 121 l 419 121 m 692 1144 l 493 1029 l 294 1144 l 294 1268 l 493 1149 l 692 1268 l 692 1144 z "},"ď":{"ha":1085,"x_min":51,"x_max":1071,"o":"m 413 778 q 572 737 503 778 q 678 629 640 696 l 678 1028 l 838 1028 l 838 0 l 678 0 l 678 143 q 571 30 639 72 q 413 -12 503 -12 q 230 38 313 -12 q 99 180 147 89 q 51 386 51 271 q 99 590 51 501 q 230 728 147 679 q 413 778 313 778 m 1051 1028 q 1071 889 1071 947 q 914 717 1071 717 l 914 786 q 982 864 982 786 l 982 893 l 908 893 l 908 1028 l 1051 1028 m 446 640 q 332 610 385 640 q 247 523 279 581 q 214 386 214 465 q 247 247 214 307 q 333 156 279 188 q 446 125 386 125 q 560 156 507 125 q 645 245 613 186 q 678 383 678 304 q 645 521 678 463 q 560 610 613 579 q 446 640 507 640 z "},"Đ":{"ha":1000,"x_min":13,"x_max":947,"o":"m 436 965 q 706 906 590 965 q 884 737 821 847 q 947 479 947 626 q 884 224 947 332 q 706 58 821 115 q 436 0 590 0 l 119 0 l 119 407 l 13 407 l 13 553 l 119 553 l 119 965 l 436 965 m 436 121 q 694 217 604 121 q 785 479 785 313 q 694 742 785 647 q 436 838 604 838 l 279 838 l 279 553 l 526 553 l 526 407 l 279 407 l 279 121 l 436 121 z "},"đ":{"ha":942,"x_min":51,"x_max":919,"o":"m 919 819 l 838 819 l 838 0 l 678 0 l 678 143 q 571 30 639 72 q 413 -12 503 -12 q 230 38 313 -12 q 99 180 147 89 q 51 386 51 271 q 99 590 51 501 q 230 728 147 679 q 413 778 313 778 q 572 737 503 778 q 678 629 640 696 l 678 819 l 564 819 l 564 911 l 678 911 l 678 1028 l 838 1028 l 838 911 l 919 911 l 919 819 m 446 125 q 560 156 507 125 q 645 245 613 186 q 678 383 678 304 q 645 521 678 463 q 560 610 613 579 q 446 640 507 640 q 332 610 385 640 q 247 523 279 581 q 214 386 214 465 q 247 247 214 307 q 333 156 279 188 q 446 125 386 125 z "},"Ē":{"ha":728,"x_min":104,"x_max":638,"o":"m 263 843 l 263 550 l 596 550 l 596 428 l 263 428 l 263 124 l 638 124 l 638 0 l 104 0 l 104 967 l 638 967 l 638 843 l 263 843 m 618 1201 l 618 1083 l 110 1083 l 110 1201 l 618 1201 z "},"ē":{"ha":857,"x_min":51,"x_max":806,"o":"m 806 404 q 800 329 806 364 l 214 329 q 278 177 219 233 q 426 121 338 121 q 608 228 556 121 l 779 228 q 653 55 744 122 q 426 -12 561 -12 q 232 37 317 -12 q 99 176 147 86 q 51 383 51 265 q 99 591 51 501 q 234 729 147 681 q 433 778 321 778 q 626 731 542 778 q 758 599 711 683 q 806 404 806 514 m 640 438 q 578 588 639 532 q 426 644 517 644 q 283 588 342 644 q 215 438 224 532 l 640 438 m 683 1000 l 683 882 l 175 882 l 175 1000 l 683 1000 z "},"Ė":{"ha":728,"x_min":104,"x_max":638,"o":"m 263 843 l 263 550 l 596 550 l 596 428 l 263 428 l 263 124 l 638 124 l 638 0 l 104 0 l 104 967 l 638 967 l 638 843 l 263 843 m 281 1146 q 305 1205 281 1181 q 364 1229 329 1229 q 423 1205 399 1229 q 447 1146 447 1181 q 423 1087 447 1111 q 364 1063 399 1063 q 305 1087 329 1063 q 281 1146 281 1111 z "},"ė":{"ha":857,"x_min":51,"x_max":806,"o":"m 806 404 q 800 329 806 364 l 214 329 q 278 177 219 233 q 426 121 338 121 q 608 228 556 121 l 779 228 q 653 55 744 122 q 426 -12 561 -12 q 232 37 317 -12 q 99 176 147 86 q 51 383 51 265 q 99 591 51 501 q 234 729 147 681 q 433 778 321 778 q 626 731 542 778 q 758 599 711 683 q 806 404 806 514 m 640 438 q 578 588 639 532 q 426 644 517 644 q 283 588 342 644 q 215 438 224 532 l 640 438 m 346 944 q 370 1003 346 979 q 429 1028 394 1028 q 488 1003 464 1028 q 513 944 513 979 q 488 885 513 910 q 429 861 464 861 q 370 885 394 861 q 346 944 346 910 z "},"Ę":{"ha":728,"x_min":104,"x_max":685,"o":"m 685 -185 l 685 -285 l 538 -285 q 410 -244 461 -285 q 360 -133 360 -203 q 386 -50 360 -83 q 460 0 413 -17 l 104 0 l 104 967 l 638 967 l 638 843 l 263 843 l 263 550 l 596 550 l 596 428 l 263 428 l 263 124 l 638 124 l 638 0 l 636 0 l 636 -83 l 568 -83 q 509 -94 528 -83 q 490 -133 490 -104 q 510 -174 490 -162 q 568 -185 529 -185 l 685 -185 z "},"ę":{"ha":857,"x_min":51,"x_max":806,"o":"m 806 404 q 800 329 806 364 l 214 329 q 278 177 219 233 q 426 121 338 121 q 608 228 556 121 l 779 228 q 700 96 754 151 q 575 14 646 40 q 531 -9 544 3 q 517 -42 517 -21 q 536 -82 517 -71 q 594 -93 556 -93 l 711 -93 l 711 -193 l 564 -193 q 437 -152 488 -193 q 386 -42 386 -111 q 390 -11 386 -24 q 214 48 290 -3 q 94 185 138 99 q 51 383 51 272 q 99 591 51 501 q 234 729 147 681 q 433 778 321 778 q 626 731 542 778 q 758 599 711 683 q 806 404 806 514 m 640 438 q 578 588 639 532 q 426 644 517 644 q 283 588 342 644 q 215 438 224 532 l 640 438 z "},"Ě":{"ha":728,"x_min":104,"x_max":638,"o":"m 263 843 l 263 550 l 596 550 l 596 428 l 263 428 l 263 124 l 638 124 l 638 0 l 104 0 l 104 967 l 638 967 l 638 843 l 263 843 m 563 1144 l 364 1029 l 165 1144 l 165 1268 l 364 1149 l 563 1268 l 563 1144 z "},"ě":{"ha":857,"x_min":51,"x_max":806,"o":"m 806 404 q 800 329 806 364 l 214 329 q 278 177 219 233 q 426 121 338 121 q 608 228 556 121 l 779 228 q 653 55 744 122 q 426 -12 561 -12 q 232 37 317 -12 q 99 176 147 86 q 51 383 51 265 q 99 591 51 501 q 234 729 147 681 q 433 778 321 778 q 626 731 542 778 q 758 599 711 683 q 806 404 806 514 m 640 438 q 578 588 639 532 q 426 644 517 644 q 283 588 342 644 q 215 438 224 532 l 640 438 m 626 943 l 428 828 l 229 943 l 229 1067 l 428 947 l 626 1067 l 626 943 z "},"Ğ":{"ha":1074,"x_min":51,"x_max":1022,"o":"m 544 978 q 819 902 699 978 q 993 688 939 826 l 803 688 q 699 797 765 760 q 544 833 632 833 q 374 790 449 833 q 256 668 299 747 q 214 485 214 589 q 256 301 214 381 q 374 178 299 221 q 544 135 449 135 q 755 208 674 135 q 853 406 836 281 l 490 406 l 490 529 l 1022 529 l 1022 406 q 942 199 1007 293 q 774 48 878 104 q 544 -8 671 -8 q 296 55 408 -8 q 117 231 183 118 q 51 485 51 343 q 117 739 51 626 q 297 915 183 851 q 544 978 410 978 m 536 1046 q 383 1099 439 1046 q 328 1240 328 1153 l 328 1269 l 418 1269 q 444 1194 418 1219 q 536 1169 471 1169 q 628 1194 601 1169 q 654 1269 654 1219 l 746 1269 l 746 1239 q 690 1099 746 1151 q 536 1046 633 1046 z "},"ğ":{"ha":942,"x_min":51,"x_max":838,"o":"m 413 778 q 572 737 503 778 q 678 629 640 696 l 678 765 l 838 765 l 838 -12 q 793 -201 838 -118 q 665 -331 749 -283 q 464 -378 581 -378 q 206 -305 308 -378 q 89 -107 103 -232 l 246 -107 q 323 -203 264 -167 q 464 -240 382 -240 q 619 -182 560 -240 q 678 -12 678 -124 l 678 143 q 571 30 639 72 q 413 -12 503 -12 q 230 38 313 -12 q 99 180 147 89 q 51 386 51 271 q 99 590 51 501 q 230 728 147 679 q 413 778 313 778 m 446 640 q 332 610 385 640 q 247 523 279 581 q 214 386 214 465 q 247 247 214 307 q 333 156 279 188 q 446 125 386 125 q 560 156 507 125 q 645 245 613 186 q 678 383 678 304 q 645 521 678 463 q 560 610 613 579 q 446 640 507 640 m 471 844 q 318 898 374 844 q 263 1039 263 951 l 263 1068 l 353 1068 q 379 993 353 1018 q 471 968 406 968 q 563 993 536 968 q 589 1068 589 1018 l 681 1068 l 681 1038 q 624 897 681 950 q 471 844 568 844 z "},"Ģ":{"ha":1074,"x_min":51,"x_max":1022,"o":"m 544 978 q 819 902 699 978 q 993 688 939 826 l 803 688 q 699 797 765 760 q 544 833 632 833 q 374 790 449 833 q 256 668 299 747 q 214 485 214 589 q 256 301 214 381 q 374 178 299 221 q 544 135 449 135 q 755 208 674 135 q 853 406 836 281 l 490 406 l 490 529 l 1022 529 l 1022 406 q 942 199 1007 293 q 774 48 878 104 q 544 -8 671 -8 q 296 55 408 -8 q 117 231 183 118 q 51 485 51 343 q 117 739 51 626 q 297 915 183 851 q 544 978 410 978 m 604 -64 q 624 -201 624 -144 q 584 -331 624 -287 q 467 -375 544 -375 l 467 -306 q 518 -286 501 -306 q 535 -226 535 -267 l 535 -197 l 461 -197 l 461 -64 l 604 -64 z "},"ģ":{"ha":942,"x_min":51,"x_max":838,"o":"m 403 829 q 385 967 385 903 q 540 1140 385 1140 l 540 1071 q 474 993 474 1071 l 474 964 l 546 964 l 546 829 l 403 829 m 413 778 q 572 737 503 778 q 678 629 640 696 l 678 765 l 838 765 l 838 -12 q 793 -201 838 -118 q 665 -331 749 -283 q 464 -378 581 -378 q 206 -305 308 -378 q 89 -107 103 -232 l 246 -107 q 323 -203 264 -167 q 464 -240 382 -240 q 619 -182 560 -240 q 678 -12 678 -124 l 678 143 q 571 30 639 72 q 413 -12 503 -12 q 230 38 313 -12 q 99 180 147 89 q 51 386 51 271 q 99 590 51 501 q 230 728 147 679 q 413 778 313 778 m 446 640 q 332 610 385 640 q 247 523 279 581 q 214 386 214 465 q 247 247 214 307 q 333 156 279 188 q 446 125 386 125 q 560 156 507 125 q 645 245 613 186 q 678 383 678 304 q 645 521 678 463 q 560 610 613 579 q 446 640 507 640 z "},"Ī":{"ha":367,"x_min":-71,"x_max":438,"o":"m 263 965 l 263 0 l 104 0 l 104 965 l 263 965 m 438 1201 l 438 1083 l -71 1083 l -71 1201 l 438 1201 z "},"ī":{"ha":367,"x_min":-71,"x_max":438,"o":"m 263 765 l 263 0 l 104 0 l 104 765 l 263 765 m 438 1000 l 438 882 l -71 882 l -71 1000 l 438 1000 z "},"Į":{"ha":367,"x_min":-14,"x_max":311,"o":"m 311 -183 l 311 -283 l 164 -283 q 37 -242 88 -283 q -14 -132 -14 -201 q 18 -42 -14 -78 q 104 7 50 -6 l 104 965 l 263 965 l 263 -82 l 194 -82 q 135 -92 154 -82 q 117 -132 117 -103 q 136 -172 117 -161 q 194 -183 156 -183 l 311 -183 z "},"į":{"ha":367,"x_min":-14,"x_max":311,"o":"m 185 867 q 113 896 142 867 q 83 968 83 925 q 113 1040 83 1011 q 185 1069 142 1069 q 256 1040 226 1069 q 285 968 285 1011 q 256 896 285 925 q 185 867 226 867 m 311 -183 l 311 -283 l 164 -283 q 37 -242 88 -283 q -14 -132 -14 -201 q 18 -42 -14 -78 q 104 7 50 -6 l 104 765 l 263 765 l 263 -82 l 194 -82 q 135 -92 154 -82 q 117 -132 117 -103 q 136 -172 117 -161 q 194 -183 156 -183 l 311 -183 z "},"İ":{"ha":367,"x_min":100,"x_max":267,"o":"m 263 965 l 263 0 l 104 0 l 104 965 l 263 965 m 100 1146 q 124 1205 100 1181 q 183 1229 149 1229 q 242 1205 218 1229 q 267 1146 267 1181 q 242 1087 267 1111 q 183 1063 218 1063 q 124 1087 149 1063 q 100 1146 100 1111 z "},"ı":{"ha":367,"x_min":104,"x_max":263,"o":"m 263 765 l 263 0 l 104 0 l 104 765 l 263 765 z "},"Ķ":{"ha":879,"x_min":104,"x_max":844,"o":"m 408 481 l 844 0 l 636 0 l 263 432 l 263 0 l 104 0 l 104 965 l 263 965 l 263 525 l 638 965 l 844 965 l 408 481 m 507 -64 q 526 -201 526 -136 q 371 -375 526 -375 l 371 -306 q 438 -226 438 -306 l 438 -197 l 364 -197 l 364 -64 l 507 -64 z "},"ķ":{"ha":769,"x_min":104,"x_max":760,"o":"m 407 382 l 760 0 l 546 0 l 263 329 l 263 0 l 104 0 l 104 1028 l 263 1028 l 263 431 l 540 765 l 760 765 l 407 382 m 453 -64 q 471 -201 471 -137 q 315 -375 471 -375 l 315 -306 q 383 -226 383 -306 l 383 -197 l 310 -197 l 310 -64 l 453 -64 z "},"Ĺ":{"ha":617,"x_min":104,"x_max":589,"o":"m 263 121 l 589 121 l 589 0 l 104 0 l 104 965 l 263 965 l 263 121 m 451 1172 l 144 1021 l 144 1138 l 451 1307 l 451 1172 z "},"ĺ":{"ha":367,"x_min":19,"x_max":326,"o":"m 263 1028 l 263 0 l 104 0 l 104 1028 l 263 1028 m 326 1233 l 19 1082 l 19 1199 l 326 1368 l 326 1233 z "},"Ļ":{"ha":617,"x_min":104,"x_max":589,"o":"m 263 121 l 589 121 l 589 0 l 104 0 l 104 965 l 263 965 l 263 121 m 411 -64 q 431 -201 431 -136 q 274 -375 431 -375 l 274 -306 q 325 -286 308 -306 q 342 -226 342 -267 l 342 -197 l 268 -197 l 268 -64 l 411 -64 z "},"ļ":{"ha":367,"x_min":104,"x_max":271,"o":"m 263 1028 l 263 0 l 104 0 l 104 1028 l 263 1028 m 251 -64 q 271 -201 271 -144 q 231 -331 271 -287 q 114 -375 192 -375 l 114 -306 q 165 -286 149 -306 q 182 -226 182 -267 l 182 -197 l 108 -197 l 108 -64 l 251 -64 z "},"Ľ":{"ha":643,"x_min":104,"x_max":589,"o":"m 263 121 l 589 121 l 589 0 l 104 0 l 104 965 l 263 965 l 263 121 m 556 965 q 575 828 575 893 q 419 654 575 654 l 419 724 q 486 803 486 724 l 486 832 l 413 832 l 413 965 l 556 965 z "},"ľ":{"ha":593,"x_min":104,"x_max":533,"o":"m 263 1028 l 263 0 l 104 0 l 104 1028 l 263 1028 m 514 1028 q 533 889 533 956 q 378 717 533 717 l 378 786 q 444 864 444 786 l 444 893 l 371 893 l 371 1028 l 514 1028 z "},"Ł":{"ha":617,"x_min":13,"x_max":604,"o":"m 604 121 l 604 0 l 119 0 l 119 400 l 13 365 l 13 511 l 119 546 l 119 965 l 279 965 l 279 599 l 407 640 l 407 493 l 279 451 l 279 121 l 604 121 z "},"ł":{"ha":367,"x_min":13,"x_max":356,"o":"m 356 478 l 263 446 l 263 0 l 104 0 l 104 392 l 13 360 l 13 507 l 104 538 l 104 1028 l 263 1028 l 263 592 l 356 624 l 356 478 z "},"Ń":{"ha":1001,"x_min":104,"x_max":897,"o":"m 897 0 l 739 0 l 263 721 l 263 0 l 104 0 l 104 967 l 263 967 l 739 247 l 739 967 l 897 967 l 897 0 m 644 1172 l 338 1021 l 338 1138 l 644 1307 l 644 1172 z "},"ń":{"ha":901,"x_min":104,"x_max":804,"o":"m 507 778 q 658 740 590 778 q 765 629 725 703 q 804 451 804 556 l 804 0 l 647 0 l 647 428 q 596 585 647 531 q 456 640 544 640 q 315 585 367 640 q 263 428 263 531 l 263 0 l 104 0 l 104 765 l 263 765 l 263 644 q 363 744 300 710 q 507 778 426 778 m 608 971 l 301 819 l 301 936 l 608 1106 l 608 971 z "},"Ņ":{"ha":1001,"x_min":104,"x_max":897,"o":"m 897 0 l 739 0 l 263 721 l 263 0 l 104 0 l 104 967 l 263 967 l 739 247 l 739 967 l 897 967 l 897 0 m 568 -64 q 588 -201 588 -136 q 432 -375 588 -375 l 432 -306 q 499 -226 499 -306 l 499 -197 l 425 -197 l 425 -64 l 568 -64 z "},"ņ":{"ha":901,"x_min":104,"x_max":804,"o":"m 507 778 q 658 740 590 778 q 765 629 725 703 q 804 451 804 556 l 804 0 l 647 0 l 647 428 q 596 585 647 531 q 456 640 544 640 q 315 585 367 640 q 263 428 263 531 l 263 0 l 104 0 l 104 765 l 263 765 l 263 644 q 363 744 300 710 q 507 778 426 778 m 518 -64 q 538 -201 538 -136 q 382 -375 538 -375 l 382 -306 q 449 -226 449 -306 l 449 -197 l 375 -197 l 375 -64 l 518 -64 z "},"Ň":{"ha":1001,"x_min":104,"x_max":897,"o":"m 897 0 l 739 0 l 263 721 l 263 0 l 104 0 l 104 967 l 263 967 l 739 247 l 739 967 l 897 967 l 897 0 m 700 1144 l 501 1029 l 303 1144 l 303 1268 l 501 1149 l 700 1268 l 700 1144 z "},"ň":{"ha":901,"x_min":104,"x_max":804,"o":"m 507 778 q 658 740 590 778 q 765 629 725 703 q 804 451 804 556 l 804 0 l 647 0 l 647 428 q 596 585 647 531 q 456 640 544 640 q 315 585 367 640 q 263 428 263 531 l 263 0 l 104 0 l 104 765 l 263 765 l 263 644 q 363 744 300 710 q 507 778 426 778 m 664 943 l 465 828 l 267 943 l 267 1067 l 465 947 l 664 1067 l 664 943 z "},"Ō":{"ha":1089,"x_min":51,"x_max":1038,"o":"m 544 978 q 794 915 681 978 q 972 739 907 851 q 1038 485 1038 626 q 972 230 1038 343 q 794 53 907 117 q 544 -10 681 -10 q 297 53 410 -10 q 117 230 183 117 q 51 485 51 343 q 117 739 51 626 q 297 915 183 851 q 544 978 410 978 m 544 833 q 374 790 449 833 q 256 668 299 747 q 214 485 214 589 q 256 301 214 381 q 374 177 299 221 q 544 133 449 133 q 715 177 640 133 q 833 301 790 221 q 875 485 875 381 q 833 668 875 589 q 715 790 790 747 q 544 833 640 833 m 799 1201 l 799 1083 l 290 1083 l 290 1201 l 799 1201 z "},"ō":{"ha":886,"x_min":53,"x_max":833,"o":"m 443 778 q 642 729 553 778 q 782 590 731 681 q 833 383 833 500 q 781 176 833 267 q 637 37 728 86 q 436 -12 546 -12 q 240 37 328 -12 q 103 176 153 86 q 53 383 53 265 q 104 590 53 500 q 244 729 156 681 q 443 778 333 778 m 440 644 q 328 615 379 644 q 245 526 276 585 q 214 383 214 467 q 244 240 214 300 q 324 151 274 181 q 436 121 375 121 q 551 151 497 121 q 638 241 604 182 q 671 383 671 300 q 639 526 671 467 q 554 615 607 585 q 440 644 501 644 m 697 1000 l 697 882 l 189 882 l 189 1000 l 697 1000 z "},"Ő":{"ha":1089,"x_min":51,"x_max":1038,"o":"m 544 978 q 794 915 681 978 q 972 739 907 851 q 1038 485 1038 626 q 972 230 1038 343 q 794 53 907 117 q 544 -10 681 -10 q 297 53 410 -10 q 117 230 183 117 q 51 485 51 343 q 117 739 51 626 q 297 915 183 851 q 544 978 410 978 m 544 833 q 374 790 449 833 q 256 668 299 747 q 214 485 214 589 q 256 301 214 381 q 374 177 299 221 q 544 133 449 133 q 715 177 640 133 q 833 301 790 221 q 875 485 875 381 q 833 668 875 589 q 715 790 790 747 q 544 833 640 833 m 469 1036 l 367 1036 l 463 1272 l 600 1272 l 469 1036 m 696 1036 l 593 1036 l 710 1272 l 846 1272 l 696 1036 z "},"ő":{"ha":886,"x_min":53,"x_max":833,"o":"m 443 778 q 642 729 553 778 q 782 590 731 681 q 833 383 833 500 q 781 176 833 267 q 637 37 728 86 q 436 -12 546 -12 q 240 37 328 -12 q 103 176 153 86 q 53 383 53 265 q 104 590 53 500 q 244 729 156 681 q 443 778 333 778 m 440 644 q 328 615 379 644 q 245 526 276 585 q 214 383 214 467 q 244 240 214 300 q 324 151 274 181 q 436 121 375 121 q 551 151 497 121 q 638 241 604 182 q 671 383 671 300 q 639 526 671 467 q 554 615 607 585 q 440 644 501 644 m 368 835 l 265 835 l 361 1071 l 499 1071 l 368 835 m 594 835 l 492 835 l 608 1071 l 744 1071 l 594 835 z "},"Œ":{"ha":1499,"x_min":51,"x_max":1408,"o":"m 1033 549 l 1367 549 l 1367 426 l 1033 426 l 1033 124 l 1408 124 l 1408 0 l 875 0 l 875 154 q 730 32 815 74 q 544 -10 644 -10 q 297 53 410 -10 q 117 230 183 117 q 51 485 51 343 q 117 740 51 628 q 297 915 183 853 q 544 978 410 978 q 731 936 646 978 q 875 813 815 894 l 875 965 l 1408 965 l 1408 842 l 1033 842 l 1033 549 m 544 133 q 715 177 640 133 q 833 301 790 221 q 875 485 875 381 q 833 668 875 589 q 715 790 790 747 q 544 833 640 833 q 374 790 449 833 q 256 668 299 747 q 214 485 214 589 q 256 301 214 381 q 374 177 299 221 q 544 133 449 133 z "},"œ":{"ha":1475,"x_min":51,"x_max":1424,"o":"m 1424 404 q 1418 329 1424 364 l 833 329 q 897 177 839 233 q 1044 121 956 121 q 1226 228 1174 121 l 1397 228 q 1271 55 1363 122 q 1044 -12 1179 -12 q 872 29 949 -12 q 747 149 796 71 q 614 30 696 72 q 436 -12 532 -12 q 239 37 326 -12 q 101 176 151 86 q 51 383 51 265 q 103 590 51 500 q 244 729 156 681 q 443 778 333 778 q 617 736 538 778 q 749 619 697 694 q 875 736 797 694 q 1051 778 953 778 q 1244 731 1160 778 q 1376 599 1329 683 q 1424 404 1424 514 m 436 121 q 551 151 497 121 q 637 241 604 182 q 669 383 669 300 q 638 526 669 467 q 553 615 606 585 q 439 644 500 644 q 326 615 378 644 q 244 526 275 585 q 214 383 214 467 q 244 240 214 300 q 324 151 274 181 q 436 121 375 121 m 1258 438 q 1196 588 1257 532 q 1044 644 1135 644 q 901 589 960 644 q 835 438 843 533 l 1258 438 z "},"Ŕ":{"ha":878,"x_min":104,"x_max":794,"o":"m 601 0 l 360 392 l 263 392 l 263 0 l 104 0 l 104 965 l 438 965 q 626 927 549 965 q 741 824 703 889 q 779 678 779 758 q 720 503 779 581 q 539 401 661 425 l 794 0 l 601 0 m 263 515 l 438 515 q 572 558 528 515 q 617 678 617 601 q 572 799 617 756 q 438 842 528 842 l 263 842 l 263 515 m 582 1172 l 275 1021 l 275 1138 l 582 1307 l 582 1172 z "},"ŕ":{"ha":533,"x_min":104,"x_max":492,"o":"m 263 632 q 355 740 297 701 q 492 778 413 778 l 492 614 l 451 614 q 310 567 358 614 q 263 403 263 519 l 263 0 l 104 0 l 104 765 l 263 765 l 263 632 m 478 971 l 171 819 l 171 936 l 478 1106 l 478 971 z "},"Ŗ":{"ha":878,"x_min":104,"x_max":794,"o":"m 794 0 l 601 0 l 360 392 l 263 392 l 263 0 l 104 0 l 104 965 l 438 965 q 626 927 549 965 q 741 824 703 889 q 779 678 779 758 q 720 503 779 581 q 539 401 661 425 l 794 0 m 263 515 l 438 515 q 572 558 528 515 q 617 678 617 601 q 572 799 617 756 q 438 842 528 842 l 263 842 l 263 515 m 507 -64 q 525 -201 525 -137 q 369 -375 525 -375 l 369 -306 q 436 -226 436 -306 l 436 -197 l 364 -197 l 364 -64 l 507 -64 z "},"ŗ":{"ha":533,"x_min":104,"x_max":492,"o":"m 263 632 q 355 740 297 701 q 492 778 413 778 l 492 614 l 451 614 q 310 567 358 614 q 263 403 263 519 l 263 0 l 104 0 l 104 765 l 263 765 l 263 632 m 250 -64 q 269 -201 269 -136 q 114 -375 269 -375 l 114 -306 q 181 -226 181 -306 l 181 -197 l 107 -197 l 107 -64 l 250 -64 z "},"Ř":{"ha":878,"x_min":104,"x_max":794,"o":"m 601 0 l 360 392 l 263 392 l 263 0 l 104 0 l 104 965 l 438 965 q 626 927 549 965 q 741 824 703 889 q 779 678 779 758 q 720 503 779 581 q 539 401 661 425 l 794 0 l 601 0 m 263 515 l 438 515 q 572 558 528 515 q 617 678 617 601 q 572 799 617 756 q 438 842 528 842 l 263 842 l 263 515 m 638 1144 l 439 1029 l 240 1144 l 240 1268 l 439 1149 l 638 1268 l 638 1144 z "},"ř":{"ha":533,"x_min":104,"x_max":533,"o":"m 263 632 q 355 740 297 701 q 492 778 413 778 l 492 614 l 451 614 q 310 567 358 614 q 263 403 263 519 l 263 0 l 104 0 l 104 765 l 263 765 l 263 632 m 533 943 l 335 828 l 136 943 l 136 1067 l 335 947 l 533 1067 l 533 943 z "},"Ś":{"ha":839,"x_min":83,"x_max":756,"o":"m 756 275 q 716 136 756 201 q 600 31 676 71 q 421 -10 524 -10 q 178 61 272 -10 q 83 257 83 132 l 253 257 q 300 156 258 193 q 421 118 342 118 q 549 160 503 118 q 596 267 596 201 q 567 348 596 318 q 496 394 539 378 q 378 428 453 410 q 225 474 283 450 q 125 552 167 499 q 83 697 83 606 q 125 844 83 781 q 242 943 167 908 q 414 978 317 978 q 642 911 556 978 q 739 718 729 844 l 564 718 q 517 811 558 774 q 406 849 475 849 q 289 813 333 849 q 244 706 244 776 q 273 623 244 654 q 344 576 301 592 q 464 542 388 560 q 615 495 557 519 q 715 419 674 471 q 756 275 756 367 m 563 1172 l 256 1021 l 256 1138 l 563 1307 l 563 1172 z "},"ś":{"ha":742,"x_min":68,"x_max":672,"o":"m 372 778 q 578 712 500 778 q 663 532 657 646 l 500 532 q 460 621 496 589 q 361 653 425 653 q 261 624 297 653 q 225 551 225 596 q 249 493 225 515 q 309 459 272 471 q 408 433 346 447 q 545 394 493 414 q 635 331 597 375 q 672 213 672 288 q 634 96 672 147 q 528 16 596 44 q 374 -12 460 -12 q 158 51 240 -12 q 68 233 76 115 l 232 233 q 274 144 236 176 q 374 113 311 113 q 478 141 440 113 q 517 215 517 169 q 492 275 517 253 q 431 309 468 297 q 329 335 393 321 q 194 373 246 354 q 106 433 143 392 q 69 546 69 475 q 106 663 69 610 q 210 747 142 715 q 372 778 279 778 m 514 971 l 207 819 l 207 936 l 514 1106 l 514 971 z "},"Ş":{"ha":839,"x_min":83,"x_max":756,"o":"m 756 275 q 723 148 756 208 q 627 46 690 88 q 478 -7 564 4 l 478 -67 q 608 -105 558 -67 q 658 -212 658 -143 q 608 -323 658 -282 q 482 -364 558 -364 l 299 -364 l 299 -264 l 450 -264 q 508 -253 489 -264 q 528 -212 528 -242 q 508 -172 528 -183 q 450 -161 489 -161 l 374 -161 l 374 -8 q 163 73 243 4 q 83 257 83 142 l 253 257 q 300 156 258 193 q 421 118 342 118 q 549 160 503 118 q 596 267 596 201 q 567 348 596 318 q 496 394 539 378 q 378 428 453 410 q 225 474 283 450 q 125 552 167 499 q 83 697 83 606 q 125 844 83 781 q 242 943 167 908 q 414 978 317 978 q 642 911 556 978 q 739 718 729 844 l 564 718 q 517 811 558 774 q 406 849 475 849 q 289 813 333 849 q 244 706 244 776 q 273 623 244 654 q 344 576 301 592 q 464 542 388 560 q 615 495 557 519 q 715 419 674 471 q 756 275 756 367 z "},"ş":{"ha":742,"x_min":68,"x_max":672,"o":"m 672 213 q 606 65 672 125 q 429 -10 539 4 l 429 -67 q 560 -105 510 -67 q 610 -212 610 -143 q 560 -323 610 -282 q 433 -364 510 -364 l 250 -364 l 250 -264 l 401 -264 q 460 -253 440 -264 q 479 -212 479 -242 q 460 -172 479 -183 q 401 -161 440 -161 l 325 -161 l 325 -10 q 143 64 211 1 q 68 233 75 126 l 232 233 q 274 144 236 176 q 374 113 311 113 q 478 141 440 113 q 517 215 517 169 q 492 275 517 253 q 431 309 468 297 q 329 335 393 321 q 194 373 246 354 q 106 433 143 392 q 69 546 69 475 q 106 663 69 610 q 210 747 142 715 q 372 778 279 778 q 578 712 500 778 q 663 532 657 646 l 500 532 q 460 621 496 589 q 361 653 425 653 q 261 624 297 653 q 225 551 225 596 q 249 493 225 515 q 309 459 272 471 q 408 433 346 447 q 545 394 493 414 q 635 331 597 375 q 672 213 672 288 z "},"Š":{"ha":839,"x_min":83,"x_max":756,"o":"m 756 275 q 716 136 756 201 q 600 31 676 71 q 421 -10 524 -10 q 178 61 272 -10 q 83 257 83 132 l 253 257 q 300 156 258 193 q 421 118 342 118 q 549 160 503 118 q 596 267 596 201 q 567 348 596 318 q 496 394 539 378 q 378 428 453 410 q 225 474 283 450 q 125 552 167 499 q 83 697 83 606 q 125 844 83 781 q 242 943 167 908 q 414 978 317 978 q 642 911 556 978 q 739 718 729 844 l 564 718 q 517 811 558 774 q 406 849 475 849 q 289 813 333 849 q 244 706 244 776 q 273 623 244 654 q 344 576 301 592 q 464 542 388 560 q 615 495 557 519 q 715 419 674 471 q 756 275 756 367 m 618 1144 l 419 1029 l 221 1144 l 221 1268 l 419 1149 l 618 1268 l 618 1144 z "},"š":{"ha":742,"x_min":68,"x_max":672,"o":"m 372 778 q 578 712 500 778 q 663 532 657 646 l 500 532 q 460 621 496 589 q 361 653 425 653 q 261 624 297 653 q 225 551 225 596 q 249 493 225 515 q 309 459 272 471 q 408 433 346 447 q 545 394 493 414 q 635 331 597 375 q 672 213 672 288 q 634 96 672 147 q 528 16 596 44 q 374 -12 460 -12 q 158 51 240 -12 q 68 233 76 115 l 232 233 q 274 144 236 176 q 374 113 311 113 q 478 141 440 113 q 517 215 517 169 q 492 275 517 253 q 431 309 468 297 q 329 335 393 321 q 194 373 246 354 q 106 433 143 392 q 69 546 69 475 q 106 663 69 610 q 210 747 142 715 q 372 778 279 778 m 569 943 l 371 828 l 172 943 l 172 1067 l 371 947 l 569 1067 l 569 943 z "},"Ţ":{"ha":783,"x_min":54,"x_max":728,"o":"m 471 842 l 471 -1 q 589 -44 546 -6 q 632 -149 632 -82 q 583 -260 632 -218 q 456 -301 535 -301 l 231 -301 l 231 -201 l 431 -201 q 501 -149 501 -201 q 431 -94 501 -94 l 313 -94 l 313 842 l 54 842 l 54 965 l 728 965 l 728 842 l 471 842 z "},"ţ":{"ha":517,"x_min":39,"x_max":497,"o":"m 317 -67 q 447 -105 397 -67 q 497 -212 497 -143 q 447 -323 497 -282 q 321 -364 397 -364 l 138 -364 l 138 -264 l 289 -264 q 347 -253 328 -264 q 367 -212 367 -242 q 347 -172 367 -183 q 289 -161 328 -161 l 213 -161 l 213 31 q 129 213 129 81 l 129 636 l 39 636 l 39 765 l 129 765 l 129 956 l 289 956 l 289 765 l 475 765 l 475 636 l 289 636 l 289 213 q 309 151 289 169 q 378 132 329 132 l 475 132 l 475 0 l 350 0 q 317 1 328 0 l 317 -67 z "},"Ť":{"ha":783,"x_min":54,"x_max":728,"o":"m 728 965 l 728 842 l 471 842 l 471 0 l 313 0 l 313 842 l 54 842 l 54 965 l 728 965 m 590 1144 l 392 1029 l 193 1144 l 193 1268 l 392 1149 l 590 1268 l 590 1144 z "},"ť":{"ha":524,"x_min":39,"x_max":553,"o":"m 533 1089 q 549 1019 544 1044 q 553 964 553 993 q 396 819 553 819 l 396 889 q 447 899 431 889 q 464 933 464 910 l 464 954 l 390 954 l 390 1089 l 533 1089 m 289 765 l 475 765 l 475 636 l 289 636 l 289 213 q 309 151 289 169 q 378 132 329 132 l 475 132 l 475 0 l 350 0 q 186 50 243 0 q 129 213 129 100 l 129 636 l 39 636 l 39 765 l 129 765 l 129 956 l 289 956 l 289 765 z "},"Ū":{"ha":958,"x_min":103,"x_max":857,"o":"m 261 965 l 261 353 q 319 188 261 243 q 479 132 376 132 q 641 188 583 132 q 699 353 699 243 l 699 965 l 857 965 l 857 353 q 806 153 857 235 q 668 31 754 71 q 478 -10 582 -10 q 288 31 374 -10 q 153 153 203 71 q 103 353 103 235 l 103 965 l 261 965 m 733 1201 l 733 1083 l 225 1083 l 225 1201 l 733 1201 z "},"ū":{"ha":901,"x_min":97,"x_max":797,"o":"m 797 765 l 797 0 l 639 0 l 639 121 q 538 22 601 56 q 394 -11 475 -11 q 244 26 311 -11 q 137 137 176 64 q 97 314 97 210 l 97 765 l 254 765 l 254 338 q 306 180 254 235 q 446 125 357 125 q 587 180 535 125 q 639 338 639 235 l 639 765 l 797 765 m 706 1000 l 706 882 l 197 882 l 197 1000 l 706 1000 z "},"Ů":{"ha":958,"x_min":103,"x_max":857,"o":"m 261 965 l 261 353 q 319 188 261 243 q 479 132 376 132 q 641 188 583 132 q 699 353 699 243 l 699 965 l 857 965 l 857 353 q 806 153 857 235 q 668 31 754 71 q 478 -10 582 -10 q 288 31 374 -10 q 153 153 203 71 q 103 353 103 235 l 103 965 l 261 965 m 479 1346 q 588 1304 544 1346 q 631 1193 631 1263 q 588 1083 631 1125 q 479 1042 544 1042 q 372 1083 415 1042 q 328 1193 328 1125 q 372 1304 328 1263 q 479 1346 415 1346 m 479 1265 q 428 1246 449 1265 q 408 1194 408 1226 q 429 1144 408 1164 q 479 1124 450 1124 q 531 1144 510 1124 q 551 1194 551 1164 q 531 1246 551 1226 q 479 1265 510 1265 z "},"ů":{"ha":901,"x_min":97,"x_max":797,"o":"m 797 765 l 797 0 l 639 0 l 639 121 q 538 22 601 56 q 394 -11 475 -11 q 244 26 311 -11 q 137 137 176 64 q 97 314 97 210 l 97 765 l 254 765 l 254 338 q 306 180 254 235 q 446 125 357 125 q 587 180 535 125 q 639 338 639 235 l 639 765 l 797 765 m 451 1144 q 560 1103 517 1144 q 603 992 603 1061 q 560 882 603 924 q 451 840 517 840 q 344 882 388 840 q 300 992 300 924 q 344 1103 300 1061 q 451 1144 388 1144 m 451 1064 q 401 1044 421 1064 q 381 993 381 1025 q 401 942 381 963 q 451 922 422 922 q 503 942 482 922 q 524 993 524 963 q 503 1044 524 1025 q 451 1064 482 1064 z "},"Ű":{"ha":958,"x_min":103,"x_max":857,"o":"m 261 965 l 261 353 q 319 188 261 243 q 479 132 376 132 q 641 188 583 132 q 699 353 699 243 l 699 965 l 857 965 l 857 353 q 806 153 857 235 q 668 31 754 71 q 478 -10 582 -10 q 288 31 374 -10 q 153 153 203 71 q 103 353 103 235 l 103 965 l 261 965 m 404 1036 l 301 1036 l 397 1272 l 535 1272 l 404 1036 m 631 1036 l 528 1036 l 644 1272 l 781 1272 l 631 1036 z "},"ű":{"ha":901,"x_min":97,"x_max":797,"o":"m 797 765 l 797 0 l 639 0 l 639 121 q 538 22 601 56 q 394 -11 475 -11 q 244 26 311 -11 q 137 137 176 64 q 97 314 97 210 l 97 765 l 254 765 l 254 338 q 306 180 254 235 q 446 125 357 125 q 587 180 535 125 q 639 338 639 235 l 639 765 l 797 765 m 375 835 l 272 835 l 368 1071 l 506 1071 l 375 835 m 601 835 l 499 835 l 615 1071 l 751 1071 l 601 835 z "},"Ų":{"ha":958,"x_min":103,"x_max":857,"o":"m 261 965 l 261 353 q 319 188 261 243 q 479 132 376 132 q 641 188 583 132 q 699 353 699 243 l 699 965 l 857 965 l 857 353 q 785 122 857 207 q 611 8 713 38 q 546 -17 564 -4 q 528 -51 528 -29 q 594 -103 528 -103 l 722 -103 l 722 -201 l 575 -201 q 448 -160 499 -201 q 397 -50 397 -119 q 406 -4 397 -25 q 187 107 271 15 q 103 353 103 199 l 103 965 l 261 965 z "},"ų":{"ha":901,"x_min":97,"x_max":846,"o":"m 846 -186 l 846 -286 l 699 -286 q 572 -245 622 -286 q 521 -135 521 -204 q 553 -44 521 -81 q 639 4 585 -8 l 639 121 q 538 22 601 56 q 394 -11 475 -11 q 244 26 311 -11 q 137 137 176 64 q 97 314 97 210 l 97 765 l 254 765 l 254 338 q 306 180 254 235 q 446 125 357 125 q 587 180 535 125 q 639 338 639 235 l 639 765 l 797 765 l 797 -85 l 729 -85 q 670 -95 689 -85 q 651 -135 651 -106 q 671 -175 651 -164 q 729 -186 690 -186 l 846 -186 z "},"Ÿ":{"ha":840,"x_min":21,"x_max":819,"o":"m 819 965 l 500 350 l 500 0 l 342 0 l 342 350 l 21 965 l 197 965 l 419 494 l 642 965 l 819 965 m 218 1146 q 242 1205 218 1181 q 301 1229 267 1229 q 360 1205 336 1229 q 385 1146 385 1181 q 360 1087 385 1111 q 301 1063 336 1063 q 242 1087 267 1063 q 218 1146 218 1111 m 457 1146 q 481 1205 457 1181 q 540 1229 506 1229 q 599 1205 575 1229 q 624 1146 624 1181 q 599 1087 624 1111 q 540 1063 575 1063 q 481 1087 506 1063 q 457 1146 457 1111 z "},"Ź":{"ha":775,"x_min":69,"x_max":706,"o":"m 251 124 l 706 124 l 706 0 l 69 0 l 69 124 l 522 842 l 69 842 l 69 965 l 706 965 l 706 842 l 251 124 m 531 1172 l 224 1021 l 224 1138 l 531 1307 l 531 1172 z "},"ź":{"ha":654,"x_min":61,"x_max":592,"o":"m 244 129 l 592 129 l 592 0 l 61 0 l 61 129 l 410 636 l 61 636 l 61 765 l 592 765 l 592 636 l 244 129 m 471 971 l 164 819 l 164 936 l 471 1106 l 471 971 z "},"Ż":{"ha":775,"x_min":69,"x_max":706,"o":"m 251 124 l 706 124 l 706 0 l 69 0 l 69 124 l 522 842 l 69 842 l 69 965 l 706 965 l 706 842 l 251 124 m 304 1146 q 328 1205 304 1181 q 388 1229 353 1229 q 447 1205 422 1229 q 471 1146 471 1181 q 447 1087 471 1111 q 388 1063 422 1063 q 328 1087 353 1063 q 304 1146 304 1111 z "},"ż":{"ha":654,"x_min":61,"x_max":592,"o":"m 244 129 l 592 129 l 592 0 l 61 0 l 61 129 l 410 636 l 61 636 l 61 765 l 592 765 l 592 636 l 244 129 m 244 944 q 269 1003 244 979 q 328 1028 293 1028 q 387 1003 363 1028 q 411 944 411 979 q 387 885 411 910 q 328 861 363 861 q 269 885 293 861 q 244 944 244 910 z "},"Ž":{"ha":775,"x_min":69,"x_max":706,"o":"m 251 124 l 706 124 l 706 0 l 69 0 l 69 124 l 522 842 l 69 842 l 69 965 l 706 965 l 706 842 l 251 124 m 586 1144 l 388 1029 l 189 1144 l 189 1268 l 388 1149 l 586 1268 l 586 1144 z "},"ž":{"ha":654,"x_min":61,"x_max":592,"o":"m 244 129 l 592 129 l 592 0 l 61 0 l 61 129 l 410 636 l 61 636 l 61 765 l 592 765 l 592 636 l 244 129 m 526 943 l 328 828 l 129 943 l 129 1067 l 328 947 l 526 1067 l 526 943 z "},"ƒ":{"ha":461,"x_min":-78,"x_max":443,"o":"m 429 940 q 325 913 357 940 q 286 819 293 886 l 281 765 l 421 765 l 408 636 l 267 636 l 189 -89 q 119 -252 178 -203 q -47 -301 60 -301 l -78 -301 l -64 -171 l -42 -171 q 9 -151 -8 -171 q 31 -89 26 -132 l 107 636 l 17 636 l 29 765 l 121 765 l 126 819 q 217 1012 140 951 q 443 1072 293 1072 l 429 940 z "},"Ș":{"ha":839,"x_min":83,"x_max":756,"o":"m 756 275 q 716 136 756 201 q 600 31 676 71 q 421 -10 524 -10 q 178 61 272 -10 q 83 257 83 132 l 253 257 q 300 156 258 193 q 421 118 342 118 q 549 160 503 118 q 596 267 596 201 q 567 348 596 318 q 496 394 539 378 q 378 428 453 410 q 225 474 283 450 q 125 552 167 499 q 83 697 83 606 q 125 844 83 781 q 242 943 167 908 q 414 978 317 978 q 642 911 556 978 q 739 718 729 844 l 564 718 q 517 811 558 774 q 406 849 475 849 q 289 813 333 849 q 244 706 244 776 q 273 623 244 654 q 344 576 301 592 q 464 542 388 560 q 615 495 557 519 q 715 419 674 471 q 756 275 756 367 m 488 -64 q 507 -201 507 -136 q 350 -375 507 -375 l 350 -306 q 401 -286 385 -306 q 418 -226 418 -267 l 418 -197 l 344 -197 l 344 -64 l 488 -64 z "},"ș":{"ha":742,"x_min":68,"x_max":672,"o":"m 372 778 q 578 712 500 778 q 663 532 657 646 l 500 532 q 460 621 496 589 q 361 653 425 653 q 261 624 297 653 q 225 551 225 596 q 249 493 225 515 q 309 459 272 471 q 408 433 346 447 q 545 394 493 414 q 635 331 597 375 q 672 213 672 288 q 634 96 672 147 q 528 16 596 44 q 374 -12 460 -12 q 158 51 240 -12 q 68 233 76 115 l 232 233 q 274 144 236 176 q 374 113 311 113 q 478 141 440 113 q 517 215 517 169 q 492 275 517 253 q 431 309 468 297 q 329 335 393 321 q 194 373 246 354 q 106 433 143 392 q 69 546 69 475 q 106 663 69 610 q 210 747 142 715 q 372 778 279 778 m 439 -64 q 458 -201 458 -144 q 419 -331 458 -287 q 301 -375 379 -375 l 301 -306 q 353 -286 336 -306 q 369 -226 369 -267 l 369 -197 l 296 -197 l 296 -64 l 439 -64 z "},"Ț":{"ha":783,"x_min":54,"x_max":728,"o":"m 728 965 l 728 842 l 471 842 l 471 0 l 313 0 l 313 842 l 54 842 l 54 965 l 728 965 m 460 -64 q 478 -201 478 -137 q 322 -375 478 -375 l 322 -306 q 390 -226 390 -306 l 390 -197 l 317 -197 l 317 -64 l 460 -64 z "},"ț":{"ha":517,"x_min":39,"x_max":475,"o":"m 289 636 l 289 213 q 309 151 289 169 q 378 132 329 132 l 475 132 l 475 0 l 350 0 q 186 50 243 0 q 129 213 129 100 l 129 636 l 39 636 l 39 765 l 129 765 l 129 956 l 289 956 l 289 765 l 475 765 l 475 636 l 289 636 m 326 -64 q 346 -201 346 -136 q 189 -375 346 -375 l 189 -306 q 240 -286 224 -306 q 257 -226 257 -267 l 257 -197 l 183 -197 l 183 -64 l 326 -64 z "},"ˆ":{"ha":425,"x_min":14,"x_max":411,"o":"m 213 947 l 14 828 l 14 951 l 213 1067 l 411 951 l 411 828 l 213 947 z "},"ˇ":{"ha":425,"x_min":14,"x_max":411,"o":"m 411 943 l 213 828 l 14 943 l 14 1067 l 213 947 l 411 1067 l 411 943 z "},"ˉ":{"ha":536,"x_min":14,"x_max":522,"o":"m 522 1000 l 522 882 l 14 882 l 14 1000 l 522 1000 z "},"˘":{"ha":446,"x_min":14,"x_max":432,"o":"m 222 844 q 69 898 125 844 q 14 1039 14 951 l 14 1068 l 104 1068 q 131 993 104 1018 q 222 968 157 968 q 314 993 288 968 q 340 1068 340 1018 l 432 1068 l 432 1038 q 376 897 432 950 q 222 844 319 844 z "},"˙":{"ha":194,"x_min":14,"x_max":181,"o":"m 14 944 q 38 1003 14 979 q 97 1028 63 1028 q 156 1003 132 1028 q 181 944 181 979 q 156 885 181 910 q 97 861 132 861 q 38 885 63 861 q 14 944 14 910 z "},"˚":{"ha":331,"x_min":14,"x_max":317,"o":"m 165 1144 q 274 1103 231 1144 q 317 992 317 1061 q 274 882 317 924 q 165 840 231 840 q 58 882 101 840 q 14 992 14 924 q 58 1103 14 1061 q 165 1144 101 1144 m 165 1064 q 115 1044 135 1064 q 94 993 94 1025 q 115 942 94 963 q 165 922 136 922 q 217 942 196 922 q 238 993 238 963 q 217 1044 238 1025 q 165 1064 196 1064 z "},"˛":{"ha":368,"x_min":14,"x_max":339,"o":"m 290 13 l 290 -83 l 222 -83 q 163 -94 182 -83 q 144 -133 144 -104 q 164 -174 144 -162 q 222 -185 183 -185 l 339 -185 l 339 -285 l 192 -285 q 65 -244 115 -285 q 14 -133 14 -203 q 65 -26 14 -64 q 194 13 115 13 l 290 13 z "},"˜":{"ha":494,"x_min":14,"x_max":481,"o":"m 171 1007 q 217 999 197 1007 q 264 974 236 990 q 299 953 285 960 q 332 946 314 946 q 372 960 356 946 q 392 1004 388 975 l 481 1004 q 428 883 469 924 q 324 842 386 842 q 276 851 297 842 q 231 876 256 860 q 192 898 206 892 q 163 904 179 904 q 123 889 139 904 q 103 844 107 874 l 14 844 q 67 966 25 925 q 171 1007 108 1007 z "},"˝":{"ha":507,"x_min":14,"x_max":493,"o":"m 117 835 l 14 835 l 110 1071 l 247 1071 l 117 835 m 343 835 l 240 835 l 357 1071 l 493 1071 l 343 835 z "},"π":{"ha":981,"x_min":43,"x_max":931,"o":"m 931 765 l 931 642 l 824 642 l 824 0 l 667 0 l 667 642 l 307 642 l 307 0 l 149 0 l 149 642 l 43 642 l 43 765 l 931 765 z "},"–":{"ha":983,"x_min":121,"x_max":864,"o":"m 864 569 l 864 436 l 121 436 l 121 569 l 864 569 z "},"—":{"ha":1283,"x_min":121,"x_max":1163,"o":"m 1163 569 l 1163 436 l 121 436 l 121 569 l 1163 569 z "},"‘":{"ha":243,"x_min":40,"x_max":203,"o":"m 60 800 q 40 938 40 872 q 196 1111 40 1111 l 196 1042 q 129 963 129 1042 l 129 933 l 203 933 l 203 800 l 60 800 z "},"’":{"ha":243,"x_min":40,"x_max":203,"o":"m 183 1111 q 203 972 203 1039 q 47 800 203 800 l 47 868 q 114 947 114 868 l 114 976 l 40 976 l 40 1111 l 183 1111 z "},"‚":{"ha":281,"x_min":50,"x_max":225,"o":"m 200 108 q 225 -40 225 19 q 185 -169 225 -124 q 63 -215 144 -215 l 63 -146 q 113 -129 97 -146 q 129 -74 129 -112 l 129 -44 l 50 -44 l 50 108 l 200 108 z "},"“":{"ha":453,"x_min":40,"x_max":413,"o":"m 60 800 q 40 938 40 872 q 196 1111 40 1111 l 196 1042 q 129 963 129 1042 l 129 933 l 203 933 l 203 800 l 60 800 m 269 800 q 250 938 250 872 q 407 1111 250 1111 l 407 1042 q 356 1022 372 1042 q 339 963 339 1003 l 339 933 l 413 933 l 413 800 l 269 800 z "},"”":{"ha":453,"x_min":40,"x_max":414,"o":"m 183 1111 q 203 972 203 1039 q 47 800 203 800 l 47 868 q 114 947 114 868 l 114 976 l 40 976 l 40 1111 l 183 1111 m 394 1111 q 414 972 414 1031 q 257 800 414 800 l 257 868 q 325 947 325 868 l 325 976 l 251 976 l 251 1111 l 394 1111 z "},"„":{"ha":453,"x_min":40,"x_max":414,"o":"m 183 108 q 203 -31 203 36 q 47 -203 203 -203 l 47 -135 q 114 -56 114 -135 l 114 -26 l 40 -26 l 40 108 l 183 108 m 394 108 q 414 -31 414 28 q 257 -203 414 -203 l 257 -135 q 325 -56 325 -135 l 325 -26 l 251 -26 l 251 108 l 394 108 z "},"†":{"ha":811,"x_min":68,"x_max":743,"o":"m 743 642 l 468 656 l 485 -364 l 326 -364 l 343 656 l 68 642 l 68 765 l 343 751 l 326 1088 l 485 1088 l 468 751 l 743 765 l 743 642 z "},"‡":{"ha":813,"x_min":69,"x_max":743,"o":"m 468 656 l 468 69 l 743 83 l 743 -40 l 468 -26 l 485 -364 l 326 -364 l 343 -26 l 69 -40 l 69 83 l 343 69 l 343 656 l 69 642 l 69 765 l 343 751 l 326 1088 l 485 1088 l 468 751 l 743 765 l 743 642 l 468 656 z "},"•":{"ha":642,"x_min":139,"x_max":503,"o":"m 139 463 q 192 592 139 539 q 319 644 244 644 q 450 592 397 644 q 503 463 503 539 q 450 334 503 386 q 319 282 397 282 q 228 306 269 282 q 163 372 188 331 q 139 463 139 413 z "},"…":{"ha":886,"x_min":68,"x_max":818,"o":"m 347 94 q 374 163 347 135 q 442 190 401 190 q 510 163 482 190 q 538 94 538 135 q 510 27 538 54 q 442 0 482 0 q 375 28 403 0 q 347 94 347 56 m 628 94 q 655 163 628 135 q 722 190 682 190 q 790 163 763 190 q 818 94 818 135 q 790 27 818 54 q 722 0 763 0 q 656 28 683 0 q 628 94 628 56 m 68 94 q 95 163 68 135 q 163 190 122 190 q 231 163 203 190 q 258 94 258 135 q 231 27 258 54 q 163 0 203 0 q 96 28 124 0 q 68 94 68 56 z "},"‰":{"ha":1475,"x_min":57,"x_max":1418,"o":"m 268 981 q 420 924 361 981 q 479 768 479 867 q 420 612 479 669 q 268 554 361 554 q 116 612 175 554 q 57 768 57 669 q 116 924 57 867 q 268 981 175 981 m 856 967 l 301 0 l 146 0 l 700 967 l 856 967 m 181 768 q 268 650 181 650 q 333 679 310 650 q 356 768 356 708 q 333 856 356 828 q 268 885 310 885 q 181 768 181 885 m 736 413 q 887 356 828 413 q 946 200 946 299 q 887 44 946 101 q 736 -14 828 -14 q 584 44 643 -14 q 525 200 525 101 q 584 356 525 299 q 736 413 643 413 m 1207 413 q 1359 356 1300 413 q 1418 200 1418 299 q 1359 44 1418 101 q 1207 -14 1300 -14 q 1056 44 1115 -14 q 996 200 996 101 q 1056 356 996 299 q 1207 413 1115 413 m 647 200 q 670 112 647 140 q 735 83 693 83 q 799 112 776 83 q 822 200 822 140 q 799 288 822 260 q 735 317 776 317 q 670 288 693 317 q 647 200 647 260 m 1119 200 q 1207 83 1119 83 q 1272 112 1249 83 q 1294 200 1294 140 q 1272 288 1294 260 q 1207 317 1249 317 q 1119 200 1119 317 z "},"‹":{"ha":413,"x_min":63,"x_max":343,"o":"m 190 167 l 63 410 l 190 653 l 343 653 l 210 410 l 343 167 l 190 167 z "},"›":{"ha":413,"x_min":69,"x_max":350,"o":"m 201 410 l 69 653 l 221 653 l 350 410 l 221 167 l 69 167 l 201 410 z "},"⁄":{"ha":815,"x_min":71,"x_max":782,"o":"m 782 967 l 228 0 l 71 0 l 625 967 l 782 967 z "},"€":{"ha":1114,"x_min":36,"x_max":1076,"o":"m 629 135 q 783 172 717 135 q 886 281 849 208 l 1076 281 q 903 67 1022 142 q 629 -8 783 -8 q 340 80 467 -8 q 164 315 214 168 l 36 315 l 36 424 l 139 424 q 136 485 136 463 q 139 546 136 507 l 36 546 l 36 654 l 164 654 q 340 890 214 801 q 629 978 467 978 q 902 902 782 978 q 1076 688 1022 826 l 886 688 q 783 797 849 760 q 629 833 717 833 q 451 786 529 833 q 333 654 374 739 l 629 654 l 629 546 l 303 546 q 299 485 299 517 q 303 424 299 453 l 629 424 l 629 315 l 333 315 q 451 182 374 229 q 629 135 528 135 z "},"₺":{"ha":1181,"x_min":15,"x_max":1011,"o":"m 1011 594 q 890 129 1011 279 q 499 -21 768 -21 q 228 14 382 -21 l 228 335 l 21 288 l 21 400 l 228 447 l 228 565 l 15 517 l 15 625 l 228 674 l 228 974 l 390 974 l 390 711 l 618 764 l 618 653 l 390 601 l 390 483 l 611 533 l 611 422 l 390 372 l 390 138 q 499 128 436 128 q 768 246 688 128 q 849 594 849 364 l 1011 594 z "},"₽":{"ha":882,"x_min":36,"x_max":835,"o":"m 318 392 l 318 278 l 594 278 l 594 151 l 318 151 l 318 0 l 160 0 l 160 151 l 36 151 l 36 278 l 160 278 l 160 392 l 36 392 l 36 515 l 160 515 l 160 965 l 493 965 q 681 927 604 965 q 797 824 758 889 q 835 678 835 758 q 800 539 835 604 q 689 433 765 474 q 493 392 613 392 l 318 392 m 318 515 l 493 515 q 628 558 583 515 q 672 678 672 601 q 628 799 672 756 q 493 842 583 842 l 318 842 l 318 515 z "},"ℓ":{"ha":367,"x_min":104,"x_max":263,"o":"m 263 1028 l 263 0 l 104 0 l 104 1028 l 263 1028 z "},"™":{"ha":1126,"x_min":33,"x_max":1042,"o":"m 33 978 l 374 978 l 374 883 l 264 883 l 265 489 l 140 489 l 143 883 l 33 883 l 33 978 m 1042 978 l 1042 489 l 928 489 l 925 819 l 788 489 l 703 489 l 567 826 l 567 489 l 454 489 l 454 978 l 615 978 l 749 635 l 889 978 l 1042 978 z "},"Ω":{"ha":1090,"x_min":53,"x_max":1038,"o":"m 1038 485 q 992 274 1038 369 q 857 124 946 179 l 1022 124 l 1022 0 l 643 0 l 643 128 q 812 256 747 164 q 876 475 876 347 q 834 665 876 583 q 716 790 792 746 q 544 833 640 833 q 374 790 449 833 q 256 665 299 746 q 214 475 214 583 q 278 256 214 347 q 447 128 343 164 l 447 0 l 67 0 l 67 124 l 233 124 q 99 274 144 179 q 53 485 53 369 q 118 739 53 626 q 296 915 183 851 q 544 978 408 978 q 794 915 681 978 q 972 739 907 851 q 1038 485 1038 626 z "},"℮":{"ha":1051,"x_min":60,"x_max":992,"o":"m 538 -10 q 292 46 400 -10 q 122 208 183 101 q 60 461 60 314 q 115 724 60 607 q 274 910 169 842 q 525 978 379 978 q 775 915 669 978 q 936 748 881 851 q 992 525 992 644 l 992 439 l 269 439 l 269 203 q 387 118 322 146 q 538 90 451 90 q 720 133 638 90 q 888 260 803 175 l 951 189 q 538 -10 767 -10 m 772 779 q 666 853 729 828 q 525 879 603 879 q 269 765 358 879 l 269 538 l 772 538 l 772 779 z "},"∂":{"ha":813,"x_min":53,"x_max":760,"o":"m 433 778 q 524 760 486 778 q 594 704 563 742 q 537 872 586 810 q 399 935 488 935 q 289 918 351 935 l 289 1007 q 422 1028 353 1028 q 605 971 529 1028 q 720 810 681 914 q 760 569 760 707 q 703 263 760 394 q 549 59 646 131 q 336 -12 451 -12 q 132 72 211 -12 q 53 321 53 157 q 104 548 53 443 q 243 715 156 653 q 433 778 331 778 m 439 644 q 324 601 375 644 q 243 485 272 558 q 214 321 214 411 q 252 171 214 221 q 354 121 290 121 q 469 165 417 121 q 553 285 522 210 q 583 446 583 360 q 544 593 583 542 q 439 644 506 644 z "},"∆":{"ha":967,"x_min":28,"x_max":939,"o":"m 549 967 l 939 122 l 939 0 l 28 0 l 28 122 l 418 967 l 549 967 m 190 122 l 776 122 l 483 786 l 190 122 z "},"∏":{"ha":1029,"x_min":43,"x_max":986,"o":"m 986 967 l 986 843 l 879 843 l 879 0 l 722 0 l 722 843 l 307 843 l 307 0 l 149 0 l 149 843 l 43 843 l 43 967 l 986 967 z "},"∑":{"ha":667,"x_min":56,"x_max":611,"o":"m 611 844 l 190 844 l 554 510 l 554 388 l 189 44 l 611 44 l 611 -78 l 56 -78 l 56 107 l 408 446 l 56 783 l 56 967 l 611 967 l 611 844 z "},"−":{"ha":813,"x_min":121,"x_max":692,"o":"m 692 569 l 692 436 l 121 436 l 121 569 l 692 569 z "},"∕":{"ha":714,"x_min":85,"x_max":618,"o":"m 618 1311 l 240 -243 l 85 -243 l 461 1311 l 618 1311 z "},"∙":{"ha":339,"x_min":74,"x_max":264,"o":"m 74 468 q 101 536 74 508 q 168 564 128 564 q 236 536 208 564 q 264 468 264 508 q 236 401 264 428 q 168 374 208 374 q 101 401 129 374 q 74 468 74 429 z "},"√":{"ha":1151,"x_min":29,"x_max":1136,"o":"m 1136 1221 l 436 -60 l 356 -60 l 172 264 l 76 207 l 29 286 l 261 424 l 426 131 l 1022 1221 l 1136 1221 z "},"∞":{"ha":975,"x_min":38,"x_max":938,"o":"m 715 699 q 874 641 810 699 q 938 483 938 583 q 908 368 938 417 q 826 293 878 319 q 714 267 775 267 q 591 301 646 267 q 483 394 536 335 q 388 302 446 338 q 260 267 329 267 q 100 324 163 267 q 38 482 38 382 q 67 597 38 549 q 149 672 97 646 q 261 699 200 699 q 385 663 332 699 q 489 567 439 628 q 585 663 526 626 q 715 699 644 699 m 269 381 q 351 406 311 381 q 418 474 390 432 q 340 557 374 529 q 269 585 307 585 q 197 558 225 585 q 169 482 169 531 q 197 407 169 433 q 269 381 225 381 m 706 381 q 778 408 750 381 q 806 483 806 435 q 778 558 806 532 q 706 585 750 585 q 622 558 663 585 q 553 486 581 532 q 629 407 594 433 q 706 381 664 381 z "},"∫":{"ha":375,"x_min":-58,"x_max":442,"o":"m 175 1071 q 246 1235 188 1186 q 411 1285 304 1285 l 442 1285 l 428 1153 l 406 1153 q 356 1134 372 1153 q 333 1071 339 1115 l 208 -89 q 137 -252 196 -203 q -29 -301 78 -301 l -58 -301 l -46 -171 l -22 -171 q 28 -151 11 -171 q 49 -89 44 -132 l 175 1071 z "},"≈":{"ha":768,"x_min":50,"x_max":718,"o":"m 271 479 q 340 467 310 479 q 408 429 369 454 q 463 399 443 408 q 508 389 483 389 q 570 412 543 389 q 603 476 597 435 l 718 476 q 640 303 697 360 q 496 247 582 247 q 428 260 457 247 q 360 297 399 272 q 307 328 329 318 q 260 338 285 338 q 197 315 224 338 q 164 250 169 292 l 50 250 q 128 423 71 367 q 271 479 185 479 m 271 788 q 340 775 310 788 q 408 738 369 763 q 463 707 443 717 q 508 697 483 697 q 570 720 543 697 q 603 785 597 743 l 718 785 q 640 612 697 668 q 496 556 582 556 q 428 568 457 556 q 360 606 399 581 q 307 636 329 626 q 260 646 285 646 q 197 623 224 646 q 164 558 169 600 l 50 558 q 128 731 71 675 q 271 788 185 788 z "},"≠":{"ha":1044,"x_min":168,"x_max":907,"o":"m 796 729 l 907 729 l 907 589 l 672 589 l 519 414 l 907 414 l 907 274 l 397 274 l 285 146 l 168 146 l 281 274 l 168 274 l 168 414 l 403 414 l 556 589 l 168 589 l 168 729 l 679 729 l 790 857 l 907 857 l 796 729 z "},"≤":{"ha":763,"x_min":118,"x_max":646,"o":"m 328 554 l 646 289 l 438 289 l 118 553 l 438 817 l 646 817 l 328 554 m 126 213 l 639 213 l 639 93 l 126 93 l 126 213 z "},"≥":{"ha":763,"x_min":118,"x_max":646,"o":"m 118 289 l 435 554 l 118 817 l 325 817 l 646 553 l 325 289 l 118 289 m 124 213 l 636 213 l 636 93 l 124 93 l 124 213 z "},"◊":{"ha":774,"x_min":43,"x_max":731,"o":"m 731 488 l 388 143 l 43 488 l 388 831 l 731 488 m 207 488 l 388 306 l 568 488 l 388 668 l 207 488 z "},"ﬁ":{"ha":828,"x_min":33,"x_max":746,"o":"m 283 765 l 724 765 l 724 0 l 565 0 l 565 636 l 283 636 l 283 0 l 124 0 l 124 636 l 33 636 l 33 765 l 124 765 l 124 819 q 194 1012 124 951 q 414 1072 264 1072 l 414 940 q 313 913 342 940 q 283 819 283 886 l 283 765 m 644 867 q 574 896 603 867 q 544 968 544 925 q 574 1040 544 1011 q 644 1069 603 1069 q 717 1040 688 1069 q 746 968 746 1011 q 717 896 746 925 q 644 867 688 867 z "},"ﬂ":{"ha":828,"x_min":33,"x_max":724,"o":"m 425 636 l 283 636 l 283 0 l 124 0 l 124 636 l 33 636 l 33 765 l 124 765 l 124 819 q 194 1012 124 951 q 414 1072 264 1072 l 414 940 q 313 913 342 940 q 283 819 283 886 l 283 765 l 425 765 l 425 636 m 724 1028 l 724 0 l 565 0 l 565 1028 l 724 1028 z "}}}
